<?xml version="1.0" encoding="UTF-8"?>
<svg width="18px" height="22px" viewBox="0 0 18 22" version="1.1" xmlns="http://www.w3.org/2000/svg" xmlns:xlink="http://www.w3.org/1999/xlink">
    <!-- Generator: Sketch 52.4 (67378) - http://www.bohemiancoding.com/sketch -->
    <title>_Group_3</title>
    <desc>Created with Sketch.</desc>
    <g id="_NEW-Website-TradeTools" stroke="none" stroke-width="1" fill="none" fill-rule="evenodd">
        <g id="TT_Website_v5-_-Appstore-Portugues-Copy-3" transform="translate(-1169.000000, -663.000000)" fill="#FFFFFF" fill-rule="nonzero">
            <g id="_Group_3" transform="translate(1169.000000, 663.000000)">
                <path d="M14.7739043,11.4262631 C14.7952862,9.76008634 15.6653376,8.22104588 17.0792348,7.34834702 C16.1832189,6.06359885 14.7362531,5.27824362 13.1748391,5.22919702 C11.5321043,5.05608452 9.93954457,6.21608363 9.10243696,6.21608363 C8.24912935,6.21608363 6.96027065,5.24638452 5.57238261,5.27505327 C3.74628384,5.33428475 2.08513419,6.35137919 1.1967,7.95421131 C-0.695256522,11.2428381 0.715972826,16.0760122 2.5283087,18.7342899 C3.4350587,20.0359729 4.49478913,21.4899863 5.881425,21.4384238 C7.23833152,21.3819211 7.74510978,20.5697381 9.38301196,20.5697381 C11.005712,20.5697381 11.4811761,21.4384238 12.8959467,21.4056399 C14.3519707,21.3819113 15.2693348,20.098172 16.1442717,18.7841631 C16.7957701,17.8566664 17.2970971,16.8315805 17.6296826,15.7468765 C15.9003684,15.012559 14.7759227,13.3113433 14.7739043,11.4262631 Z" id="_Path_"></path>
                <path d="M12.1016576,3.48093363 C12.8955423,2.52412211 13.2866592,1.29430301 13.1919489,0.052646131 C11.9790696,0.180541253 10.8587089,0.762519026 10.0540989,1.68262024 C9.25958353,2.59042375 8.85708388,3.77807376 8.93525217,4.98398542 C10.1643947,4.99669117 11.3314397,4.44271001 12.1016576,3.48093363 Z" id="_Path_2"></path>
            </g>
        </g>
    </g>
</svg>