<?xml version="1.0" encoding="UTF-8"?>
<svg width="19px" height="14px" viewBox="0 0 19 14" version="1.1" xmlns="http://www.w3.org/2000/svg" xmlns:xlink="http://www.w3.org/1999/xlink">
    <!-- Generator: Sketch 52.5 (67469) - http://www.bohemiancoding.com/sketch -->
    <title>Group</title>
    <desc>Created with Sketch.</desc>
    <g id="_NEW-Website-TradeTools" stroke="none" stroke-width="1" fill="none" fill-rule="evenodd">
        <g id="TT_Website_v5-_-Appstore-Portugues-Copy-5" transform="translate(-295.000000, -6199.000000)" fill="#5175EC" fill-rule="nonzero">
            <g id="Group" transform="translate(304.500000, 6204.000000) rotate(-45.000000) translate(-304.500000, -6204.000000) translate(296.000000, 6199.000000)">
                <path d="M16.5753208,7.3252818 L16.5753208,9.26731079 C16.5753208,9.65150888 16.2638667,9.96296296 15.8796687,9.96296296 L1.13671374,9.96296296 C0.752515656,9.96296296 0.441061569,9.65150888 0.441061569,9.26731079 L0.441061569,7.3252818 C0.441061569,6.94108372 0.752515656,6.62962963 1.13671374,6.62962963 L15.8796687,6.62962963 C16.2638667,6.62962963 16.5753208,6.94108372 16.5753208,7.3252818 Z" id="Path"></path>
                <path d="M3.27888486,9.96296296 L1.12852254,9.96296296 C0.744324457,9.96296296 0.43287037,9.65150888 0.43287037,9.26731079 L0.43287037,1.02898551 C0.43287037,0.64478742 0.744324457,0.333333333 1.12852254,0.333333333 L3.27888486,0.333333333 C3.66308295,0.333333333 3.97453704,0.64478742 3.97453704,1.02898551 L3.97453704,9.26731079 C3.97453704,9.65150888 3.66308295,9.96296296 3.27888486,9.96296296 Z" id="Path"></path>
            </g>
        </g>
    </g>
</svg>