<?xml version="1.0" encoding="UTF-8"?>
<svg width="8px" height="17px" viewBox="0 0 8 17" version="1.1" xmlns="http://www.w3.org/2000/svg" xmlns:xlink="http://www.w3.org/1999/xlink">
    <!-- Generator: Sketch 51.3 (57544) - http://www.bohemiancoding.com/sketch -->
    <title>icon_facebook</title>
    <desc>Created with Sketch.</desc>
    <defs></defs>
    <g id="Symbols" stroke="none" stroke-width="1" fill="none" fill-rule="evenodd">
        <g id="footer" transform="translate(-934.000000, -120.000000)" fill="#505050">
            <g id="Group-2">
                <g id="icon_facebook" transform="translate(934.000000, 120.000000)">
                    <path d="M3.99507357,17 L4.55487941,16.9995175 C4.69424919,16.9992763 4.80779252,16.8814278 4.80825786,16.7366805 C4.81174792,15.3512074 4.81104991,13.9658549 4.81046823,12.5802612 C4.80977022,11.2191538 4.80918854,9.85816716 4.81244594,8.49718047 L4.81291128,8.31769379 L4.98590198,8.31672881 C5.1898379,8.31540196 5.39377382,8.31491947 5.59782607,8.31491947 L6.49430649,8.31576383 C6.64472814,8.31576383 6.79514978,8.3156432 6.94545509,8.31491947 C7.07016661,8.31443698 7.1773115,8.21757689 7.19452913,8.08983738 C7.29806762,7.3254509 7.37333661,6.65165212 7.42464051,6.02996238 C7.43080629,5.95481439 7.40730654,5.8828026 7.35821301,5.82731613 C7.30993383,5.77267401 7.24397167,5.74251832 7.17265808,5.74251832 L6.86692871,5.74227707 L5.83224186,5.74288019 C5.55431664,5.74288019 5.27639142,5.74251832 4.9984662,5.74131209 L4.82489382,5.74046773 L4.82373047,5.01962607 C4.82233444,4.5291739 4.82105475,4.02207578 4.82768587,3.52281814 L4.83047792,3.49266245 C4.91447206,3.01813248 5.37422948,2.64975055 5.8517862,2.68038873 C6.05758349,2.68099185 6.27338561,2.68135372 6.48942041,2.68135372 L7.21128143,2.68087123 C7.35076755,2.68087123 7.46465988,2.56338465 7.46512522,2.41911982 C7.46721926,1.70069061 7.46710292,0.98189954 7.46524156,0.263349711 C7.46477622,0.119205504 7.35111655,0.001598305 7.21174677,0.00135705946 L6.90904212,0.000874568393 C6.22626978,-0.000211036518 5.54326478,-0.0014172642 4.86025978,0.00485511973 C3.84151087,0.0364582849 3.05322235,0.31907743 2.52087166,0.84463083 C2.05157475,1.29419189 1.76201599,1.96919689 1.70338296,2.7469725 C1.68395495,3.27819517 1.686747,3.82823499 1.68942271,4.3601814 C1.69140042,4.75775404 1.69337812,5.16883644 1.68604899,5.57400831 L1.68290793,5.74975569 L1.51329095,5.75156503 C1.35519117,5.75313312 1.19697506,5.75361561 1.03875895,5.75361561 L0.385652134,5.75277125 L0.253960487,5.75289188 C0.114009027,5.75313312 0.000233027342,5.87074032 0.000233027342,6.01536702 L0.00034936272,6.55587764 C0.000465698098,7.05501466 0.000582033476,7.55403105 3.56586015e-07,8.05328868 C-0.00023231417,8.19767414 0.11342735,8.31552258 0.253262474,8.31588445 L0.404963807,8.31612569 L1.07586993,8.31491947 C1.2217545,8.31491947 1.36763906,8.31540196 1.51340729,8.31709068 L1.68535098,8.31890002 L1.68616532,8.49705985 C1.6923311,9.80412816 1.69093507,11.1329086 1.68953905,12.4180235 C1.68802669,13.8346173 1.686398,15.2994602 1.69512315,16.7394548 C1.6959375,16.8831165 1.8097135,17 1.94873427,17 C2.17582093,16.9993969 2.40220958,16.9992763 2.62871456,16.9992763 L3.99507357,17 Z" id="Fill-1"></path>
                </g>
            </g>
        </g>
    </g>
</svg>