<?xml version="1.0" encoding="UTF-8"?>
<svg width="20px" height="22px" viewBox="0 0 20 22" version="1.1" xmlns="http://www.w3.org/2000/svg" xmlns:xlink="http://www.w3.org/1999/xlink">
    <!-- Generator: Sketch 52.4 (67378) - http://www.bohemiancoding.com/sketch -->
    <title>iconmonstr-google-play-1</title>
    <desc>Created with Sketch.</desc>
    <g id="_NEW-Website-TradeTools" stroke="none" stroke-width="1" fill="none" fill-rule="evenodd">
        <g id="TT_Website_v5-_-Appstore-Portugues-Copy-3" transform="translate(-1115.000000, -663.000000)" fill="#FFFFFF">
            <g id="iconmonstr-google-play-1" transform="translate(1115.000000, 663.000000)">
                <path d="M0.519090909,21.692 L10.0927273,12.0660833 L13.4672727,15.4586667 L2.08636364,21.82125 C1.65363636,22.06325 1.12363636,22.0595833 0.693636364,21.8111667 L0.519090909,21.692 Z M9.12727273,11.0953333 L0,20.2720833 L0,1.91858333 L9.12727273,11.0953333 Z M14.8309091,7.30308333 L19.29,9.7955 C19.7281818,10.0411667 20,10.5013333 20,11 C20,11.4986667 19.7281818,11.9588333 19.29,12.2045 L14.7090909,14.76475 L11.0590909,11.0953333 L14.8309091,7.30308333 Z M0.418181818,0.396916667 C0.5,0.317166667 0.591818182,0.2475 0.693636364,0.188833333 C1.12363636,-0.0595833333 1.65363636,-0.06325 2.08636364,0.17875 L13.5890909,6.60916667 L10.0927273,10.1245833 L0.418181818,0.396916667 Z" id="Shape"></path>
            </g>
        </g>
    </g>
</svg>