<?xml version="1.0" encoding="UTF-8"?>
<svg width="20px" height="21px" viewBox="0 0 20 21" version="1.1" xmlns="http://www.w3.org/2000/svg" xmlns:xlink="http://www.w3.org/1999/xlink">
    <!-- Generator: Sketch 51.3 (57544) - http://www.bohemiancoding.com/sketch -->
    <title>icon_instagram</title>
    <desc>Created with Sketch.</desc>
    <defs></defs>
    <g id="Symbols" stroke="none" stroke-width="1" fill="none" fill-rule="evenodd">
        <g id="footer" transform="translate(-867.000000, -119.000000)" fill="#505050">
            <g id="Group-2">
                <g id="icon_instagram" transform="translate(867.000000, 119.000000)">
                    <path d="M9.96556164,0.0700433053 C7.2589863,0.0700433053 6.91967123,0.081735749 5.85679452,0.131011047 C4.79610959,0.18014715 4.07172603,0.351357932 3.43775342,0.601631905 C2.78227397,0.860536014 2.22665753,1.20671586 1.67268493,1.76962351 C1.11857534,2.33267035 0.777890411,2.89738754 0.52309589,3.56330004 C0.276794521,4.20749801 0.10830137,4.94356518 0.0599452055,6.02135793 C0.0114520548,7.10137782 -5.47945205e-05,7.44616571 -5.47945205e-05,10.1963955 C-5.47945205e-05,12.9464861 0.0114520548,13.291274 0.0599452055,14.3712939 C0.10830137,15.4492258 0.276794521,16.185293 0.52309589,16.8293517 C0.777890411,17.4954034 1.11857534,18.0599814 1.67268493,18.6230283 C2.22665753,19.1859359 2.78227397,19.5321158 3.43775342,19.7910199 C4.07172603,20.0412939 4.79610959,20.2125046 5.85679452,20.2617799 C6.91967123,20.310916 7.2589863,20.3226085 9.96556164,20.3226085 C12.672,20.3226085 13.0113151,20.310916 14.0741918,20.2617799 C15.1350137,20.2125046 15.8593973,20.0412939 16.4932329,19.7910199 C17.1487123,19.5321158 17.7043288,19.1859359 18.2584384,18.6230283 C18.812411,18.0599814 19.1530959,17.4954034 19.4078904,16.8293517 C19.6543288,16.185293 19.8226849,15.4492258 19.8711781,14.3712939 C19.9195342,13.291274 19.9310411,12.9464861 19.9310411,10.1963955 C19.9310411,7.44616571 19.9195342,7.10137782 19.8711781,6.02135793 C19.8226849,4.94356518 19.6543288,4.20749801 19.4078904,3.56330004 C19.1530959,2.89738754 18.812411,2.33267035 18.2584384,1.76962351 C17.7043288,1.20671586 17.1487123,0.860536014 16.4932329,0.601631905 C15.8593973,0.351357932 15.1350137,0.18014715 14.0741918,0.131011047 C13.0113151,0.081735749 12.672,0.0700433053 9.96556164,0.0700433053 M9.96556164,1.8946213 C12.6263836,1.8946213 12.941589,1.90506098 13.992411,1.9536403 C14.9640548,1.99860053 15.491726,2.1636867 15.8428219,2.30232567 C16.3080274,2.48592488 16.6400822,2.70557578 16.9888493,3.05982899 C17.3373425,3.41408219 17.5535068,3.75149271 17.7341918,4.2242015 C17.8706301,4.58096023 18.0330959,5.11728148 18.0773425,6.1044578 C18.1252877,7.17222846 18.1354247,7.4925179 18.1354247,10.1963955 C18.1354247,12.9001339 18.1252877,13.2204233 18.0773425,14.2883332 C18.0330959,15.2755095 17.8706301,15.8116916 17.7341918,16.1684503 C17.5535068,16.6411591 17.3373425,16.9785696 16.9888493,17.332962 C16.6400822,17.687076 16.3080274,17.9067269 15.8428219,18.0903261 C15.491726,18.2289651 14.9640548,18.3940513 13.992411,18.4390115 C12.941863,18.48773 12.6266575,18.4980305 9.96556164,18.4980305 C7.30432877,18.4980305 6.98926027,18.48773 5.93871233,18.4390115 C4.96706849,18.3940513 4.43926027,18.2289651 4.08816438,18.0903261 C3.6229589,17.9067269 3.29090411,17.687076 2.94227397,17.332962 C2.59364384,16.9785696 2.37747945,16.6411591 2.19679452,16.1684503 C2.06035616,15.8116916 1.8980274,15.2755095 1.85364384,14.2883332 C1.80583562,13.2204233 1.79556164,12.9001339 1.79556164,10.1963955 C1.79556164,7.4925179 1.80583562,7.17222846 1.85364384,6.104597 C1.8980274,5.11728148 2.06035616,4.58096023 2.19679452,4.2242015 C2.37747945,3.75149271 2.59364384,3.41408219 2.94227397,3.05982899 C3.29090411,2.70557578 3.6229589,2.48592488 4.08816438,2.30232567 C4.43926027,2.1636867 4.96706849,1.99860053 5.93871233,1.9536403 C6.98939726,1.90506098 7.30460274,1.8946213 9.96556164,1.8946213" id="Fill-1"></path>
                    <path d="M9.91191781,13.5863411 C8.07726027,13.5863411 6.59,12.075232 6.59,10.2109832 C6.59,8.34673442 8.07726027,6.83548608 9.91191781,6.83548608 C11.7465753,6.83548608 13.2336986,8.34673442 13.2336986,10.2109832 C13.2336986,12.075232 11.7465753,13.5863411 9.91191781,13.5863411 M9.91191781,5.01104728 C7.08561644,5.01104728 4.79452055,7.33909633 4.79452055,10.2109832 C4.79452055,13.0828701 7.08561644,15.4107799 9.91191781,15.4107799 C12.7382192,15.4107799 15.0291781,13.0828701 15.0291781,10.2109832 C15.0291781,7.33909633 12.7382192,5.01104728 9.91191781,5.01104728" id="Fill-4"></path>
                    <path d="M16.5012329,4.83412947 C16.5012329,5.50519222 15.9658904,6.04930844 15.3054795,6.04930844 C14.6449315,6.04930844 14.109589,5.50519222 14.109589,4.83412947 C14.109589,4.16306673 14.6449315,3.6190897 15.3054795,3.6190897 C15.9658904,3.6190897 16.5012329,4.16306673 16.5012329,4.83412947" id="Fill-6"></path>
                </g>
            </g>
        </g>
    </g>
</svg>