<?xml version="1.0" encoding="UTF-8"?>
<svg width="17px" height="17px" viewBox="0 0 17 17" version="1.1" xmlns="http://www.w3.org/2000/svg" xmlns:xlink="http://www.w3.org/1999/xlink">
    <!-- Generator: Sketch 51.3 (57544) - http://www.bohemiancoding.com/sketch -->
    <title>icon_linkedin</title>
    <desc>Created with Sketch.</desc>
    <defs>
        <path d="M0.0224935252,1.97547429 C0.0224935252,3.06666 0.906034532,3.95291571 2.00064173,3.95291571 C3.09058705,3.95291571 3.9742446,3.06666 3.9742446,1.97547429 C3.9742446,0.884404286 3.09058705,0.00254571429 2.00064173,0.00254571429 C0.906034532,0.00254571429 0.0224935252,0.884404286 0.0224935252,1.97547429 Z" id="path-1"></path>
        <path d="M3.30969496,1.82284714 L3.30969496,0.380005714 L0.107106475,0.380005714 L0.107106475,11.0862386 L3.30969496,11.0862386 L3.30969496,5.46599571 C3.30969496,3.96066857 4.0048964,3.06550286 5.34168777,3.06550286 C6.57067338,3.06550286 7.16284748,3.92502857 7.16284748,5.46599571 L7.16284748,11.0862386 L10.4820993,11.0862386 L10.4820993,4.30804286 C10.4820993,1.43994857 8.84485036,0.0504514286 6.5572705,0.0504514286 C4.27411942,0.0504514286 3.30969496,1.82284714 3.30969496,1.82284714 Z" id="path-3"></path>
    </defs>
    <g id="Symbols" stroke="none" stroke-width="1" fill="none" fill-rule="evenodd">
        <g id="footer" transform="translate(-902.000000, -121.000000)">
            <g id="Group-2">
                <g id="icon_linkedin" transform="translate(902.000000, 121.000000)">
                    <polygon id="Fill-1" fill="#505050" points="0.349640288 16.14492 3.68684029 16.14492 3.68684029 5.43857143 0.349640288 5.43857143"></polygon>
                    <g id="Group-4">
                        <mask id="mask-2" fill="white">
                            <use xlink:href="#path-1"></use>
                        </mask>
                        <g id="Clip-3"></g>
                        <polygon id="Fill-2" fill="#505050" mask="url(#mask-2)" points="0 3.97513286 3.99662158 3.97513286 3.99662158 -0.0196714286 0 -0.0196714286"></polygon>
                    </g>
                    <g id="Group-7" transform="translate(5.710791, 4.975714)">
                        <mask id="mask-4" fill="white">
                            <use xlink:href="#path-3"></use>
                        </mask>
                        <g id="Clip-6"></g>
                        <polygon id="Fill-5" fill="#505050" mask="url(#mask-4)" points="0.0846129496 11.1086871 10.5045928 11.1086871 10.5045928 0.0282342857 0.0846129496 0.0282342857"></polygon>
                    </g>
                </g>
            </g>
        </g>
    </g>
</svg>