<svg xmlns="http://www.w3.org/2000/svg" width="381" height="294" viewBox="0 0 381 294">
    <g fill="none" fill-rule="evenodd">
        <path fill="#C0D1FF" stroke="#C0D1FF" stroke-linecap="round" stroke-linejoin="round" stroke-width="2.385" d="M159.265 193.179c-1.584 0-3.167.373-4.564 1.213l-75.627 43.753c-3.353 1.96-3.353 6.81 0 8.77l75.627 43.753c1.397.84 2.98 1.213 4.564 1.213h32.318l-32.318-98.702z"/>
        <path fill="#FFF" d="M109.902 46.992l77.397-44.5a6.155 6.155 0 0 1 5.96 0L270.658 46.9c1.397.84 2.328 2.332 2.328 4.012v137.044l-11.828 6.81 11.828 6.81v41.048c0 2.052-1.117 3.918-2.887 4.944l-76.931 44.314a1.921 1.921 0 0 1-2.888-1.68v-188.26l-80.377-46.46c-3.26-1.865-3.26-6.623 0-8.489z"/>
        <path stroke="#5882F5" stroke-linecap="round" stroke-linejoin="round" stroke-width="2.385" d="M185.716 3.146l-75.628 43.753c-3.353 1.96-3.353 6.81 0 8.77l75.628 43.753c2.794 1.586 6.333 1.586 9.127 0l75.628-43.754c3.353-1.959 3.353-6.81 0-8.769L194.843 3.146c-2.887-1.68-6.333-1.68-9.127 0zM107.574 242.53c0 1.679.838 3.451 2.514 4.384l75.628 43.754c2.794 1.586 6.333 1.586 9.127 0l75.628-43.754c1.676-.933 2.514-2.705 2.514-4.384"/>
        <path stroke="#5882F5" stroke-linecap="round" stroke-linejoin="round" stroke-width="2.385" d="M169.882 40.089l33.902-19.685 7.824 4.572-13.133 7.463 32.785 18.472-8.848 5.037-32.133-18.658-12.48 7.37zM211.98 62.105L178.078 81.79l-7.916-4.571 13.132-7.37-32.784-18.565 8.848-5.038 32.225 18.658 12.48-7.37z"/>
        <path fill="#FFF" d="M309.588 110.337c8.01-4.385 25.8-14.74 32.04-18.285 1.397-.84 3.073-.84 4.377 0l31.76 18.191c.838.467 1.397 1.4 1.397 2.426v14.74l-35.486 20.43v-13.06l-34.274-20.244c-1.49-.84-1.397-3.265.186-4.198z"/>
        <path stroke="#5882F5" stroke-linecap="round" stroke-linejoin="round" stroke-width="2.385" d="M341.348 92.238l-31.573 18.285c-1.677 1.027-1.677 3.452 0 4.478l31.573 18.285a5.038 5.038 0 0 0 5.123 0l31.573-18.285c1.677-1.026 1.677-3.451 0-4.478l-31.573-18.285c-1.677-.933-3.54-.933-5.123 0z"/>
        <path stroke="#5882F5" stroke-linecap="round" stroke-linejoin="round" stroke-width="2.385" d="M308.377 126.383c0 .84.466 1.679 1.304 2.239l31.574 18.285a5.038 5.038 0 0 0 5.122 0l31.574-18.285c.838-.467 1.304-1.4 1.304-2.24M272.985 201.575v40.955M272.985 51.284V187.86M107.574 242.53V51.284M379.348 112.762v13.62M308.377 112.762v13.62M343.863 147.56v-13.62"/>
        <path fill="#FFF" d="M297.015 200.642l23.563-13.434 11.456 6.53v15.114l-24.122 14.18v-14.18l-10.897-6.344c-.745-.466-.745-1.493 0-1.866z"/>
        <path stroke="#5882F5" stroke-linecap="round" stroke-linejoin="round" stroke-width="2.385" d="M331.29 195.791l-21.795 12.594c-.931.56-2.142.56-3.073 0l-8.942-5.224c-1.024-.56-1.024-2.146 0-2.705l21.795-12.595a3.023 3.023 0 0 1 3.073 0l8.941 5.225c1.025.56 1.025 2.052 0 2.705zM332.034 208.105c0 .56-.28 1.027-.745 1.307l-21.794 12.687c-.931.56-2.142.56-3.073 0l-8.942-5.224c-.558-.28-.745-.84-.745-1.306M307.912 222.472v-13.62M332.034 194.765v13.34M296.642 215.569v-13.994"/>
        <path fill="#FFF" d="M1.676 111.83L23.75 98.954a3.374 3.374 0 0 1 3.26 0l9.686 5.784v42.82L14.064 160.9c-.652.373-1.584-.093-1.584-.933v-39.555l-10.804-6.157a1.402 1.402 0 0 1 0-2.426z"/>
        <path stroke="#5882F5" stroke-linecap="round" stroke-linejoin="round" stroke-width="2.385" d="M36.696 105.579v41.048M12.48 160.994v-41.048M1.21 153.997v-40.955"/>
        <path fill="#FFF" d="M37.72 186.369l21.05-12.408a2.855 2.855 0 0 1 2.98 0l22.167 12.688v15.766l-22.074 13.154c-.652.373-1.49-.094-1.49-.84v-11.941l-22.54-12.874c-1.396-.84-1.396-2.799-.092-3.545z"/>
        <path stroke="#5882F5" stroke-linecap="round" stroke-linejoin="round" stroke-width="2.385" d="M82.892 189.727L62.31 201.575c-1.304.746-2.794.746-4.098 0l-20.49-11.568c-1.397-.746-1.397-2.799 0-3.638l20.49-12.128a4.203 4.203 0 0 1 4.191 0l20.49 11.848a2.103 2.103 0 0 1 0 3.638z"/>
        <path stroke="#5882F5" stroke-linecap="round" stroke-linejoin="round" stroke-width="2.385" d="M83.917 201.575c-.093.653-.373 1.213-1.025 1.586L62.31 215.009c-1.304.746-2.794.746-4.098 0L37.72 203.44c-.746-.373-1.118-1.213-1.025-1.96M83.917 187.861v13.714M60.26 202.135v13.434M36.696 201.575v-13.62"/>
        <path fill="#5882F5" d="M187.765 291.787l-77.49-44.593c-1.677-.933-2.795-2.798-2.795-4.758V53.99l82.706 48.045v188.354c.093 1.213-1.304 1.959-2.421 1.4zM342.652 147.84l-34.181-19.778v-13.62l35.485 20.523v12.222c-.093.56-.745.932-1.304.653zM59.328 215.849l-22.632-13.061v-13.34l23.657 13.34v12.5c-.093.56-.652.84-1.025.56zM307.912 223.032l-11.27-6.53v-13.714l11.27 6.53zM10.804 160.434L1.21 154.93v-40.955l11.27 6.437v39.089c0 .84-.932 1.306-1.677.933z"/>
        <path stroke="#5882F5" stroke-linecap="round" stroke-linejoin="round" stroke-width="2.385" d="M159.358 46.246v9.702M204.064 57.534v9.143M191.583 64.904v9.143M183.294 69.849v8.862M198.475 32.439v9.702M203.784 20.404v8.863"/>
        <path fill="#5882F5" d="M159.358 46.246v9.702l23.936 13.9v8.863l8.29-4.664v-9.143zM204.064 57.534v9.143l7.916-4.572zM203.784 20.404v8.863l7.824-4.291zM198.475 32.439v9.702l23.937 13.807 8.848-5.037zM249 147l12 7v-13.5z"/>
        <path stroke="#5882F5" stroke-linecap="round" stroke-linejoin="round" stroke-width="2.385" d="M260.412 154.09l-33.343 19.311c-.652.373-1.397-.093-1.397-.84v-11.194c0-.467.279-1.026.745-1.213l33.343-19.311c.652-.373 1.397.093 1.397.84v11.194c0 .56-.28 1.027-.745 1.213zM272.985 201.575l-9.78 5.69c-.93.56-2.048-.092-2.048-1.119v-9.795c0-.933.466-1.773 1.304-2.24l10.524-6.063M262 195l10.9 6.5"/>
        <path fill="#FFF" d="M131.23 175.827v11.568c0 .466.28 1.026.745 1.213l21.515 12.407c.652.373 1.397-.093 1.397-.84v-10.634c0-.84-.465-1.68-1.21-2.053l-21.422-12.314c-.466-.28-1.025.093-1.025.653z"/>
        <path fill="#C0D1FF" d="M131.23 188.235l11.736-6.904-11.736-6.81z"/>
        <path fill="#FFF" d="M190.828 263.238L178 256.428V229l12.828 6.904"/>
        <path fill="#5882F5" d="M212.828 249.492L201 242.893V229.5l11.828-6.596"/>
        <path fill="#C0D1FF" d="M201 242.9L178.5 256v-25l11 5 11.5-7z"/>
        <path d="M190.28 235.72l22.166-12.875c.652-.373 1.397.094 1.397.84v25.095c0 .373-.186.653-.466.84l-23.19 13.434"/>
        <path stroke="#5882F5" stroke-linecap="round" stroke-linejoin="round" stroke-width="2.385" d="M189.828 263.34l-11.362-6.624c-.28-.187-.466-.466-.466-.84v-25.095c0-.746.838-1.213 1.397-.84l10.338 6.064 22.167-12.874c.652-.373 1.397.094 1.397.84v24.815c0 .467-.28 1.026-.745 1.213l-22.726 13.34zM35.858 106.978l-21.794 12.595c-.932.56-2.142.56-3.074 0l-8.941-5.225c-1.024-.56-1.024-2.145 0-2.705l21.794-12.594a3.023 3.023 0 0 1 3.074 0l8.94 5.224c1.025.56 1.025 2.052 0 2.705zM36.696 146.627c0 .56-.28 1.026-.745 1.306l-21.794 12.594c-.932.56-2.142.56-3.074 0l-8.94-5.224c-.56-.28-.746-.84-.746-1.306M190.28 100.541V235m0 29v27.422"/>
    </g>
</svg>
