<svg width="296" height="38" viewBox="0 0 296 38" fill="none" xmlns="http://www.w3.org/2000/svg">
<path d="M287.3 3.5C284.9 1.9 282.2 0 277 0C271.8 0 269.1 1.9 266.7 3.5C264.5 5 262.5 6.4 258.5 6.4C254.4 6.4 252.5 5.1 250.3 3.5C248 1.9 245.3 0 240.1 0C234.9 0 232.2 1.9 229.8 3.5C227.6 5 225.6 6.4 221.6 6.4C217.6 6.4 215.6 5.1 213.4 3.5C211 1.9 208.3 0 203.1 0C197.9 0 195.2 1.9 192.8 3.5C190.6 5 188.6 6.4 184.6 6.4C180.5 6.4 178.6 5.1 176.4 3.5C174 1.9 171.3 0 166.1 0C160.9 0 158.2 1.9 155.8 3.5C153.6 5 151.6 6.4 147.6 6.4C143.6 6.4 141.6 5.1 139.4 3.5C137 1.9 134.3 0 129.1 0C123.9 0 121.2 1.9 118.8 3.5C116.6 5 114.6 6.4 110.6 6.4C106.5 6.4 104.6 5.1 102.4 3.5C100.2 1.9 97.5 0 92.3 0C87.1 0 84.4 1.9 82 3.5C79.8 5 77.8 6.4 73.8 6.4C69.8 6.4 67.8 5.1 65.6 3.5C63.3 1.9 60.6 0 55.4 0C50.2 0 47.5 1.9 45.1 3.5C42.9 5 40.9 6.4 36.9 6.4C32.8 6.4 30.9 5.1 28.7 3.5C26.3 1.9 23.6 0 18.5 0C13.3 0 10.6 1.9 8.2 3.5C6 5.1 4.1 6.4 0 6.4V10C5.2 10 7.9 8.1 10.3 6.5C12.5 5 14.5 3.6 18.5 3.6C22.6 3.6 24.5 4.9 26.7 6.5C29.1 8.1 31.8 10 37 10C42.2 10 44.9 8.1 47.3 6.5C49.5 5 51.5 3.6 55.5 3.6C59.5 3.6 61.5 4.9 63.7 6.5C66 8.1 68.7 10 73.9 10C79.1 10 81.8 8.1 84.2 6.5C86.4 5 88.4 3.6 92.4 3.6C96.5 3.6 98.4 4.9 100.6 6.5C103 8.1 105.7 10 110.9 10C116.1 10 118.8 8.1 121.2 6.5C123.4 5 125.4 3.6 129.4 3.6C133.5 3.6 135.4 4.9 137.6 6.5C140 8.1 142.7 10 147.9 10C153.1 10 155.8 8.1 158.2 6.5C160.4 5 162.4 3.6 166.4 3.6C170.5 3.6 172.4 4.9 174.6 6.5C177 8.1 179.7 10 184.9 10C190.1 10 192.8 8.1 195.2 6.5C197.4 5 199.4 3.6 203.4 3.6C207.4 3.6 209.4 4.9 211.6 6.5C214 8.1 216.7 10 221.9 10C227.1 10 229.8 8.1 232.2 6.5C234.4 5 236.4 3.6 240.4 3.6C244.5 3.6 246.4 4.9 248.6 6.5C251 8.1 253.7 10 258.9 10C264.1 10 266.8 8.1 269.2 6.5C271.4 5 273.4 3.6 277.4 3.6C281.5 3.6 283.4 4.9 285.6 6.5C288 8.1 290.7 10 295.9 10V6.4C291.4 6.4 289.5 5.1 287.3 3.5Z" fill="white"/>
<path d="M287.3 12.6992C284.9 11.0992 282.2 9.19922 277 9.19922C271.8 9.19922 269.1 11.0992 266.7 12.6992C264.5 14.1992 262.5 15.5992 258.5 15.5992C254.4 15.5992 252.5 14.2992 250.3 12.6992C247.9 11.0992 245.2 9.19922 240 9.19922C234.8 9.19922 232.1 11.0992 229.7 12.6992C227.5 14.1992 225.5 15.5992 221.5 15.5992C217.5 15.5992 215.5 14.2992 213.3 12.6992C210.9 11.0992 208.2 9.19922 203 9.19922C197.8 9.19922 195.1 11.0992 192.7 12.6992C190.5 14.1992 188.5 15.5992 184.5 15.5992C180.4 15.5992 178.5 14.2992 176.3 12.6992C173.9 11.0992 171.2 9.19922 166 9.19922C160.8 9.19922 158.1 11.0992 155.7 12.6992C153.5 14.1992 151.5 15.5992 147.5 15.5992C143.4 15.5992 141.5 14.2992 139.3 12.6992C136.9 11.0992 134.2 9.19922 129 9.19922C123.8 9.19922 121.1 11.0992 118.7 12.6992C116.5 14.1992 114.5 15.5992 110.5 15.5992C106.5 15.5992 104.5 14.2992 102.3 12.6992C99.9 11.0992 97.2 9.19922 92 9.19922C86.8 9.19922 84.1 11.0992 81.7 12.6992C79.5 14.1992 77.5 15.5992 73.5 15.5992C69.5 15.5992 67.5 14.2992 65.3 12.6992C62.9 11.0992 60.2 9.19922 55 9.19922C49.8 9.19922 47.1 11.0992 44.7 12.6992C42.5 14.1992 40.5 15.5992 36.5 15.5992C32.4 15.5992 30.5 14.2992 28.3 12.6992C25.9 11.0992 23.2 9.19922 18 9.19922C12.8 9.19922 10.1 11.0992 7.7 12.6992C6 14.2992 4.1 15.5992 0 15.5992V19.1992C5.2 19.1992 7.9 17.2992 10.3 15.6992C12.5 14.1992 14.5 12.7992 18.5 12.7992C22.6 12.7992 24.5 14.0992 26.7 15.6992C29.1 17.2992 31.8 19.1992 37 19.1992C42.2 19.1992 44.9 17.2992 47.3 15.6992C49.5 14.1992 51.5 12.7992 55.5 12.7992C59.5 12.7992 61.5 14.0992 63.7 15.6992C66.1 17.2992 68.8 19.1992 74 19.1992C79.2 19.1992 81.9 17.2992 84.3 15.6992C86.5 14.1992 88.5 12.7992 92.5 12.7992C96.6 12.7992 98.5 14.0992 100.7 15.6992C103.1 17.2992 105.8 19.1992 111 19.1992C116.2 19.1992 118.9 17.2992 121.3 15.6992C123.5 14.1992 125.5 12.7992 129.5 12.7992C133.6 12.7992 135.5 14.0992 137.7 15.6992C140.1 17.2992 142.8 19.1992 148 19.1992C153.2 19.1992 155.9 17.2992 158.3 15.6992C160.5 14.1992 162.5 12.7992 166.5 12.7992C170.5 12.7992 172.5 14.0992 174.7 15.6992C177.1 17.2992 179.8 19.1992 185 19.1992C190.2 19.1992 192.9 17.2992 195.3 15.6992C197.5 14.1992 199.5 12.7992 203.5 12.7992C207.5 12.7992 209.5 14.0992 211.7 15.6992C214.1 17.2992 216.8 19.1992 222 19.1992C227.2 19.1992 229.9 17.2992 232.3 15.6992C234.5 14.1992 236.5 12.7992 240.5 12.7992C244.5 12.7992 246.5 14.0992 248.7 15.6992C251.1 17.2992 253.8 19.1992 259 19.1992C264.2 19.1992 266.9 17.2992 269.3 15.6992C271.5 14.1992 273.5 12.7992 277.5 12.7992C281.5 12.7992 283.5 14.0992 285.7 15.6992C288.1 17.2992 290.8 19.1992 296 19.1992V15.5992C291.4 15.5992 289.5 14.2992 287.3 12.6992Z" fill="white"/>
<path d="M287.3 22C284.9 20.4 282.2 18.5 277 18.5C271.8 18.5 269.1 20.4 266.7 22C264.5 23.5 262.5 24.9 258.5 24.9C254.4 24.9 252.5 23.6 250.3 22C247.9 20.4 245.2 18.5 240 18.5C234.8 18.5 232.1 20.4 229.7 22C227.5 23.5 225.5 24.9 221.5 24.9C217.5 24.9 215.5 23.6 213.3 22C210.9 20.4 208.2 18.5 203 18.5C197.8 18.5 195.1 20.4 192.7 22C190.5 23.5 188.5 24.9 184.5 24.9C180.4 24.9 178.5 23.6 176.3 22C173.9 20.4 171.2 18.5 166 18.5C160.8 18.5 158.1 20.4 155.7 22C153.5 23.5 151.5 24.9 147.5 24.9C143.4 24.9 141.5 23.6 139.3 22C136.9 20.4 134.2 18.5 129 18.5C123.8 18.5 121.1 20.4 118.7 22C116.5 23.5 114.5 24.9 110.5 24.9C106.5 24.9 104.5 23.6 102.3 22C99.9 20.4 97.2 18.5 92 18.5C86.8 18.5 84.1 20.4 81.7 22C79.5 23.5 77.5 24.9 73.5 24.9C69.5 24.9 67.5 23.6 65.3 22C62.9 20.4 60.2 18.5 55 18.5C49.8 18.5 47.1 20.4 44.7 22C42.5 23.5 40.5 24.9 36.5 24.9C32.4 24.9 30.5 23.6 28.3 22C25.9 20.4 23.2 18.5 18 18.5C12.8 18.5 10.1 20.4 7.7 22C6 23.5 4.1 24.9 0 24.9V28.5C5.2 28.5 7.9 26.6 10.3 25C12.5 23.5 14.5 22.1 18.5 22.1C22.6 22.1 24.5 23.4 26.7 25C29.1 26.6 31.8 28.5 37 28.5C42.2 28.5 44.9 26.6 47.3 25C49.5 23.5 51.5 22.1 55.5 22.1C59.5 22.1 61.5 23.4 63.7 25C66.1 26.6 68.8 28.5 74 28.5C79.2 28.5 81.9 26.6 84.3 25C86.5 23.5 88.5 22.1 92.5 22.1C96.6 22.1 98.5 23.4 100.7 25C103.1 26.6 105.8 28.5 111 28.5C116.2 28.5 118.9 26.6 121.3 25C123.5 23.5 125.5 22.1 129.5 22.1C133.6 22.1 135.5 23.4 137.7 25C140.1 26.6 142.8 28.5 148 28.5C153.2 28.5 155.9 26.6 158.3 25C160.5 23.5 162.5 22.1 166.5 22.1C170.5 22.1 172.5 23.4 174.7 25C177.1 26.6 179.8 28.5 185 28.5C190.2 28.5 192.9 26.6 195.3 25C197.5 23.5 199.5 22.1 203.5 22.1C207.5 22.1 209.5 23.4 211.7 25C214.1 26.6 216.8 28.5 222 28.5C227.2 28.5 229.9 26.6 232.3 25C234.5 23.5 236.5 22.1 240.5 22.1C244.5 22.1 246.5 23.4 248.7 25C251.1 26.6 253.8 28.5 259 28.5C264.2 28.5 266.9 26.6 269.3 25C271.5 23.5 273.5 22.1 277.5 22.1C281.5 22.1 283.5 23.4 285.7 25C288.1 26.6 290.8 28.5 296 28.5V24.9C291.4 24.9 289.5 23.5 287.3 22Z" fill="white"/>
<path d="M287.3 31.1992C284.9 29.5992 282.2 27.6992 277 27.6992C271.8 27.6992 269.1 29.5992 266.7 31.1992C264.5 32.6992 262.5 34.0992 258.5 34.0992C254.4 34.0992 252.5 32.7992 250.3 31.1992C247.9 29.5992 245.2 27.6992 240 27.6992C234.8 27.6992 232.1 29.5992 229.7 31.1992C227.5 32.6992 225.5 34.0992 221.5 34.0992C217.5 34.0992 215.5 32.7992 213.3 31.1992C210.9 29.5992 208.2 27.6992 203 27.6992C197.8 27.6992 195.1 29.5992 192.7 31.1992C190.5 32.6992 188.5 34.0992 184.5 34.0992C180.4 34.0992 178.5 32.7992 176.3 31.1992C173.9 29.5992 171.2 27.6992 166 27.6992C160.8 27.6992 158.1 29.5992 155.7 31.1992C153.5 32.6992 151.5 34.0992 147.5 34.0992C143.4 34.0992 141.5 32.7992 139.3 31.1992C136.9 29.5992 134.2 27.6992 129 27.6992C123.8 27.6992 121.1 29.5992 118.7 31.1992C116.5 32.6992 114.5 34.0992 110.5 34.0992C106.5 34.0992 104.5 32.7992 102.3 31.1992C99.9 29.5992 97.2 27.6992 92 27.6992C86.8 27.6992 84.1 29.5992 81.7 31.1992C79.5 32.6992 77.5 34.0992 73.5 34.0992C69.5 34.0992 67.5 32.7992 65.3 31.1992C62.9 29.5992 60.2 27.6992 55 27.6992C49.8 27.6992 47.1 29.5992 44.7 31.1992C42.5 32.6992 40.5 34.0992 36.5 34.0992C32.4 34.0992 30.5 32.7992 28.3 31.1992C25.9 29.5992 23.2 27.6992 18 27.6992C12.8 27.6992 10.1 29.5992 7.7 31.1992C6 32.7992 4.1 34.0992 0 34.0992V37.6992C5.2 37.6992 7.9 35.7992 10.3 34.1992C12.5 32.6992 14.5 31.2992 18.5 31.2992C22.6 31.2992 24.5 32.5992 26.7 34.1992C29.1 35.7992 31.8 37.6992 37 37.6992C42.2 37.6992 44.9 35.7992 47.3 34.1992C49.5 32.6992 51.5 31.2992 55.5 31.2992C59.5 31.2992 61.5 32.5992 63.7 34.1992C66.1 35.7992 68.8 37.6992 74 37.6992C79.2 37.6992 81.9 35.7992 84.3 34.1992C86.5 32.6992 88.5 31.2992 92.5 31.2992C96.6 31.2992 98.5 32.5992 100.7 34.1992C103.1 35.7992 105.8 37.6992 111 37.6992C116.2 37.6992 118.9 35.7992 121.3 34.1992C123.5 32.6992 125.5 31.2992 129.5 31.2992C133.6 31.2992 135.5 32.5992 137.7 34.1992C140.1 35.7992 142.8 37.6992 148 37.6992C153.2 37.6992 155.9 35.7992 158.3 34.1992C160.5 32.6992 162.5 31.2992 166.5 31.2992C170.5 31.2992 172.5 32.5992 174.7 34.1992C177.1 35.7992 179.8 37.6992 185 37.6992C190.2 37.6992 192.9 35.7992 195.3 34.1992C197.5 32.6992 199.5 31.2992 203.5 31.2992C207.5 31.2992 209.5 32.5992 211.7 34.1992C214.1 35.7992 216.8 37.6992 222 37.6992C227.2 37.6992 229.9 35.7992 232.3 34.1992C234.5 32.6992 236.5 31.2992 240.5 31.2992C244.5 31.2992 246.5 32.5992 248.7 34.1992C251.1 35.7992 253.8 37.6992 259 37.6992C264.2 37.6992 266.9 35.7992 269.3 34.1992C271.5 32.6992 273.5 31.2992 277.5 31.2992C281.5 31.2992 283.5 32.5992 285.7 34.1992C288.1 35.7992 290.8 37.6992 296 37.6992V34.0992C291.4 34.0992 289.5 32.7992 287.3 31.1992Z" fill="white"/>
</svg>
