<?xml version="1.0" encoding="UTF-8"?>
<svg width="94px" height="22px" viewBox="0 0 94 22" version="1.1" xmlns="http://www.w3.org/2000/svg" xmlns:xlink="http://www.w3.org/1999/xlink">
    <!-- Generator: Sketch 51.3 (57544) - http://www.bohemiancoding.com/sketch -->
    <title>logo_tradetools</title>
    <desc>Created with Sketch.</desc>
    <defs></defs>
    <g id="🖥-Home" stroke="none" stroke-width="1" fill="none" fill-rule="evenodd">
        <g id="Home-[PT]---Fale-Conosco" transform="translate(-1125.000000, -41.000000)" fill="#FFFFFF">
            <g id="logo_tradetools" transform="translate(1125.000000, 41.000000)">
                <g id="Group-41-Copy-5" transform="translate(22.944609, 5.500000)">
                    <path d="M13.6128085,3.75615546 L13.1790076,4.65616682 C12.8342098,4.46305554 12.4669823,4.36696975 12.0780409,4.36696975 C11.5325685,4.36696975 11.0710883,4.51121589 10.6928845,4.80041296 C10.2812748,5.10041675 10.0758278,5.50731304 10.0758278,6.02133675 L10.0758278,11.2419195 L8.97462253,11.2419195 L8.97462253,3.46742825 L10.0758278,3.46742825 L10.0758278,4.04535254 C10.520605,3.56374896 11.1877707,3.32271225 12.0780409,3.32271225 C12.7673978,3.32271225 13.2792256,3.46742825 13.6128085,3.75615546" id="Fill-5"></path>
                    <polygon id="Fill-3" points="8.53705152 1.12183091 4.9163172 1.12183091 4.9163172 11.241849 3.74853852 11.241849 3.74853852 1.12183091 0.127804212 1.12183091 0.127804212 0.0294130571 8.53705152 0.0294130571"></polygon>
                    <path d="M19.2603093,9.41438661 L19.2603093,7.53143411 C19.0601119,7.64913333 18.8098054,7.7081004 18.5093899,7.7081004 L17.0672047,7.7081004 C16.6923416,7.7081004 16.3153309,7.79995747 16.007757,8.00622476 C15.6176225,8.26746533 15.4229132,8.61821369 15.4229132,9.05729519 C15.4229132,9.47311876 15.610464,9.8048379 15.986043,10.0526875 C16.3329883,10.281508 16.7634486,10.3672569 17.1841258,10.3548057 C18.191317,10.3249698 18.5733386,10.1325633 19.10521,9.73271483 C19.205428,9.65730276 19.2603093,9.5367844 19.2603093,9.41438661 L19.2603093,9.41438661 Z M19.3435857,10.8559083 C18.6761814,11.284653 17.8975827,11.4023522 17.0077897,11.4023522 C16.2845496,11.4023522 15.6617661,11.1885672 15.1392007,10.7598225 C14.5829906,10.2995975 14.3047663,9.73177511 14.3047663,9.05729519 C14.3047663,8.33982333 14.5772639,7.76142919 15.1224977,7.32234769 C15.6231106,6.9154514 16.2513822,6.71200326 17.0077897,6.71200326 L18.4091719,6.71200326 C18.7763994,6.71200326 19.0601119,6.6210859 19.2603093,6.43901626 L19.2603093,5.61982033 C19.2603093,5.21292404 19.0710881,4.90234847 18.693123,4.68785869 C18.3814926,4.50602397 18.0032889,4.41510661 17.5585117,4.41510661 C16.5241184,4.41510661 15.8789052,4.81659954 15.6231106,5.61982033 L14.6051817,5.25004276 C15.0058153,3.98683183 16.0010758,3.35463904 17.5919177,3.35463904 C18.3371103,3.35463904 18.9708701,3.5475154 19.4939128,3.93279826 C20.0720754,4.36177783 20.3615146,4.92372697 20.3615146,5.61982033 L20.3615146,9.37773776 C20.3615146,9.91971797 20.0701664,10.4234048 19.5912674,10.7086081 L19.3435857,10.8559083 Z" id="Fill-9"></path>
                    <path d="M27.4102305,6.10184677 C27.4102305,5.61977334 27.2097945,5.21546127 26.8096382,4.88867563 C26.4090047,4.56235984 25.9363096,4.39884956 25.3910758,4.39884956 C24.5346889,4.39884956 23.9395846,4.71506341 23.6060018,5.34678634 C23.3611834,5.80748127 23.2390129,6.48712963 23.2390129,7.38667113 C23.2390129,8.27540591 23.3611834,8.95059063 23.6060018,9.4108157 C23.9395846,10.0209252 24.5346889,10.3263323 25.3910758,10.3263323 C25.9697156,10.3263323 26.5156653,10.2342403 26.8993572,9.9288332 C27.2830491,9.62413084 27.4102305,9.26680449 27.4102305,8.68841034 L27.4102305,6.10184677 Z M27.5414684,10.7722268 C26.9742821,11.2218801 26.2142953,11.3860951 25.3910758,11.3860951 C23.211095,11.3860951 22.1211046,10.0533453 22.1211046,7.38667113 C22.1211046,4.68804663 23.211095,3.33885184 25.3910758,3.33885184 C25.8585213,3.33885184 26.2255102,3.38184377 26.4922811,3.4675927 C26.7595292,3.55334163 27.0654328,3.73517634 27.4102305,4.01333177 L27.4102305,0.0294130571 L28.5279002,0.0294130571 L28.5279002,8.8220847 C28.5279002,9.53767713 28.2773551,10.1351005 27.7247243,10.61365 L27.5414684,10.7722268 Z" id="Fill-13"></path>
                    <path d="M35.7437416,6.68017044 C35.6654761,5.14867108 34.9928222,4.38303886 33.7245869,4.38303886 C32.3232048,4.38303886 31.555821,5.14867108 31.4224356,6.68017044 L35.7437416,6.68017044 Z M36.8614113,7.03303315 L36.8449469,7.72395808 L31.3890295,7.72395808 C31.4331732,9.46971229 32.2621195,10.3424719 33.874914,10.3424719 C34.7759218,10.3424719 35.4707668,10.042938 35.9604035,9.44269551 L36.7113229,10.1658057 C36.0548948,10.9793633 35.1097433,11.3862596 33.874914,11.3862596 C31.472306,11.3862596 30.2708827,10.0586782 30.2708827,7.40281072 C30.2708827,6.21430708 30.5321654,5.26637029 31.0552081,4.55923529 C31.6667767,3.74567765 32.5568082,3.33878136 33.7245869,3.33878136 C34.7814099,3.33878136 35.5821997,3.71372736 36.1274335,4.46314951 C36.6168316,5.11672079 36.8614113,5.97327036 36.8614113,7.03303315 L36.8614113,7.03303315 Z" id="Fill-17"></path>
                    <polygon id="Fill-21" stroke="#FFFFFF" stroke-width="0.5" points="44.8469511 1.12967753 41.2262168 1.12967753 41.2262168 11.2496956 40.0584381 11.2496956 40.0584381 1.12967753 36.4377038 1.12967753 36.4377038 0.0372596714 44.8469511 0.0372596714"></polygon>
                    <path d="M49.7391182,7.3782137 C49.7391182,6.44695684 49.600006,5.75086349 49.3220202,5.29040349 C48.965769,4.70143756 48.3372588,4.4066022 47.436251,4.4066022 C46.5466966,4.4066022 45.9236745,4.70143756 45.5679005,5.29040349 C45.2899148,5.75086349 45.1508026,6.44695684 45.1508026,7.3782137 C45.1508026,8.29960356 45.2899148,8.98442034 45.5679005,9.43477841 C45.9236745,10.0235094 46.5466966,10.3178749 47.436251,10.3178749 C48.3372588,10.3178749 48.965769,10.0235094 49.3220202,9.43477841 C49.600006,8.98442034 49.7391182,8.29960356 49.7391182,7.3782137 M50.8567878,7.36247349 C50.8567878,10.0286778 49.7221765,11.3621324 47.4531926,11.3621324 C45.1729937,11.3621324 44.0328943,10.0345511 44.0328943,7.3782137 C44.0328943,4.69063084 45.1729937,3.34683941 47.4531926,3.34683941 C49.7221765,3.34683941 50.8567878,4.68522749 50.8567878,7.36247349" id="Fill-25" stroke="#FFFFFF" stroke-width="0.5"></path>
                    <path d="M58.0728917,7.3782137 C58.0728917,6.44695684 57.9337796,5.75086349 57.6557938,5.29040349 C57.2995426,4.70143756 56.6710324,4.4066022 55.7700245,4.4066022 C54.8804702,4.4066022 54.2574481,4.70143756 53.9016741,5.29040349 C53.6236884,5.75086349 53.4845762,6.44695684 53.4845762,7.3782137 C53.4845762,8.29960356 53.6236884,8.98442034 53.9016741,9.43477841 C54.2574481,10.0235094 54.8804702,10.3178749 55.7700245,10.3178749 C56.6710324,10.3178749 57.2995426,10.0235094 57.6557938,9.43477841 C57.9337796,8.98442034 58.0728917,8.29960356 58.0728917,7.3782137 M59.1905614,7.36247349 C59.1905614,10.0286778 58.0559501,11.3621324 55.7869662,11.3621324 C53.5067673,11.3621324 52.3669065,10.0345511 52.3669065,7.3782137 C52.3669065,4.69063084 53.5067673,3.34683941 55.7869662,3.34683941 C58.0559501,3.34683941 59.1905614,4.68522749 59.1905614,7.36247349" id="Fill-29" stroke="#FFFFFF" stroke-width="0.5"></path>
                    <path d="M63.0197731,11.2497191 C61.7847051,11.2497191 61.1676484,10.6396096 61.1676484,9.41845088 L61.1676484,0.0372831643 L62.3022597,0.0372831643 L62.3022597,9.35431538 C62.3022597,9.65431916 62.3464034,9.86833909 62.4354065,9.99684502 C62.5244097,10.1255859 62.7193576,10.1892515 63.0197731,10.1892515 L63.0197731,11.2497191 Z" id="Fill-33" stroke="#FFFFFF" stroke-width="0.5"></path>
                    <path d="M70.7186416,9.03316802 C70.7186416,9.76144659 70.4020003,10.3504125 69.7675247,10.8000658 C69.1891235,11.1853487 68.5000052,11.378225 67.6989768,11.378225 C65.8967226,11.378225 64.7959945,10.644778 64.3955996,9.17741416 L65.4965663,8.84029166 C65.7638144,9.84672566 66.4975535,10.3504125 67.6989768,10.3504125 C68.1881363,10.3504125 68.6107223,10.2484535 68.9669735,10.0450054 C69.3895596,9.79856531 69.6009719,9.46144281 69.6009719,9.03316802 C69.6009719,8.48672416 69.1728977,8.09086952 68.3165108,7.84419452 C67.52622,7.61936788 66.7364065,7.40017952 65.9473088,7.18568974 C65.090206,6.82178538 64.6623705,6.24362616 64.6623705,5.45074224 C64.6623705,4.77626231 64.9625473,4.24602852 65.5633783,3.86074566 C66.0859438,3.51821981 66.7201807,3.34672195 67.4653734,3.34672195 C68.9001615,3.34672195 69.9066369,3.91454431 70.4850381,5.04924931 L69.4840509,5.51511266 C69.117062,4.76592545 68.4441695,4.39097945 67.4653734,4.39097945 C67.0427873,4.39097945 66.6755598,4.46568674 66.3644067,4.61580609 C65.9745108,4.80821259 65.7800401,5.08683788 65.7800401,5.45074224 C65.7800401,5.86868016 66.2085915,6.19546581 67.0649785,6.43062931 C68.4770983,6.82718874 69.267389,7.06282209 69.4341805,7.13776431 C70.2905674,7.55499745 70.7186416,8.18719024 70.7186416,9.03316802" id="Fill-37" stroke="#FFFFFF" stroke-width="0.5"></path>
                </g>
                <polygon id="Path" fill-rule="nonzero" points="0.25 0.25 0.25 11.3289474 2.51451013 11.3289474 2.51451013 6.95344075 13.9538055 6.95344075 13.9538055 4.62550661 2.51451013 4.62550661 2.51451013 0.25"></polygon>
                <polygon id="Path" fill-rule="nonzero" points="11.6889594 10.6710526 11.6889594 15.0471218 0.25 15.0471218 0.25 17.3739308 11.6889594 17.3739308 11.6889594 21.75 13.9538055 21.75 13.9538055 10.6710526"></polygon>
            </g>
        </g>
    </g>
</svg>