<svg width="178" height="40" viewBox="0 0 178 40" fill="none" xmlns="http://www.w3.org/2000/svg">
<g clip-path="url(#clip0)">
<path d="M175.998 11.8787C175.028 11.8787 174.3 11.1514 174.3 10.1817C174.3 9.21205 175.028 8.48478 175.998 8.48478C176.969 8.48478 177.697 9.21205 177.697 10.1817C177.697 11.1514 176.969 11.8787 175.998 11.8787ZM175.998 8.18175C174.846 8.18175 173.996 9.03023 173.996 10.1817C173.996 11.3333 174.846 12.1817 175.998 12.1817C177.151 12.1817 178 11.3333 178 10.1817C178 9.03023 177.151 8.18175 175.998 8.18175ZM175.938 10.0605H175.574V9.27266H176.12C176.423 9.27266 176.666 9.33326 176.666 9.6969C176.605 10.0605 176.302 10.0605 175.938 10.0605ZM176.908 9.63629C176.908 9.21205 176.666 8.96963 176.18 8.96963H175.27V11.2727H175.574V10.303H176.059L176.726 11.3333H177.03L176.362 10.303C176.666 10.2424 176.908 10.0605 176.908 9.63629ZM174.36 23.9999C174.36 25.3333 173.814 26.3636 172.662 27.1515C171.63 27.8181 170.417 28.1818 168.961 28.1818C165.745 28.1818 163.743 26.8484 163.015 24.2424L165.017 23.6363C165.503 25.4545 166.837 26.3636 168.961 26.3636C169.81 26.3636 170.599 26.1818 171.206 25.8181C171.934 25.3939 172.358 24.7878 172.358 23.9999C172.358 23.0302 171.57 22.303 170.053 21.8787C168.657 21.4545 167.201 21.0908 165.806 20.6666C164.289 19.9999 163.501 18.9696 163.501 17.5757C163.501 16.3636 164.047 15.3939 165.139 14.7272C166.049 14.1211 167.201 13.8181 168.536 13.8181C171.084 13.8181 172.904 14.8484 173.936 16.8484L172.116 17.6969C171.448 16.3636 170.235 15.6969 168.476 15.6969C167.747 15.6969 167.08 15.8181 166.473 16.1211C165.745 16.4848 165.442 16.9696 165.442 17.6363C165.442 18.3636 166.231 18.9696 167.747 19.3939C170.296 20.1211 171.691 20.5454 171.994 20.6666C173.632 21.3333 174.36 22.4848 174.36 23.9999ZM159.557 25.7575C159.739 25.9999 160.043 26.1211 160.589 26.1211V27.9999C158.405 27.9999 157.252 26.909 157.252 24.7272V7.81811H159.254V24.5454C159.315 25.1515 159.375 25.5151 159.557 25.7575ZM151.003 24.7272C150.396 25.7575 149.244 26.303 147.606 26.303C146.028 26.303 144.876 25.7575 144.269 24.7272C143.784 23.9393 143.541 22.6666 143.541 21.0302C143.541 19.3333 143.784 18.1211 144.269 17.2727C144.876 16.2424 146.028 15.6969 147.606 15.6969C149.244 15.6969 150.336 16.2424 151.003 17.2727C151.488 18.1211 151.731 19.3333 151.731 21.0302C151.731 22.6666 151.488 23.9393 151.003 24.7272ZM147.606 13.8181C143.541 13.8181 141.478 16.2424 141.478 21.0908C141.478 25.8787 143.541 28.2424 147.606 28.2424C151.67 28.2424 153.733 25.8181 153.733 21.0302C153.733 16.1818 151.67 13.8181 147.606 13.8181ZM136.018 24.7272C135.411 25.7575 134.259 26.303 132.621 26.303C131.043 26.303 129.891 25.7575 129.284 24.7272C128.799 23.9393 128.556 22.6666 128.556 21.0302C128.556 19.3333 128.799 18.1211 129.284 17.2727C129.951 16.2424 131.043 15.6969 132.621 15.6969C134.259 15.6969 135.351 16.2424 136.018 17.2727C136.503 18.1211 136.746 19.3333 136.746 21.0302C136.807 22.6666 136.564 23.9393 136.018 24.7272ZM132.681 13.8181C128.617 13.8181 126.554 16.2424 126.554 21.0908C126.554 25.8787 128.617 28.2424 132.681 28.2424C136.746 28.2424 138.809 25.8181 138.809 21.0302C138.809 16.1818 136.746 13.8181 132.681 13.8181ZM128.01 7.81811H112.964V9.75751H119.456V27.9393H121.518V9.75751H128.01V7.81811ZM106.473 15.9999C105.987 16.1818 105.623 16.4242 105.259 16.7272C104.956 17.0908 104.653 17.4545 104.471 17.9999C104.349 18.2424 104.289 18.5454 104.228 18.8484C104.167 19.0908 104.107 19.3939 104.107 19.6969H111.63C111.63 19.3939 111.569 19.1514 111.508 18.8484C111.144 16.7878 110.052 15.7575 108.111 15.7575C107.504 15.7575 106.958 15.8787 106.473 15.9999ZM113.814 21.7575H104.046C104.167 24.7878 105.563 26.2424 108.353 26.2424C109.931 26.2424 111.144 25.6969 111.994 24.6666L112.054 24.5454L113.571 25.9999L113.51 26.0605C112.6 27.1515 111.387 27.8787 109.931 28.1818C109.445 28.303 108.899 28.303 108.353 28.303C103.985 28.303 101.801 25.8787 101.801 21.0302C101.801 18.8484 102.287 17.1514 103.257 15.8787C103.803 15.1514 104.531 14.5454 105.32 14.1817C106.109 13.8181 107.079 13.6363 108.111 13.6363C110.052 13.6363 111.508 14.303 112.479 15.6969C112.722 15.9999 112.904 16.303 113.086 16.6666C113.571 17.6969 113.814 18.9696 113.814 20.3636V21.7575ZM96.6445 18.7272C96.6445 17.8787 96.2805 17.2121 95.6132 16.606C95.2492 16.303 94.8852 16.1211 94.4605 15.9393C94.0358 15.8181 93.6111 15.6969 93.1258 15.6969C91.6698 15.6969 90.5777 16.2424 90.0317 17.3333C89.607 18.1211 89.3644 19.3333 89.3644 20.9696C89.3644 22.5454 89.607 23.7575 90.0317 24.5454C90.5777 25.5757 91.6698 26.1211 93.1258 26.1211C93.9751 26.1211 94.7032 25.9999 95.1885 25.7575C95.3705 25.6363 95.5525 25.5757 95.7345 25.4545C95.9165 25.3333 96.0379 25.2121 96.1592 25.0302C96.4625 24.606 96.6445 24.1211 96.6445 23.3333V18.7272V18.7272ZM96.6445 7.6969H98.8893V23.6363C98.8893 24.9696 98.4039 26.0605 97.4332 26.9696L97.1299 27.2727C96.1592 27.9999 94.8852 28.4242 93.1865 28.4242C89.243 28.4242 87.1803 25.9393 87.1803 21.1514C87.1803 16.2424 89.1824 13.7575 93.1865 13.7575C93.6111 13.7575 93.9751 13.7575 94.3391 13.8181C94.6425 13.8787 94.9458 13.9393 95.1885 13.9999C95.2492 13.9999 95.3705 14.0605 95.4918 14.1211C95.5525 14.1211 95.5525 14.1817 95.6132 14.1817C95.9772 14.3636 96.3412 14.5454 96.7052 14.8484V7.6969H96.6445ZM82.0235 24.6666V21.4545C81.9022 21.5151 81.7202 21.5757 81.5382 21.6363C81.2955 21.6969 81.0529 21.6969 80.7495 21.6969H78.2621C77.8981 21.6969 77.5948 21.7575 77.2914 21.8181C76.9881 21.8787 76.6848 22.0605 76.4421 22.1818C75.9567 22.5454 75.6534 22.909 75.5321 23.4545C75.4714 23.6363 75.4714 23.8181 75.4714 23.9999C75.4714 24.7272 75.7747 25.2727 76.4421 25.6969C76.9881 26.0605 77.7161 26.2424 78.5048 26.2424C80.2035 26.1818 80.9315 25.8787 81.9022 25.1515C81.9629 25.0908 82.0235 24.909 82.0235 24.6666ZM83.8436 16.1211C84.0862 16.6666 84.2683 17.2121 84.2683 17.8787V24.606C84.2683 25.6363 83.7222 26.5454 82.8122 27.0908L82.3875 27.3333C81.2955 27.9999 80.0215 28.303 78.1408 28.303C76.8061 28.303 75.6534 27.8787 74.7434 27.1515C73.712 26.303 73.2267 25.2727 73.2267 23.9999C73.2267 22.6666 73.712 21.5757 74.7434 20.7878C75.6534 20.0605 76.8061 19.6969 78.2014 19.6969H80.6888C81.2955 19.6969 81.7809 19.5757 82.0842 19.2727V17.8787C82.0842 17.2121 81.7809 16.6666 81.1135 16.303C80.8708 16.1211 80.5675 15.9999 80.2035 15.9393C79.9002 15.8787 79.5361 15.8181 79.1115 15.8181C78.2014 15.8181 77.4734 15.9999 76.9274 16.3636C76.3814 16.7272 75.9567 17.2121 75.7747 17.9393V17.9999H75.6534L73.712 17.2727L73.7727 17.1514C73.9547 16.606 74.1974 16.0605 74.5007 15.6363C75.4714 14.3636 77.0488 13.6969 79.2328 13.6969C80.5675 13.6969 81.7809 14.0605 82.6909 14.7878C83.1762 15.1514 83.6009 15.6363 83.8436 16.1211ZM70.9213 13.8181C70.4359 13.6969 69.8899 13.6363 69.2832 13.6363C68.8586 13.6363 68.4946 13.6363 68.1306 13.6969C67.1599 13.8181 66.3712 14.1817 65.8252 14.7272V13.8787H63.6411V28.0605H65.8252V18.606C65.8252 17.6969 66.1892 17.0302 66.9172 16.4848C67.0992 16.3636 67.2205 16.2424 67.4632 16.1818C67.6452 16.0605 67.8272 15.9999 68.0092 15.9393C68.4339 15.8181 68.8586 15.7575 69.3439 15.7575C70.0113 15.7575 70.6786 15.9393 71.2853 16.2424L71.4066 16.303L72.256 14.4848L72.1953 14.4242C71.8313 14.1817 71.4066 13.9393 70.9213 13.8181ZM47.7461 7.6969H63.0344V9.87872H56.543V28.0605H54.2376V9.87872H47.7461V7.6969Z" fill="#3B3E4A"/>
<path d="M172.964 33.3941L171.023 37.2729V40.0002H169.992V37.2729L168.05 33.3941H169.142L170.538 36.3032L171.933 33.3941H172.964ZM163.197 37.7577L164.228 34.8486L165.199 37.7577H163.197ZM164.592 33.3941H163.803L161.377 39.9396H162.469L162.893 38.6062H165.502L165.927 39.9396H166.958L164.592 33.3941ZM160.103 39.9396H155.917V33.3941H156.948V39.0305H160.103V39.9396ZM152.519 36.1214C152.337 36.3032 152.034 36.4244 151.67 36.4244H150.214V34.2426H151.67C152.034 34.2426 152.276 34.3638 152.519 34.5456C152.701 34.7274 152.822 35.0305 152.822 35.3335C152.822 35.6971 152.762 35.9396 152.519 36.1214ZM153.672 34.5456C153.55 34.3032 153.429 34.1214 153.247 33.9396C153.065 33.7577 152.822 33.6365 152.58 33.5153C152.337 33.3941 152.034 33.3941 151.73 33.3941H149.243V39.9396H150.274V37.3941H151.791C152.216 37.3941 152.58 37.3335 152.883 37.1517C153.186 36.9699 153.429 36.7274 153.611 36.4244C153.793 36.1214 153.854 35.7577 153.854 35.3941C153.854 35.0305 153.793 34.788 153.672 34.5456ZM146.998 38.0608C146.998 38.3638 146.938 38.6062 146.816 38.8486C146.695 39.0911 146.513 39.2729 146.331 39.4547C146.088 39.6365 145.846 39.7577 145.603 39.8183C145.3 39.8789 144.996 39.9396 144.632 39.9396C144.147 39.9396 143.722 39.8789 143.298 39.7577C142.934 39.6365 142.57 39.3941 142.266 39.0911L142.934 38.4244C143.055 38.5456 143.237 38.7274 143.419 38.788C143.601 38.9092 143.783 38.9699 143.965 38.9699C144.147 39.0305 144.39 39.0305 144.572 39.0305C144.996 39.0305 145.3 38.9699 145.542 38.788C145.785 38.6062 145.906 38.3638 145.906 38.0608C145.906 37.7577 145.846 37.5153 145.664 37.3941C145.603 37.3335 145.482 37.2729 145.421 37.2123C145.3 37.1517 145.178 37.1517 144.996 37.0911L144.208 36.9699C143.662 36.9092 143.237 36.7274 142.934 36.4244C142.63 36.1214 142.448 35.6971 142.448 35.1517C142.448 34.788 142.509 34.4244 142.691 34.1214C142.873 33.8183 143.116 33.5759 143.48 33.4547C143.783 33.2729 144.208 33.2123 144.632 33.2123C145.057 33.2123 145.482 33.2729 145.785 33.3941C146.088 33.5153 146.392 33.6971 146.695 33.9396L146.028 34.5456C145.906 34.4244 145.785 34.3032 145.603 34.2426C145.482 34.182 145.3 34.1214 145.118 34.0608C144.936 34.0002 144.754 34.0002 144.572 34.0002C144.329 34.0002 144.086 34.0608 143.904 34.1214C143.722 34.182 143.601 34.3032 143.48 34.485C143.358 34.6668 143.358 34.788 143.358 35.0305C143.358 35.2729 143.419 35.5153 143.601 35.6365C143.662 35.6971 143.783 35.7577 143.904 35.8183C144.026 35.8789 144.147 35.9396 144.329 35.9396L145.057 36.0608C145.36 36.1214 145.603 36.182 145.785 36.2426C145.967 36.3032 146.149 36.4244 146.27 36.5456C146.816 37.0305 146.998 37.4547 146.998 38.0608ZM140.264 33.3941H139.233V39.9396H140.264V33.3941ZM135.896 36.6062C135.896 36.2426 135.896 35.9396 135.896 35.7577C135.896 35.5759 135.835 35.3335 135.775 35.1517C135.714 34.9699 135.653 34.8486 135.532 34.7274C135.289 34.4244 134.865 34.3032 134.44 34.3032H133.227V39.0911H134.44C134.925 39.0911 135.289 38.9699 135.532 38.6668C135.714 38.485 135.775 38.2426 135.835 38.0002C135.835 37.5759 135.896 37.1517 135.896 36.6062ZM136.867 36.6062V36.9093C136.867 37.2729 136.867 37.5759 136.806 37.8183C136.806 38.0608 136.745 38.3638 136.624 38.6062C136.503 38.8486 136.381 39.0911 136.199 39.2729C135.775 39.6971 135.229 39.8789 134.501 39.8789H132.195V33.3941H134.501C135.229 33.3941 135.775 33.5759 136.199 34.0002C136.381 34.182 136.563 34.4244 136.624 34.6668C136.745 34.9093 136.806 35.1517 136.806 35.3941C136.806 35.6365 136.867 35.9396 136.867 36.3032V36.6062Z" fill="black"/>
<path d="M31.989 0H3.68103C1.64713 0 0 1.64713 0 3.68103V31.989C0 34.0229 1.64713 35.67 3.68103 35.67H31.989C34.0229 35.67 35.67 34.0229 35.67 31.989V3.68103C35.67 1.64713 34.0229 0 31.989 0Z" fill="url(#paint0_linear)"/>
<path d="M11.9238 8.82922H14.2245V12.3969H23.7538V14.6975H14.2245V18.2585H11.9238V8.82922Z" fill="white"/>
<path d="M23.7538 27.2811H21.4465V23.7134H11.9238V21.4128H21.4465V17.8451H23.7538V27.2811Z" fill="white"/>
</g>
<defs>
<linearGradient id="paint0_linear" x1="35.67" y1="35.67" x2="24.1484" y2="-8.18978" gradientUnits="userSpaceOnUse">
<stop stop-color="#FF7700"/>
<stop offset="1" stop-color="#FFC533"/>
</linearGradient>
<clipPath id="clip0">
<rect width="178" height="40.0001" fill="white"/>
</clipPath>
</defs>
</svg>
