<?xml version="1.0" encoding="UTF-8"?>
<svg width="127px" height="22px" viewBox="0 0 127 22" version="1.1" xmlns="http://www.w3.org/2000/svg" xmlns:xlink="http://www.w3.org/1999/xlink">
    <!-- Generator: Sketch 51.3 (57544) - http://www.bohemiancoding.com/sketch -->
    <title>Group 41 Copy 5</title>
    <desc>Created with Sketch.</desc>
    <defs></defs>
    <g id="🖥-Home" stroke="none" stroke-width="1" fill="none" fill-rule="evenodd">
        <g id="Home-[PT]---Fale-Conosco" transform="translate(-792.000000, -3122.000000)" fill="#FFFFFF">
            <g id="Group-41-Copy-5" transform="translate(792.000000, 3123.000000)">
                <g id="Group-7">
                    <path d="M24.3431477,6.56670536 L23.5674019,8.14015179 C22.9508162,7.80254464 22.2941205,7.6345625 21.5985948,7.6345625 C20.623152,7.6345625 19.7979086,7.88674107 19.1215845,8.39233036 C18.3855221,8.9168125 18.0181309,9.62816964 18.0181309,10.5268125 L18.0181309,19.6537054 L16.0488971,19.6537054 L16.0488971,6.0619375 L18.0181309,6.0619375 L18.0181309,7.07229464 C18.813505,6.23033036 20.0065663,5.8089375 21.5985948,5.8089375 C22.8313394,5.8089375 23.7466171,6.0619375 24.3431477,6.56670536" id="Fill-5"></path>
                    <polygon id="Fill-3" points="15.2664093 1.96124286 8.79161975 1.96124286 8.79161975 19.6535821 6.70333584 19.6535821 6.70333584 1.96124286 0.228546285 1.96124286 0.228546285 0.0514214286 15.2664093 0.0514214286"></polygon>
                    <path d="M34.4423089,16.4587179 L34.4423089,13.1668429 C34.0843052,13.3726107 33.6366939,13.4757 33.0994749,13.4757 L30.5204827,13.4757 C29.8501325,13.4757 29.1759419,13.6362893 28.6259219,13.9968964 C27.9282627,14.4536107 27.5800731,15.0668071 27.5800731,15.8344321 C27.5800731,16.5613964 27.9154616,17.141325 28.5870919,17.5746286 C29.2075179,17.9746643 29.9772899,18.124575 30.7295671,18.1028071 C32.53068,18.0506464 33.2138313,17.7142714 34.164952,17.0152357 C34.3441672,16.8833964 34.4423089,16.6727 34.4423089,16.4587179 L34.4423089,16.4587179 Z M34.5912282,18.9788607 C33.3977402,19.7284143 32.0054087,19.9341821 30.4142337,19.9341821 C29.1208972,19.9341821 28.0072027,19.5604321 27.0727234,18.8108786 C26.078079,18.0062893 25.5805434,17.0135929 25.5805434,15.8344321 C25.5805434,14.5801107 26.0678381,13.5689321 27.0428542,12.8013071 C27.9380768,12.08995 29.0615855,11.7342714 30.4142337,11.7342714 L32.9202597,11.7342714 C33.5769554,11.7342714 34.0843052,11.575325 34.4423089,11.2570214 L34.4423089,9.82486071 C34.4423089,9.11350357 34.1039335,8.57053929 33.4280361,8.19555714 C32.8707622,7.87766429 32.1944381,7.71871786 31.3990639,7.71871786 C29.5493069,7.71871786 28.3955023,8.42062857 27.9380768,9.82486071 L26.1177623,9.17839643 C26.8341965,6.96998571 28.6139742,5.86475357 31.4588023,5.86475357 C32.7913954,5.86475357 33.9247183,6.20195 34.860051,6.87552143 C35.8939521,7.62548571 36.4115427,8.60791429 36.4115427,9.82486071 L36.4115427,16.3946464 C36.4115427,17.3421643 35.8905385,18.2227357 35.0341458,18.7213429 L34.5912282,18.9788607 Z" id="Fill-9"></path>
                    <path d="M49.0164312,10.6675643 C49.0164312,9.82477857 48.6580008,9.11793929 47.9424201,8.54663571 C47.2259859,7.97615357 46.3806875,7.69029643 45.4056714,7.69029643 C43.8742348,7.69029643 42.8100378,8.24311786 42.2135072,9.34752857 C41.77571,10.1529393 41.5572381,11.3411357 41.5572381,12.9137607 C41.5572381,14.4674929 41.77571,15.6478857 42.2135072,16.452475 C42.8100378,17.5191 43.8742348,18.0530286 45.4056714,18.0530286 C46.4404259,18.0530286 47.4167221,17.8920286 48.1028604,17.3581 C48.7889986,16.8254036 49.0164312,16.2007071 49.0164312,15.1895286 L49.0164312,10.6675643 Z M49.2511178,18.8325643 C48.2368451,19.6186714 46.8777964,19.9057607 45.4056714,19.9057607 C41.5073139,19.9057607 39.5581351,17.5757786 39.5581351,12.9137607 C39.5581351,8.19588571 41.5073139,5.83715357 45.4056714,5.83715357 C46.2415824,5.83715357 46.8978514,5.91231429 47.3749052,6.062225 C47.8528125,6.21213571 48.3998456,6.53002857 49.0164312,7.01631429 L49.0164312,0.0514214286 L51.0151075,0.0514214286 L51.0151075,15.423225 C51.0151075,16.6742607 50.5670695,17.7187071 49.5788256,18.5553321 L49.2511178,18.8325643 Z" id="Fill-13"></path>
                    <path d="M63.9188588,11.6786196 C63.7789002,9.00117321 62.5760248,7.66265536 60.308099,7.66265536 C57.8020729,7.66265536 56.4297964,9.00117321 56.1912695,11.6786196 L63.9188588,11.6786196 Z M65.9175351,12.2955125 L65.8880926,13.5034232 L56.1315311,13.5034232 C56.2104712,16.5554411 57.692837,18.0812446 60.5769218,18.0812446 C62.1881519,18.0812446 63.4307107,17.5575839 64.306305,16.5082089 L65.649139,17.7723875 C64.4752793,19.1946911 62.7851092,19.9060482 60.5769218,19.9060482 C56.2804504,19.9060482 54.1320014,17.5851018 54.1320014,12.9419768 C54.1320014,10.8641732 54.5992411,9.20694107 55.5345738,7.97069107 C56.6282133,6.5483875 58.219815,5.83703036 60.308099,5.83703036 C62.197966,5.83703036 63.6299809,6.49253036 64.604997,7.80270893 C65.4801646,8.94531607 65.9175351,10.4427804 65.9175351,12.2955125 L65.9175351,12.2955125 Z" id="Fill-17"></path>
                </g>
                <polygon id="Fill-21" stroke="#FFFFFF" stroke-width="0.526315789" points="80.1977018 1.97496071 73.7229122 1.97496071 73.7229122 19.6673 71.6346283 19.6673 71.6346283 1.97496071 65.1598388 1.97496071 65.1598388 0.0651392857 80.1977018 0.0651392857"></polygon>
                <path d="M88.946135,12.898975 C88.946135,11.2709036 88.6973672,10.0539571 88.2002583,9.24895714 C87.5631909,8.21929643 86.4392555,7.70385 84.8280255,7.70385 C83.2372771,7.70385 82.1231559,8.21929643 81.4869419,9.24895714 C80.989833,10.0539571 80.7410652,11.2709036 80.7410652,12.898975 C80.7410652,14.5097964 80.989833,15.7070286 81.4869419,16.4943679 C82.1231559,17.5236179 83.2372771,18.0382429 84.8280255,18.0382429 C86.4392555,18.0382429 87.5631909,17.5236179 88.2002583,16.4943679 C88.6973672,15.7070286 88.946135,14.5097964 88.946135,12.898975 M90.9448113,12.8714571 C90.9448113,17.5326536 88.9158391,19.8638679 84.8583214,19.8638679 C80.7807486,19.8638679 78.7419622,17.5429214 78.7419622,12.898975 C78.7419622,8.20040357 80.7807486,5.85111786 84.8583214,5.85111786 C88.9158391,5.85111786 90.9448113,8.19095714 90.9448113,12.8714571" id="Fill-25" stroke="#FFFFFF" stroke-width="0.526315789"></path>
                <path d="M103.849032,12.898975 C103.849032,11.2709036 103.600264,10.0539571 103.103155,9.24895714 C102.466088,8.21929643 101.342152,7.70385 99.7309224,7.70385 C98.140174,7.70385 97.0260528,8.21929643 96.3898388,9.24895714 C95.8927299,10.0539571 95.6439621,11.2709036 95.6439621,12.898975 C95.6439621,14.5097964 95.8927299,15.7070286 96.3898388,16.4943679 C97.0260528,17.5236179 98.140174,18.0382429 99.7309224,18.0382429 C101.342152,18.0382429 102.466088,17.5236179 103.103155,16.4943679 C103.600264,15.7070286 103.849032,14.5097964 103.849032,12.898975 M105.847708,12.8714571 C105.847708,17.5326536 103.818736,19.8638679 99.7612183,19.8638679 C95.6836455,19.8638679 93.6452858,17.5429214 93.6452858,12.898975 C93.6452858,8.20040357 95.6836455,5.85111786 99.7612183,5.85111786 C103.818736,5.85111786 105.847708,8.19095714 105.847708,12.8714571" id="Fill-29" stroke="#FFFFFF" stroke-width="0.526315789"></path>
                <path d="M112.695308,19.6673411 C110.486694,19.6673411 109.38324,18.6007161 109.38324,16.4658232 L109.38324,0.0651803571 L111.412212,0.0651803571 L111.412212,16.3536982 C111.412212,16.8781804 111.491153,17.2523411 111.650313,17.4770018 C111.809473,17.7020732 112.158089,17.8133768 112.695308,17.8133768 L112.695308,19.6673411 Z" id="Fill-33" stroke="#FFFFFF" stroke-width="0.526315789"></path>
                <path d="M126.462834,15.7922518 C126.462834,17.0654661 125.896599,18.0951268 124.761996,18.8812339 C123.727668,19.5548054 122.495351,19.8920018 121.062909,19.8920018 C117.840022,19.8920018 115.871642,18.6097518 115.155634,16.0444304 L117.124441,15.4550554 C117.602349,17.2145554 118.91446,18.0951268 121.062909,18.0951268 C121.93765,18.0951268 122.693341,17.9168768 123.330408,17.5611982 C124.086099,17.1303589 124.464158,16.5409839 124.464158,15.7922518 C124.464158,14.8369304 123.698653,14.1448768 122.167216,13.7136268 C120.753976,13.3205732 119.34159,12.9373768 117.930483,12.5623946 C116.397766,11.9261982 115.632688,10.9154304 115.632688,9.52926964 C115.632688,8.35010893 116.16948,7.42312679 117.243918,6.74955536 C118.178397,6.15073393 119.312574,5.8509125 120.645167,5.8509125 C123.210931,5.8509125 125.010764,6.84360893 126.045092,8.82735893 L124.255073,9.64180536 C123.598804,8.3320375 122.395502,7.6765375 120.645167,7.6765375 C119.889476,7.6765375 119.23278,7.80714464 118.67636,8.06959107 C117.979127,8.40596607 117.631364,8.89307321 117.631364,9.52926964 C117.631364,10.2599304 118.397723,10.8312339 119.929159,11.2423589 C122.454387,11.9356446 123.867627,12.3475911 124.165892,12.4786089 C125.697329,13.2080375 126.462834,14.3132696 126.462834,15.7922518" id="Fill-37" stroke="#FFFFFF" stroke-width="0.526315789"></path>
            </g>
        </g>
    </g>
</svg>