<?xml version="1.0" encoding="UTF-8"?>
<svg width="40px" height="40px" viewBox="0 0 40 40" version="1.1" xmlns="http://www.w3.org/2000/svg" xmlns:xlink="http://www.w3.org/1999/xlink">
    <!-- Generator: Sketch 52.4 (67378) - http://www.bohemiancoding.com/sketch -->
    <title>Group-4-Copy</title>
    <desc>Created with Sketch.</desc>
    <defs>
        <path d="M3.95358678,0.0005 C1.768957,0.0005 0.00049426013,1.7905 0.00049426013,4 L0.00049426013,36 C0.00049426013,38.21 1.76994552,40 3.95358678,40 L35.5867293,40 C37.7713591,40 39.5408104,38.209 39.5408104,36 L39.5408104,4 C39.5408104,1.79 37.7703706,0.0005 35.5867293,0.0005 L3.95358678,0.0005 Z" id="path-1"></path>
    </defs>
    <g id="Page-1" stroke="none" stroke-width="1" fill="none" fill-rule="evenodd">
        <g id="Group-4-Copy">
            <g id="Group-50">
                <g id="tt-symbol">
                    <mask id="mask-2" fill="white">
                        <use xlink:href="#path-1"></use>
                    </mask>
                    <g id="path-4"></g>
                    <path d="M3.95358678,0.0005 C1.768957,0.0005 0.00049426013,1.7905 0.00049426013,4 L0.00049426013,36 C0.00049426013,38.21 1.76994552,40 3.95358678,40 L35.5867293,40 C37.7713591,40 39.5408104,38.209 39.5408104,36 L39.5408104,4 C39.5408104,1.79 37.7703706,0.0005 35.5867293,0.0005 L3.95358678,0.0005 Z" id="Fill-48" fill="#5B7FF6" mask="url(#mask-2)"></path>
                </g>
            </g>
            <g id="Group-8" transform="translate(13.295597, 9.666667)" fill="#FFFFFF">
                <polygon id="Fill-51" points="0 0 0 10.6666667 2.58774411 10.6666667 2.58774411 6.63589694 13.2955975 6.63589694 13.2955975 4.03076973 2.58774411 4.03076973 2.58774411 0"></polygon>
                <polygon id="Fill-52" points="10.7075389 10 10.7075389 14.031288 0 14.031288 0 16.6353787 10.7075389 16.6353787 10.7075389 20.6666667 13.2955975 20.6666667 13.2955975 10"></polygon>
            </g>
        </g>
    </g>
</svg>