<svg xmlns="http://www.w3.org/2000/svg" xmlns:xlink="http://www.w3.org/1999/xlink" viewBox="0 0 1379.5 1157.12"><defs><style>.cls-1{fill:url(#linear-gradient);}.cls-12,.cls-2{fill:#fff;}.cls-3{fill:url(#linear-gradient-2);}.cls-4{fill:url(#linear-gradient-3);}.cls-5{fill:url(#linear-gradient-4);}.cls-6{fill:url(#linear-gradient-5);}.cls-13,.cls-7{fill:#dce9ff;}.cls-8{fill:url(#radial-gradient);}.cls-9{fill:#b3d2ff;}.cls-10,.cls-14,.cls-20{fill:none;}.cls-10,.cls-12,.cls-13,.cls-32,.cls-47,.cls-62,.cls-63,.cls-64,.cls-65,.cls-66,.cls-67{stroke:#5b7ff6;}.cls-10,.cls-12,.cls-13,.cls-14,.cls-20,.cls-32,.cls-47,.cls-62,.cls-63,.cls-64,.cls-65,.cls-66,.cls-67{stroke-linecap:round;stroke-linejoin:round;}.cls-10,.cls-12,.cls-13,.cls-20,.cls-32,.cls-47,.cls-62,.cls-63,.cls-64,.cls-65,.cls-66,.cls-67{stroke-width:2px;}.cls-11{fill:#ff1d25;stroke:#d4145a;stroke-miterlimit:10;stroke-width:0.37px;}.cls-14{stroke:#dce9ff;stroke-width:7.37px;stroke-dasharray:14.74 22.1;}.cls-15{fill:url(#radial-gradient-2);}.cls-16{fill:url(#radial-gradient-3);}.cls-17{fill:url(#radial-gradient-4);}.cls-18{fill:url(#linear-gradient-6);}.cls-19{fill:url(#linear-gradient-7);}.cls-20{stroke:#c0d1ff;}.cls-21{fill:url(#linear-gradient-8);}.cls-22{fill:url(#linear-gradient-9);}.cls-23{fill:url(#linear-gradient-10);}.cls-24{fill:url(#linear-gradient-11);}.cls-25{fill:url(#linear-gradient-12);}.cls-26{fill:url(#linear-gradient-13);}.cls-27{fill:url(#linear-gradient-14);}.cls-28{fill:url(#linear-gradient-15);}.cls-29{fill:url(#linear-gradient-16);}.cls-30{fill:url(#linear-gradient-17);}.cls-31{fill:url(#linear-gradient-18);}.cls-32{fill:url(#linear-gradient-19);}.cls-33{fill:url(#linear-gradient-20);}.cls-34{fill:url(#linear-gradient-21);}.cls-35{fill:url(#linear-gradient-22);}.cls-36{clip-path:url(#clip-path);}.cls-37{fill:url(#linear-gradient-24);}.cls-38{fill:url(#linear-gradient-25);}.cls-39{fill:url(#linear-gradient-26);}.cls-40{fill:url(#linear-gradient-27);}.cls-41{fill:url(#linear-gradient-28);}.cls-42{fill:url(#linear-gradient-29);}.cls-43{fill:url(#linear-gradient-30);}.cls-44{fill:url(#linear-gradient-31);}.cls-45{fill:url(#linear-gradient-32);}.cls-46{fill:url(#linear-gradient-33);}.cls-47{fill:url(#linear-gradient-34);}.cls-48{fill:url(#linear-gradient-35);}.cls-49{fill:url(#linear-gradient-36);}.cls-50{fill:url(#linear-gradient-37);}.cls-51{fill:url(#linear-gradient-38);}.cls-52{fill:url(#linear-gradient-39);}.cls-53{fill:url(#linear-gradient-40);}.cls-54{fill:url(#linear-gradient-41);}.cls-55{fill:url(#linear-gradient-42);}.cls-56{fill:url(#linear-gradient-43);}.cls-57{fill:url(#linear-gradient-44);}.cls-58{fill:url(#linear-gradient-45);}.cls-59{clip-path:url(#clip-path-2);}.cls-60{fill:url(#linear-gradient-46);}.cls-61{fill:url(#linear-gradient-47);}.cls-62{fill:url(#linear-gradient-48);}.cls-63{fill:url(#linear-gradient-49);}.cls-64{fill:url(#linear-gradient-50);}.cls-65{fill:url(#linear-gradient-51);}.cls-66{fill:url(#linear-gradient-52);}.cls-67{fill:url(#linear-gradient-53);}.cls-68{fill:url(#linear-gradient-54);}.cls-69{fill:url(#linear-gradient-55);}.cls-70{fill:url(#linear-gradient-56);}.cls-71{fill:url(#linear-gradient-57);}.cls-72{fill:url(#linear-gradient-58);}.cls-73{fill:url(#linear-gradient-59);}.cls-74{fill:url(#linear-gradient-60);}.cls-75{fill:url(#linear-gradient-61);}.cls-76{fill:url(#linear-gradient-62);}.cls-77{fill:url(#linear-gradient-63);}.cls-78{fill:url(#linear-gradient-64);}.cls-79{fill:url(#linear-gradient-65);}.cls-80{fill:url(#linear-gradient-66);}.cls-81{fill:url(#linear-gradient-67);}.cls-82{fill:url(#linear-gradient-68);}.cls-83{fill:url(#linear-gradient-69);}.cls-84{fill:url(#linear-gradient-70);}.cls-85{fill:url(#linear-gradient-71);}.cls-86{fill:url(#linear-gradient-72);}.cls-87{fill:url(#linear-gradient-73);}.cls-88{fill:url(#linear-gradient-74);}.cls-89{fill:url(#linear-gradient-75);}</style><linearGradient id="linear-gradient" x1="1069.3" y1="555.09" x2="1149.31" y2="635.09" gradientUnits="userSpaceOnUse"><stop offset="0" stop-color="#7ea3f6"/><stop offset="1" stop-color="#5b7ff6"/></linearGradient><linearGradient id="linear-gradient-2" x1="486.76" y1="116.92" x2="495.38" y2="125.54" xlink:href="#linear-gradient"/><linearGradient id="linear-gradient-3" x1="389.26" y1="121.51" x2="430.48" y2="162.73" xlink:href="#linear-gradient"/><linearGradient id="linear-gradient-4" x1="310.16" y1="131.25" x2="315.55" y2="136.64" xlink:href="#linear-gradient"/><linearGradient id="linear-gradient-5" x1="238.36" y1="130.2" x2="270.84" y2="162.68" xlink:href="#linear-gradient"/><radialGradient id="radial-gradient" cx="304.61" cy="742.87" r="230.85" gradientUnits="userSpaceOnUse"><stop offset="0" stop-color="#fff"/><stop offset="1" stop-color="#dce9ff"/></radialGradient><radialGradient id="radial-gradient-2" cx="1158.15" cy="697.51" r="162.55" xlink:href="#radial-gradient"/><radialGradient id="radial-gradient-3" cx="708.88" cy="496.87" r="191.63" xlink:href="#radial-gradient"/><radialGradient id="radial-gradient-4" cx="743.78" cy="933.88" r="274.93" xlink:href="#radial-gradient"/><linearGradient id="linear-gradient-6" x1="536.9" y1="430.21" x2="701.29" y2="594.6" xlink:href="#linear-gradient"/><linearGradient id="linear-gradient-7" x1="655.92" y1="113.5" x2="895.36" y2="352.95" xlink:href="#linear-gradient"/><linearGradient id="linear-gradient-8" x1="648.51" y1="66.34" x2="682.22" y2="100.06" xlink:href="#linear-gradient"/><linearGradient id="linear-gradient-9" x1="532.89" y1="161.13" x2="783.96" y2="412.2" xlink:href="#linear-gradient"/><linearGradient id="linear-gradient-10" x1="345.4" y1="457.01" x2="392.81" y2="504.43" xlink:href="#linear-gradient"/><linearGradient id="linear-gradient-11" x1="201.51" y1="530.24" x2="335.53" y2="664.26" xlink:href="#linear-gradient"/><linearGradient id="linear-gradient-12" x1="324.74" y1="490.55" x2="349.87" y2="515.67" xlink:href="#linear-gradient"/><linearGradient id="linear-gradient-13" x1="245.49" y1="444.48" x2="511.01" y2="710" xlink:href="#linear-gradient"/><linearGradient id="linear-gradient-14" x1="477.66" y1="736.78" x2="492.9" y2="752.02" xlink:href="#linear-gradient"/><linearGradient id="linear-gradient-15" x1="852.23" y1="362.57" x2="1086.02" y2="596.35" xlink:href="#linear-gradient"/><linearGradient id="linear-gradient-16" x1="935.55" y1="243.86" x2="1017.06" y2="325.36" xlink:href="#linear-gradient"/><linearGradient id="linear-gradient-17" x1="967.46" y1="215.8" x2="1013.87" y2="262.22" xlink:href="#linear-gradient"/><linearGradient id="linear-gradient-18" x1="1000.33" y1="192.85" x2="1021.05" y2="213.58" xlink:href="#linear-gradient"/><linearGradient id="linear-gradient-19" x1="1154.64" y1="122.93" x2="1253.47" y2="221.75" xlink:href="#linear-gradient"/><linearGradient id="linear-gradient-20" x1="1024.65" y1="592.33" x2="1172.52" y2="740.19" xlink:href="#linear-gradient"/><linearGradient id="linear-gradient-21" x1="1151.54" y1="672.86" x2="1206.41" y2="727.73" xlink:href="#linear-gradient"/><linearGradient id="linear-gradient-22" x1="1032.31" y1="572.3" x2="1040.76" y2="580.75" xlink:href="#linear-gradient"/><clipPath id="clip-path"><polygon class="cls-1" points="1152.18 632.22 1066.43 582.71 1066.43 557.96 1152.18 607.47 1152.18 632.22"/></clipPath><linearGradient id="linear-gradient-24" x1="1287.5" y1="696.2" x2="1302.1" y2="710.8" xlink:href="#linear-gradient"/><linearGradient id="linear-gradient-25" x1="1275.16" y1="703.33" x2="1289.76" y2="717.92" xlink:href="#linear-gradient"/><linearGradient id="linear-gradient-26" x1="1262.82" y1="710.45" x2="1277.42" y2="725.05" xlink:href="#linear-gradient"/><linearGradient id="linear-gradient-27" x1="1250.49" y1="717.58" x2="1265.08" y2="732.17" xlink:href="#linear-gradient"/><linearGradient id="linear-gradient-28" x1="1298.54" y1="711.76" x2="1303.4" y2="716.62" xlink:href="#linear-gradient"/><linearGradient id="linear-gradient-29" x1="1286.2" y1="718.88" x2="1291.07" y2="723.75" xlink:href="#linear-gradient"/><linearGradient id="linear-gradient-30" x1="1273.86" y1="726" x2="1278.73" y2="730.87" xlink:href="#linear-gradient"/><linearGradient id="linear-gradient-31" x1="1261.52" y1="733.13" x2="1266.39" y2="737.99" xlink:href="#linear-gradient"/><linearGradient id="linear-gradient-32" x1="1202.3" y1="714.49" x2="1251.37" y2="763.56" xlink:href="#linear-gradient"/><linearGradient id="linear-gradient-33" x1="1268.17" y1="733.6" x2="1282.77" y2="748.2" xlink:href="#linear-gradient"/><linearGradient id="linear-gradient-34" x1="1291.89" y1="739.77" x2="1299.67" y2="747.55" xlink:href="#linear-gradient"/><linearGradient id="linear-gradient-35" x1="676.99" y1="707.82" x2="816.36" y2="847.19" xlink:href="#linear-gradient"/><linearGradient id="linear-gradient-36" x1="729.34" y1="658.78" x2="788.65" y2="718.09" xlink:href="#linear-gradient"/><linearGradient id="linear-gradient-37" x1="808.15" y1="517.11" x2="975.13" y2="684.09" xlink:href="#linear-gradient"/><linearGradient id="linear-gradient-38" x1="831.84" y1="704.05" x2="937.57" y2="809.79" xlink:href="#linear-gradient"/><linearGradient id="linear-gradient-39" x1="805.21" y1="794" x2="943.39" y2="932.18" xlink:href="#linear-gradient"/><linearGradient id="linear-gradient-40" x1="872.69" y1="450.58" x2="924.48" y2="502.37" xlink:href="#linear-gradient"/><linearGradient id="linear-gradient-41" x1="927.28" y1="435.47" x2="949.19" y2="457.38" xlink:href="#linear-gradient"/><linearGradient id="linear-gradient-42" x1="951.75" y1="898.41" x2="977.26" y2="923.92" xlink:href="#linear-gradient"/><linearGradient id="linear-gradient-43" x1="992.46" y1="888.4" x2="1009.95" y2="905.89" xlink:href="#linear-gradient"/><linearGradient id="linear-gradient-44" x1="25.84" y1="594.17" x2="211.22" y2="779.55" xlink:href="#linear-gradient"/><linearGradient id="linear-gradient-45" x1="177.73" y1="493.23" x2="248.92" y2="564.42" xlink:href="#linear-gradient"/><clipPath id="clip-path-2"><polygon class="cls-2" points="92.76 738.92 144.29 768.79 144.28 612.47 92.8 582.75 92.76 738.92"/></clipPath><linearGradient id="linear-gradient-46" x1="962.63" y1="961.78" x2="1001.44" y2="1000.58" xlink:href="#linear-gradient"/><linearGradient id="linear-gradient-47" x1="949.87" y1="991.12" x2="1000.44" y2="1041.69" xlink:href="#linear-gradient"/><linearGradient id="linear-gradient-48" x1="1026.28" y1="1019.89" x2="1035.2" y2="1028.82" xlink:href="#linear-gradient"/><linearGradient id="linear-gradient-49" x1="1024.63" y1="1030.44" x2="1027.01" y2="1032.81" xlink:href="#linear-gradient"/><linearGradient id="linear-gradient-50" x1="1023.74" y1="1028.09" x2="1025.7" y2="1030.05" xlink:href="#linear-gradient"/><linearGradient id="linear-gradient-51" x1="1086.42" y1="985.31" x2="1095.34" y2="994.23" xlink:href="#linear-gradient"/><linearGradient id="linear-gradient-52" x1="1084.78" y1="995.85" x2="1087.15" y2="998.23" xlink:href="#linear-gradient"/><linearGradient id="linear-gradient-53" x1="1083.89" y1="993.5" x2="1085.84" y2="995.46" xlink:href="#linear-gradient"/><linearGradient id="linear-gradient-54" x1="1186.29" y1="750.71" x2="1210.75" y2="775.17" xlink:href="#linear-gradient"/><linearGradient id="linear-gradient-55" x1="614.89" y1="533.58" x2="674.96" y2="593.65" xlink:href="#linear-gradient"/><linearGradient id="linear-gradient-56" x1="632.23" y1="514.22" x2="670.68" y2="552.67" xlink:href="#linear-gradient"/><linearGradient id="linear-gradient-57" x1="521.75" y1="638.3" x2="741.96" y2="858.51" xlink:href="#linear-gradient"/><linearGradient id="linear-gradient-58" x1="643.48" y1="502.8" x2="659.39" y2="518.71" xlink:href="#linear-gradient"/><linearGradient id="linear-gradient-59" x1="812.78" y1="802.16" x2="860.2" y2="849.57" xlink:href="#linear-gradient"/><linearGradient id="linear-gradient-60" x1="668.89" y1="875.39" x2="802.91" y2="1009.41" xlink:href="#linear-gradient"/><linearGradient id="linear-gradient-61" x1="792.13" y1="835.7" x2="817.26" y2="860.82" xlink:href="#linear-gradient"/><linearGradient id="linear-gradient-62" x1="422.04" y1="849.71" x2="570.17" y2="997.84" xlink:href="#linear-gradient"/><linearGradient id="linear-gradient-63" x1="535.88" y1="985.01" x2="652.88" y2="1102.01" xlink:href="#linear-gradient"/><linearGradient id="linear-gradient-64" x1="535.95" y1="918.14" x2="652.75" y2="1034.94" xlink:href="#linear-gradient"/><linearGradient id="linear-gradient-65" x1="535.95" y1="850.77" x2="652.75" y2="967.57" xlink:href="#linear-gradient"/><linearGradient id="linear-gradient-66" x1="275.09" y1="649.56" x2="405.33" y2="779.8" xlink:href="#linear-gradient"/><linearGradient id="linear-gradient-67" x1="192.36" y1="684.27" x2="277.81" y2="769.72" xlink:href="#linear-gradient"/><linearGradient id="linear-gradient-68" x1="192.36" y1="634.9" x2="277.81" y2="720.35" xlink:href="#linear-gradient"/><linearGradient id="linear-gradient-69" x1="192.36" y1="733.59" x2="277.81" y2="819.04" xlink:href="#linear-gradient"/><linearGradient id="linear-gradient-70" x1="199.77" y1="588" x2="280.21" y2="668.43" xlink:href="#linear-gradient"/><linearGradient id="linear-gradient-71" x1="187.42" y1="788.05" x2="277.79" y2="878.41" xlink:href="#linear-gradient"/><linearGradient id="linear-gradient-72" x1="1209.08" y1="538.8" x2="1212.76" y2="542.49" xlink:href="#linear-gradient"/><linearGradient id="linear-gradient-73" x1="1223.06" y1="543.18" x2="1226.74" y2="546.87" xlink:href="#linear-gradient"/><linearGradient id="linear-gradient-74" x1="1194.04" y1="552.63" x2="1197.73" y2="556.32" xlink:href="#linear-gradient"/><linearGradient id="linear-gradient-75" x1="1236.95" y1="530.4" x2="1240.64" y2="534.09" xlink:href="#linear-gradient"/></defs><title>Artboard 11</title><g id="ilustração"><path class="cls-3" d="M487.64,116c1.54,2.89,1.14,9.75,1.14,9.75s6.1-4.85,10-3.68Z"/><path class="cls-4" d="M480.91,110.72l-15.75-9.07s-10-7.54-22.75,4.53l-8.81-4.68s-12.53-8.5-29.23,5.36-21.56,29.46-22.23,42.71c0,0-23.72,12.63-23.72,36.53,0,14.46,13.82,16.4,24.6,24.11,0,0-6.57-5.77-6.48-13.68s3.21-23.82,23.72-36.53c0,0,.5-26.82,22.88-43.22s32.09-2.23,34.74,2.59C457.88,119.37,469.88,105.67,480.91,110.72Z"/><path class="cls-5" d="M310.71,130.69c1,1.8.71,6.1.71,6.1s3.81-3,6.27-2.3Z"/><path class="cls-6" d="M306.35,127.16l-16.53-9.52s-7-5.67-16.14,3L268,117.33s-8.26-6.15-20.21,3.77-15,21.7-15,28.91c0,0-16.17,8.83-16.17,25.1,0,8.6,8.57,11.44,21.77,18.75a14.08,14.08,0,0,1-3.64-9.38c.07-5.66,3-15.75,16.17-24,0,0-.46-17.54,16.57-30,14.27-10.42,22.72-.58,22.46,2.59C289.94,133.06,297.79,123.41,306.35,127.16Z"/><polygon class="cls-7" points="1184.34 749.81 1059.75 749.81 1009.59 720.98 1009.61 692.82 995.73 684.8 995.73 601 1211.51 705.28 1184.34 749.81"/><polygon class="cls-7" points="616.48 553.64 592.67 567.38 592.67 594.32 534.79 560.91 534.79 465.68 541.98 461.53 541.98 510.63 616.48 553.64"/><path class="cls-7" d="M652.57,1102.31H568L376.23,991.45a11.46,11.46,0,0,1,0-19.83l87.22-50.51Z"/><path class="cls-7" d="M276,880.16H183.18L8.86,779.84a5.93,5.93,0,0,1,0-10.26L67,735.77l220.36,98.35Z"/><path class="cls-8" d="M340.21,579.59,584.54,720.65a5.53,5.53,0,0,1,0,9.57L283.25,904.18a14.74,14.74,0,0,1-14.74,0L21.91,761.8Z"/><polygon class="cls-9" points="435.77 785.23 395.82 785.23 395.82 762.17 435.77 785.23"/><polygon class="cls-9" points="22.07 761.89 226.92 880.16 276.04 880.16 287.35 834.12 67.2 735.87 42.22 750.17 22.07 761.89"/><path class="cls-10" d="M463.44,825.48,292.53,924.15a33.16,33.16,0,0,1-33.16,0L8.33,779.21a5.53,5.53,0,0,1,0-9.57L67,735.77"/><line class="cls-11" x1="368.83" y1="707.59" x2="307.14" y2="814.45"/><path class="cls-12" d="M987.1,166.57l-24.57-6.83q-2.63,1.06-5.41,1.87a56.63,56.63,0,1,1,29.38-20.2Z"/><path class="cls-13" d="M941.36,79.2a23.08,23.08,0,0,0-23.08,23.08c0,14.77,14.69,35.66,23.08,35.66s23.08-20.5,23.08-35.66A23.08,23.08,0,0,0,941.36,79.2Zm0,33a9.9,9.9,0,1,1,9.9-9.9A9.9,9.9,0,0,1,941.36,112.17Z"/><line class="cls-14" x1="592.67" y1="647.52" x2="534.79" y2="614.1"/><line class="cls-14" x1="1172.18" y1="863.93" x2="993.63" y2="760.83"/><line class="cls-14" x1="798.79" y1="647.29" x2="860.68" y2="611.56"/><line class="cls-14" x1="317.86" y1="954.8" x2="463.44" y2="870.75"/><path class="cls-15" d="M1101.1,583.3l256.54,148.11L1222,809.76a14.74,14.74,0,0,1-14.74,0L958.66,666.25Z"/><path class="cls-9" d="M1222.23,775.08l-18.51,10.69h-18.23a21.38,21.38,0,0,1-9-2.17c-2.43-1.36-3.1-2.55-2.59-3.44s17.53-10.32,17.53-10.32l18-1.89Z"/><polygon class="cls-9" points="1304.06 758.71 1283.76 758.71 1291.72 751.59 1300.97 745.67 1304.06 758.71"/><polygon class="cls-9" points="1242.36 772.57 1213.99 772.57 1182.92 755.15 1218.28 733.02 1242.36 772.57"/><polygon class="cls-9" points="1036.71 620.8 995.73 644.66 995.73 684.8 1009.61 692.82 1009.61 695.67 1103.38 749.81 1184.34 749.81 1211.51 705.28 1036.71 620.8"/><polygon class="cls-16" points="715.28 361.46 943.63 492.89 702.2 632.28 474.12 500.7 715.28 361.46"/><polygon class="cls-9" points="541.98 510.63 541.98 461.53 534.79 465.68 534.79 535.7 592.67 569.09 592.67 567.38 616.48 553.64 541.98 510.63"/><path class="cls-17" d="M824.26,737.94l252.59,145.83a5.53,5.53,0,0,1,0,9.57L670.67,1127.85a14.74,14.74,0,0,1-14.74,0L410.71,986.27a5.53,5.53,0,0,1,0-9.57Z"/><polygon class="cls-9" points="926.34 949.22 903.39 949.22 903.39 935.97 926.34 949.22"/><polygon class="cls-9" points="783.14 1029.18 761.69 1029.18 761.69 1016.79 783.14 1029.18"/><path class="cls-9" d="M410.71,986.27l201,116h40.87L479.82,936.8l-69.11,39.9A5.53,5.53,0,0,0,410.71,986.27Z"/><line class="cls-10" x1="592.67" y1="594.32" x2="534.79" y2="560.91"/><line class="cls-10" x1="592.67" y1="700.15" x2="534.79" y2="666.73"/><path class="cls-10" d="M1009.59,721,1197.9,829.7a33.15,33.15,0,0,0,33.15,0l140.12-80.9a5.53,5.53,0,0,0,0-9.57l-63.09-36.43"/><line class="cls-10" x1="749.43" y1="630.24" x2="856.95" y2="568.16"/><path class="cls-10" d="M1037.18,835.71l74.05,42.75a11.79,11.79,0,0,1,0,20.42L680,1147.85a33.16,33.16,0,0,1-33.16,0L376.46,991.75a11.79,11.79,0,0,1,0-20.42l87-50.22"/><polygon class="cls-2" points="905.98 478.57 696.22 599.68 541.98 510.63 541.98 425.14 603.68 389.52 603.68 90.34 628.35 76.08 653.03 90.34 653.03 61.82 751.74 4.83 776.42 19.08 776.42 61.82 844.29 101 844.29 357.46 905.98 393.08 905.98 478.57"/><polygon class="cls-18" points="696.22 599.68 541.98 510.63 541.98 425.14 696.22 514.19 696.22 599.68"/><polygon class="cls-19" points="714.72 54.7 714.72 125.94 733.23 136.64 770.25 115.27 794.93 129.51 794.93 414.46 819.61 428.7 819.61 115.25 714.72 54.7"/><line class="cls-20" x1="794.93" y1="179.36" x2="807.26" y2="186.48"/><line class="cls-20" x1="794.93" y1="222.09" x2="807.26" y2="229.22"/><line class="cls-20" x1="794.93" y1="264.83" x2="807.26" y2="271.95"/><line class="cls-20" x1="794.93" y1="307.56" x2="807.26" y2="314.69"/><line class="cls-20" x1="794.93" y1="350.3" x2="807.26" y2="357.42"/><line class="cls-20" x1="794.93" y1="393.03" x2="807.26" y2="400.16"/><line class="cls-20" x1="794.95" y1="136.63" x2="807.27" y2="143.74"/><line class="cls-20" x1="714.79" y1="90.34" x2="764.1" y2="118.82"/><polygon class="cls-21" points="653.03 61.82 653.03 90.34 677.71 104.57 677.71 76.07 653.03 61.82"/><polygon class="cls-22" points="671.54 172.26 708.56 150.89 603.68 90.34 603.68 403.78 671.54 442.95 671.54 485.68 696.22 499.95 696.22 186.51 671.54 172.26"/><polyline class="cls-20" points="696.22 222.12 683.89 214.98 683.89 200.72"/><polyline class="cls-20" points="677.73 168.69 616.01 133.05 616.01 118.81"/><polyline class="cls-20" points="671.54 207.85 616.01 175.81 616.01 161.57"/><polyline class="cls-20" points="671.54 250.71 616.01 218.67 616.01 204.43"/><polyline class="cls-20" points="671.54 293.34 616.01 261.3 616.01 247.06"/><polyline class="cls-20" points="671.54 336.05 616.01 304.01 616.01 289.77"/><polyline class="cls-20" points="671.54 378.8 616.01 346.75 616.01 332.52"/><polyline class="cls-20" points="671.54 421.55 616.01 389.5 616.01 375.26"/><polyline class="cls-20" points="696.22 264.86 683.89 257.73 683.89 243.47"/><polyline class="cls-20" points="696.22 307.61 683.89 300.47 683.89 286.22"/><polyline class="cls-20" points="696.22 350.36 683.89 343.22 683.89 328.97"/><polyline class="cls-20" points="696.22 393.11 683.89 385.98 683.89 371.72"/><polyline class="cls-20" points="696.22 435.87 683.89 428.73 683.89 414.48"/><polyline class="cls-20" points="696.22 478.62 683.89 471.48 683.89 457.23"/><polygon class="cls-9" points="819.61 428.7 794.92 428.7 794.93 414.46 819.61 428.7"/><polygon class="cls-9" points="603.68 389.52 603.68 403.78 671.54 442.95 671.54 485.68 696.22 499.95 671.52 499.95 541.98 425.14 603.68 389.52"/><polygon class="cls-9" points="714.72 54.7 683.88 108.12 714.72 125.94 714.72 54.7"/><polygon class="cls-10" points="794.93 129.51 770.25 115.27 733.23 136.64 628.35 76.08 603.68 90.34 708.56 150.89 671.54 172.26 696.22 186.51 794.93 129.51"/><polygon class="cls-10" points="653.03 61.82 677.71 76.07 714.72 54.7 819.61 115.25 844.29 101 739.4 40.45 776.42 19.08 751.74 4.83 653.03 61.82"/><line class="cls-10" x1="794.93" y1="129.52" x2="794.93" y2="442.96"/><line class="cls-10" x1="696.22" y1="186.51" x2="696.22" y2="499.95"/><line class="cls-10" x1="794.93" y1="442.96" x2="696.22" y2="499.95"/><line class="cls-10" x1="671.54" y1="172.26" x2="671.54" y2="485.68"/><line class="cls-10" x1="603.68" y1="90.34" x2="603.68" y2="403.78"/><line class="cls-10" x1="696.22" y1="499.95" x2="671.54" y2="485.68"/><line class="cls-10" x1="671.54" y1="442.95" x2="603.68" y2="403.78"/><line class="cls-10" x1="653.03" y1="61.82" x2="653.03" y2="90.34"/><line class="cls-10" x1="677.71" y1="76.07" x2="677.71" y2="104.57"/><line class="cls-10" x1="714.72" y1="54.7" x2="714.72" y2="125.95"/><line class="cls-10" x1="819.61" y1="115.25" x2="819.61" y2="428.7"/><line class="cls-10" x1="844.29" y1="101" x2="844.29" y2="414.46"/><line class="cls-10" x1="776.42" y1="19.08" x2="776.42" y2="61.82"/><line class="cls-10" x1="819.61" y1="428.7" x2="844.29" y2="414.46"/><line class="cls-10" x1="819.61" y1="428.7" x2="794.93" y2="414.46"/><line class="cls-10" x1="696.22" y1="514.19" x2="905.98" y2="393.08"/><line class="cls-10" x1="844.29" y1="357.46" x2="905.98" y2="393.08"/><line class="cls-10" x1="603.68" y1="389.52" x2="541.98" y2="425.14"/><line class="cls-10" x1="696.22" y1="514.19" x2="541.98" y2="425.14"/><line class="cls-10" x1="696.22" y1="514.19" x2="696.22" y2="599.68"/><line class="cls-10" x1="905.98" y1="393.08" x2="905.98" y2="478.57"/><line class="cls-10" x1="696.22" y1="599.68" x2="905.98" y2="478.57"/><line class="cls-10" x1="696.22" y1="599.68" x2="541.98" y2="510.63"/><line class="cls-10" x1="541.98" y1="425.14" x2="541.98" y2="510.63"/><polygon class="cls-10" points="782.62 428.7 696.22 478.6 696.22 464.35 782.61 414.46 782.62 428.7"/><polygon class="cls-10" points="782.61 385.95 696.22 435.88 696.22 421.63 782.6 371.71 782.61 385.95"/><polygon class="cls-10" points="782.61 343.21 696.22 393.16 696.22 378.91 782.61 328.97 782.61 343.21"/><polygon class="cls-10" points="782.61 300.48 696.22 350.44 696.22 336.19 782.59 286.22 782.61 300.48"/><polygon class="cls-10" points="782.59 257.72 696.22 307.72 696.22 293.47 782.59 243.47 782.59 257.72"/><polygon class="cls-10" points="782.65 215.01 696.22 265 696.22 250.75 782.65 200.76 782.65 215.01"/><polygon class="cls-10" points="782.6 172.24 696.22 222.12 696.22 207.85 782.6 157.99 782.6 172.24"/><polyline class="cls-10" points="714.79 90.34 689.99 104.59 689.99 90.34 714.79 76.09"/><line class="cls-10" x1="708.56" y1="122.38" x2="714.72" y2="118.8"/><polygon class="cls-2" points="436 614.61 315.76 684.03 221.28 629.49 221.28 510.47 341.52 441.05 436 495.6 436 614.61"/><polygon class="cls-23" points="393.06 500.56 341.52 470.8 341.52 460.88 401.65 495.6 393.06 500.56"/><polygon class="cls-24" points="315.76 684.03 221.28 629.49 221.28 510.47 315.76 565.02 315.76 684.03"/><polygon class="cls-25" points="350.11 505.51 324.66 490.64 324.35 500.56 350.11 515.43 350.11 505.51"/><polygon class="cls-9" points="350.11 515.43 344.36 515.43 319.86 501.14 324.35 498.44 324.35 500.56 350.11 515.43"/><polygon class="cls-9" points="341.52 460.88 333.09 475.67 384.62 505.42 393.29 500.42 341.52 470.8 341.52 460.88"/><line class="cls-10" x1="221.28" y1="629.49" x2="315.76" y2="684.03"/><line class="cls-10" x1="436" y1="614.61" x2="315.76" y2="684.03"/><line class="cls-10" x1="436" y1="495.6" x2="436" y2="614.61"/><line class="cls-10" x1="221.28" y1="510.47" x2="221.28" y2="629.49"/><line class="cls-10" x1="315.76" y1="684.03" x2="315.76" y2="565.02"/><line class="cls-10" x1="221.28" y1="510.47" x2="315.76" y2="565.02"/><line class="cls-10" x1="436" y1="495.6" x2="315.76" y2="565.02"/><line class="cls-10" x1="221.28" y1="510.47" x2="341.52" y2="441.05"/><line class="cls-10" x1="436" y1="495.6" x2="341.52" y2="441.05"/><line class="cls-10" x1="315.76" y1="545.18" x2="255.63" y2="510.47"/><line class="cls-10" x1="341.52" y1="460.88" x2="255.63" y2="510.47"/><line class="cls-10" x1="401.65" y1="495.6" x2="341.52" y2="460.88"/><line class="cls-10" x1="315.76" y1="545.18" x2="401.65" y2="495.6"/><line class="cls-10" x1="341.52" y1="470.8" x2="341.52" y2="460.88"/><line class="cls-10" x1="264.22" y1="515.43" x2="341.52" y2="470.8"/><line class="cls-10" x1="393.06" y1="500.56" x2="341.52" y2="470.8"/><polygon class="cls-10" points="350.11 594.77 341.52 599.73 341.52 569.98 350.11 565.02 350.11 594.77"/><polygon class="cls-10" points="384.47 545.18 384.47 574.94 393.06 569.98 393.06 540.23 384.47 545.18"/><polygon class="cls-10" points="401.65 535.27 401.65 565.02 410.24 560.06 410.24 530.31 401.65 535.27"/><polygon class="cls-10" points="358.7 560.06 358.7 589.82 367.29 584.86 367.29 555.1 358.7 560.06"/><polygon class="cls-10" points="350.11 644.36 341.52 649.32 341.52 619.57 350.11 614.61 350.11 644.36"/><polygon class="cls-10" points="384.47 594.77 384.47 624.53 393.06 619.57 393.06 589.82 384.47 594.77"/><polygon class="cls-10" points="401.65 584.86 401.65 614.61 410.24 609.65 410.24 579.9 401.65 584.86"/><polygon class="cls-10" points="358.7 609.65 358.7 639.4 367.29 634.45 367.29 604.69 358.7 609.65"/><polygon class="cls-2" points="298.58 574.94 298.58 604.69 289.99 599.73 289.99 569.98 298.58 574.94"/><polygon class="cls-2" points="281.4 565.02 281.4 594.77 272.81 589.82 272.81 560.06 281.4 565.02"/><polygon class="cls-2" points="264.22 555.1 264.22 584.86 255.63 579.9 255.63 550.14 264.22 555.1"/><polygon class="cls-2" points="247.04 545.18 247.04 574.94 238.45 569.98 238.45 540.23 247.04 545.18"/><polygon class="cls-2" points="298.58 624.53 298.58 654.28 289.99 649.32 289.99 619.57 298.58 624.53"/><polygon class="cls-2" points="281.4 614.61 281.4 644.36 272.81 639.4 272.81 609.65 281.4 614.61"/><polygon class="cls-2" points="264.22 604.69 264.22 634.45 255.63 629.49 255.63 599.73 264.22 604.69"/><polygon class="cls-2" points="247.04 594.77 247.04 624.53 238.45 619.57 238.45 589.82 247.04 594.77"/><line class="cls-10" x1="350.11" y1="515.43" x2="324.34" y2="500.56"/><line class="cls-10" x1="367.29" y1="505.51" x2="367.29" y2="495.8"/><line class="cls-10" x1="350.11" y1="515.43" x2="367.29" y2="505.51"/><line class="cls-10" x1="350.11" y1="505.51" x2="350.11" y2="515.43"/><line class="cls-10" x1="324.34" y1="490.64" x2="350.11" y2="505.51"/><line class="cls-10" x1="324.34" y1="500.56" x2="324.34" y2="490.64"/><line class="cls-10" x1="350.11" y1="505.51" x2="367.29" y2="495.8"/><line class="cls-10" x1="324.34" y1="490.64" x2="341.52" y2="480.72"/><line class="cls-10" x1="367.29" y1="495.8" x2="341.52" y2="480.72"/><polygon class="cls-2" points="534.79 728.06 435.77 785.23 336.75 728.06 336.75 353.22 435.77 295.22 456.99 307.47 534.79 442.22 534.79 728.06"/><polygon class="cls-26" points="336.75 353.22 357.97 364.64 435.77 499.39 435.77 785.23 336.75 728.06 336.75 353.22"/><polygon class="cls-27" points="492.35 752.56 478.21 760.73 478.21 736.23 492.35 728.06 492.35 752.56"/><rect class="cls-9" x="413.46" y="355.16" width="16.33" height="141.45" transform="translate(-156.46 267.87) rotate(-30)"/><rect class="cls-9" x="441.75" y="338.83" width="16.33" height="141.45" transform="translate(-144.5 279.83) rotate(-30)"/><rect class="cls-9" x="470.04" y="322.5" width="16.33" height="141.45" transform="translate(-132.54 291.79) rotate(-30)"/><polygon class="cls-9" points="464.06 752.56 449.92 760.73 449.92 491.23 464.06 483.06 464.06 752.56"/><polygon class="cls-9" points="492.35 711.73 478.21 719.9 478.21 474.89 492.35 466.72 492.35 711.73"/><polygon class="cls-9" points="520.64 719.9 506.5 728.06 506.5 458.56 520.64 450.39 520.64 719.9"/><line class="cls-10" x1="435.77" y1="785.23" x2="336.75" y2="728.06"/><line class="cls-10" x1="435.77" y1="785.23" x2="435.77" y2="499.39"/><line class="cls-10" x1="449.92" y1="491.23" x2="435.77" y2="499.39"/><line class="cls-10" x1="478.21" y1="474.89" x2="464.06" y2="483.06"/><line class="cls-10" x1="506.5" y1="458.56" x2="492.35" y2="466.72"/><line class="cls-10" x1="534.79" y1="442.22" x2="520.64" y2="450.39"/><line class="cls-10" x1="336.75" y1="728.06" x2="336.75" y2="353.22"/><line class="cls-10" x1="357.97" y1="364.64" x2="336.75" y2="353.22"/><line class="cls-10" x1="435.77" y1="499.39" x2="357.97" y2="364.64"/><line class="cls-10" x1="336.75" y1="353.22" x2="435.77" y2="295.22"/><line class="cls-10" x1="357.97" y1="364.64" x2="456.99" y2="307.47"/><line class="cls-10" x1="435.77" y1="295.22" x2="456.99" y2="307.47"/><line class="cls-10" x1="456.99" y1="307.47" x2="534.79" y2="442.22"/><line class="cls-10" x1="534.79" y1="442.22" x2="534.79" y2="728.06"/><line class="cls-10" x1="435.77" y1="785.23" x2="534.79" y2="728.06"/><line class="cls-10" x1="449.92" y1="491.22" x2="449.92" y2="760.73"/><line class="cls-10" x1="464.06" y1="752.56" x2="449.92" y2="760.73"/><line class="cls-10" x1="464.06" y1="752.56" x2="464.06" y2="483.06"/><line class="cls-10" x1="449.92" y1="491.22" x2="379.19" y2="368.72"/><line class="cls-10" x1="393.33" y1="360.56" x2="379.19" y2="368.72"/><line class="cls-10" x1="464.06" y1="483.06" x2="393.33" y2="360.56"/><line class="cls-10" x1="449.92" y1="327.89" x2="435.77" y2="336.05"/><line class="cls-10" x1="520.64" y1="450.39" x2="449.92" y2="327.89"/><line class="cls-10" x1="506.5" y1="458.56" x2="435.77" y2="336.05"/><line class="cls-10" x1="520.64" y1="450.39" x2="520.64" y2="719.9"/><line class="cls-10" x1="506.5" y1="458.56" x2="506.5" y2="728.06"/><line class="cls-10" x1="506.5" y1="728.06" x2="520.64" y2="719.9"/><line class="cls-10" x1="478.21" y1="736.23" x2="478.21" y2="760.73"/><line class="cls-10" x1="492.35" y1="752.56" x2="492.35" y2="728.06"/><line class="cls-10" x1="478.21" y1="736.23" x2="492.35" y2="728.06"/><line class="cls-10" x1="492.35" y1="711.73" x2="478.21" y2="719.9"/><line class="cls-10" x1="492.35" y1="711.73" x2="492.35" y2="466.72"/><line class="cls-10" x1="478.21" y1="719.9" x2="478.21" y2="474.89"/><line class="cls-10" x1="492.35" y1="466.72" x2="421.63" y2="344.22"/><line class="cls-10" x1="478.21" y1="474.89" x2="407.48" y2="352.39"/><line class="cls-10" x1="421.63" y1="344.22" x2="407.48" y2="352.39"/><polygon class="cls-2" points="1098.38 620.41 1012.21 670.16 926.04 620.41 926.04 288.76 940.4 280.47 940.4 239.01 969.12 222.43 969.12 214.14 997.85 197.55 1012.21 180.97 1026.57 197.55 1055.29 214.14 1055.29 222.43 1084.01 239.01 1084.01 280.47 1098.37 288.76 1098.38 620.41"/><polygon class="cls-28" points="1012.21 670.16 926.04 620.41 926.04 288.76 1012.21 338.51 1012.21 670.16"/><polygon class="cls-29" points="940.4 239.01 940.4 288.76 1012.21 330.21 1012.21 280.47 940.4 239.01"/><polygon class="cls-30" points="1012.21 263.88 969.12 239.01 969.12 214.14 1012.21 239.01 1012.21 263.88"/><polygon class="cls-9" points="1012.21 222.43 1002.63 222.43 989.39 214.78 1001.44 207.92 997.85 214.14 1012.21 222.43"/><polygon class="cls-31" points="997.85 214.14 997.85 197.55 1012.21 180.97 1012.21 205.84 1012.21 222.43 997.85 214.14"/><line class="cls-20" x1="1012.21" y1="653.58" x2="990.91" y2="641"/><line class="cls-20" x1="947.59" y1="616.22" x2="926.04" y2="603.79"/><polygon class="cls-9" points="969.12 230.72 954.76 239.01 997.85 263.88 1012.21 263.88 969.12 239.01 969.12 230.72"/><polygon class="cls-9" points="940.4 280.47 926.04 288.76 997.85 330.21 1012.21 330.21 940.4 288.76 940.4 280.47"/><line class="cls-10" x1="1012.21" y1="222.42" x2="1012.21" y2="180.97"/><line class="cls-10" x1="1012.21" y1="263.88" x2="1012.21" y2="239.01"/><line class="cls-10" x1="1012.21" y1="330.21" x2="1012.21" y2="280.47"/><line class="cls-10" x1="1012.21" y1="670.16" x2="1012.21" y2="338.51"/><line class="cls-10" x1="1012.21" y1="670.16" x2="1098.38" y2="620.41"/><line class="cls-10" x1="1012.21" y1="670.16" x2="926.04" y2="620.41"/><line class="cls-10" x1="1098.38" y1="620.41" x2="1098.37" y2="288.76"/><line class="cls-10" x1="926.04" y1="620.41" x2="926.04" y2="288.76"/><line class="cls-10" x1="1012.21" y1="338.51" x2="1098.37" y2="288.76"/><line class="cls-10" x1="1012.21" y1="338.51" x2="926.04" y2="288.76"/><line class="cls-10" x1="940.4" y1="288.76" x2="1012.21" y2="330.21"/><line class="cls-10" x1="1084.01" y1="288.76" x2="1012.21" y2="330.21"/><line class="cls-10" x1="1098.37" y1="288.76" x2="1084.01" y2="280.47"/><line class="cls-10" x1="926.04" y1="288.76" x2="940.4" y2="280.47"/><line class="cls-10" x1="1084.01" y1="288.76" x2="1084.01" y2="239.01"/><line class="cls-10" x1="1084.01" y1="239.01" x2="1012.21" y2="280.47"/><line class="cls-10" x1="940.4" y1="239.01" x2="1012.21" y2="280.47"/><line class="cls-10" x1="1055.29" y1="239.01" x2="1055.29" y2="214.14"/><line class="cls-10" x1="1012.21" y1="263.88" x2="1055.29" y2="239.01"/><line class="cls-10" x1="969.12" y1="239.01" x2="1012.21" y2="263.88"/><line class="cls-10" x1="940.4" y1="239.01" x2="969.12" y2="222.42"/><line class="cls-10" x1="1084.01" y1="239.01" x2="1055.29" y2="222.43"/><line class="cls-10" x1="969.12" y1="239.01" x2="969.12" y2="214.14"/><line class="cls-10" x1="940.4" y1="288.76" x2="940.4" y2="239.01"/><line class="cls-10" x1="1012.21" y1="239.01" x2="1055.29" y2="214.14"/><line class="cls-10" x1="969.12" y1="214.14" x2="1012.21" y2="239.01"/><line class="cls-10" x1="969.12" y1="214.14" x2="997.85" y2="197.55"/><line class="cls-10" x1="1012.21" y1="222.43" x2="997.85" y2="214.14"/><line class="cls-10" x1="997.85" y1="197.55" x2="997.85" y2="214.14"/><line class="cls-10" x1="1012.21" y1="222.43" x2="1026.57" y2="214.14"/><line class="cls-10" x1="1026.57" y1="214.14" x2="1026.57" y2="197.55"/><line class="cls-10" x1="997.85" y1="197.55" x2="1012.21" y2="205.84"/><line class="cls-10" x1="1026.57" y1="197.55" x2="1012.21" y2="205.84"/><line class="cls-10" x1="997.85" y1="197.55" x2="1012.21" y2="180.97"/><line class="cls-10" x1="1026.57" y1="197.55" x2="1012.21" y2="180.97"/><line class="cls-10" x1="1012.21" y1="180.97" x2="1012.21" y2="139.51"/><line class="cls-10" x1="1055.29" y1="214.14" x2="1026.57" y2="197.55"/><polygon class="cls-10" points="1033.75 641.14 1012.21 653.58 1012.21 355.09 1033.75 342.65 1033.75 641.14"/><polygon class="cls-10" points="1062.47 624.56 1048.11 632.85 1048.11 334.36 1062.47 326.07 1062.47 624.56"/><polygon class="cls-10" points="1098.38 603.83 1076.83 616.27 1076.83 317.78 1098.38 305.34 1098.38 603.83"/><line class="cls-20" x1="990.91" y1="641" x2="990.91" y2="343.15"/><line class="cls-20" x1="976.31" y1="632.85" x2="961.94" y2="624.56"/><line class="cls-20" x1="961.94" y1="624.56" x2="961.94" y2="326.07"/><path class="cls-32" d="M1244.91,222.51c4.8,2.77,11.8-.12,11.8-9.12a29.44,29.44,0,0,0-15.33-25.31c0-23.63-14.63-33.47-19-36a13.47,13.47,0,0,0-7.73-2.11c0-6.12-4.57-27.63-24.47-36.28-13.55-5.89-25.45,3.38-25.45,13.78,0,0-3.38-2.94-6.32-3.09-7.11-.36-14.78,6.6-14.78,21.09,0,13.26,5.4,21.7,9.42,24Z"/><path class="cls-10" d="M1169.67,116.52a11.6,11.6,0,0,0-2.88,1.14"/><path class="cls-10" d="M1266.94,214.21c2.35-1.5,4.1-4.47,4.1-9a29.44,29.44,0,0,0-15.33-25.31c0-23.63-14.63-33.47-19-36a13.47,13.47,0,0,0-7.73-2.11c0-6.12-4.57-27.63-24.47-36.28-6.22-2.7-12.09-2.21-16.63.11"/><line class="cls-10" x1="1241.6" y1="188.09" x2="1255.73" y2="179.93"/><line class="cls-10" x1="1214.66" y1="149.96" x2="1228.81" y2="141.79"/><line class="cls-10" x1="1252.14" y1="222.64" x2="1266.94" y2="214.21"/><line class="cls-10" x1="1166.79" y1="117.67" x2="1152.47" y2="125.81"/><line class="cls-10" x1="1187.89" y1="105.64" x2="1172.67" y2="114.28"/><path class="cls-10" d="M432.66,101c-5.25-2.78-13.06-3.6-21.56,1.34-19.49,11.31-29,32.09-29,47.27-13.77,8.29-23.72,21.28-23.72,36.53a17.17,17.17,0,0,0,7.83,14.46"/><path class="cls-10" d="M464.23,101.11a15.84,15.84,0,0,0-15.5.42,36.23,36.23,0,0,0-6.57,4.88"/><path class="cls-10" d="M489.1,161.16c8.51-4.92,17.65-13.9,17.65-25.92,0-11.56-8.75-14.8-13.52-12.1-1.94,1.1-4.45,2.65-4.45,2.65s0-1.22,0-4.46c0-8.85-11.92-15.17-21.91-9.37a32.93,32.93,0,0,0-9.33,7.86c0-6.25-13-16-28.31-7.1-19.49,11.31-29,32.09-29,47.27-13.77,8.29-23.72,21.28-23.72,36.53,0,12.56,13.31,21.94,26.31,14.43Z"/><line class="cls-10" x1="400.26" y1="160" x2="382.14" y2="149.56"/><line class="cls-10" x1="486.55" y1="115.05" x2="501.54" y2="123.69"/><line class="cls-10" x1="482.78" y1="111.79" x2="464.23" y2="101.11"/><line class="cls-10" x1="451.26" y1="111.66" x2="432.65" y2="100.96"/><line class="cls-10" x1="384.3" y1="210.94" x2="366.25" y2="200.55"/><path class="cls-10" d="M311.47,161.23c5.8-3.35,12-9.47,12-17.67,0-7.88-6-10.09-9.21-8.25-1.32.75-3,1.81-3,1.81s0-.83,0-3c0-6-8.13-10.34-14.94-6.39a22.45,22.45,0,0,0-6.36,5.36c0-4.26-8.89-10.88-19.3-4.84-13.29,7.71-19.74,21.88-19.74,32.22-9.39,5.65-16.17,14.5-16.17,24.9,0,8.56,9.08,15,17.94,9.84Z"/><path class="cls-10" d="M288.42,116.82a10.82,10.82,0,0,0-10.24.45,24.69,24.69,0,0,0-4.5,3.35"/><path class="cls-10" d="M266.9,116.71c-3.57-1.76-8.75-2.19-14.38,1.07-13.29,7.71-19.74,21.88-19.74,32.22-9.39,5.65-16.17,14.5-16.17,24.9a11.71,11.71,0,0,0,4.92,9.57"/><line class="cls-10" x1="232.78" y1="150.01" x2="250.91" y2="160.44"/><line class="cls-10" x1="240.48" y1="195.44" x2="221.54" y2="184.48"/><line class="cls-10" x1="285.21" y1="127.24" x2="266.9" y2="116.72"/><line class="cls-10" x1="306.35" y1="127.16" x2="288.42" y2="116.82"/><line class="cls-10" x1="318.71" y1="135.07" x2="309.79" y2="129.89"/><polygon class="cls-2" points="1077.14 700.3 1082.51 697.2 1082.5 678.64 1120.02 700.3 1120.02 725.05 1162.9 749.81 1173.62 743.62 1184.34 749.81 1264.73 703.39 1264.73 610.56 1114.66 523.92 1034.27 570.33 1034.27 675.54 1077.14 700.3"/><polygon class="cls-33" points="1034.27 582.71 1034.27 675.54 1077.14 700.3 1077.14 675.54 1120.02 700.3 1120.02 725.05 1162.9 749.81 1162.9 656.98 1034.27 582.71"/><polygon class="cls-34" points="1184.34 749.81 1173.62 743.62 1173.62 650.79 1184.34 656.98 1184.34 749.81"/><polygon class="cls-35" points="1034.27 570.33 1034.27 582.71 1044.99 576.52 1034.27 570.33"/><polygon class="cls-9" points="1077.14 675.54 1077.14 700.3 1082.51 697.2 1082.5 678.64 1077.14 675.54"/><polygon class="cls-1" points="1152.18 632.22 1066.43 582.71 1066.43 557.96 1152.18 607.47 1152.18 632.22"/><g class="cls-36"><path class="cls-9" d="M1157.3,566.87c-5,.31-11.44-.31-16,1.87a8.81,8.81,0,0,0-4.55,4.79c-.44,1.12-1.76,4.08.47,1.73,1.81-1.92.36-1-1.29-1.12-5-.34-9.32-3.83-14.31-3.66a10.81,10.81,0,0,0-6.58,2.45c-.81.68-4.67,5-3.78,6.29-.31-.44,3.11-.63,2.3-1.79-.27-.38-2-.76-2.51-1a40,40,0,0,0-6.73-2.41c-4.58-1-9.55-.36-13.31,2.59a10.29,10.29,0,0,0-2.81,3c-1.39,2.62,1.13-.63,1.17-.33,0,0-6-1.06-6.74-1.2-5.5-1.06-10.79-1.56-16.23.09-9.05,2.74-5.19,17,3.92,14.21,8.37-2.54,17.32,4.67,25.45,0,1.87-1.07,2.8-3.4,4.47-4.39-.9.53,1.4.5,2.29.77,4.18,1.29,7.64,3.61,12.18,3.49a11,11,0,0,0,10-6.93c.53-1.28,1.89-3.52-.79-1-2.06,1.9-1.15,1.42,1,2.25a32.14,32.14,0,0,0,6.53,1.77c8.77,1.43,20-.77,19.41-12l-1,3.72q-3.55,2.54-.92,2l2.79-.17,5.57-.35c9.42-.59,9.49-15.33,0-14.74Z"/><path class="cls-9" d="M1161.24,588.61c-4.83.3-10.55-.11-15.2,1.26a13.14,13.14,0,0,0-7.6,5.51,10.7,10.7,0,0,0-1.66,3.47q-1,5.38.22,1l4-4c-.07.05,4.18.58-1.08,0a18.41,18.41,0,0,1-2.91-.55c-3.5-.95-6.5-2.86-10.22-3a14.68,14.68,0,0,0-8.87,2.31,14.34,14.34,0,0,0-4.69,5.1l-1.11,2.64q-1,2.8.49-.23l4.88-2.84c.85-.3,2.25,1-.39-.47a30.21,30.21,0,0,0-3.54-1.49,25.7,25.7,0,0,0-9.19-2c-7.66-.11-12.39,4.11-16.77,9.79l4-4q1.4-.89,1.88,0-1.67-.31-3.32-.67c-2.16-.44-4.31-.86-6.49-1.17a32,32,0,0,0-14.21.74c-13.58,4.11-7.79,25.46,5.88,21.31,5.42-1.64,11.15,1.42,16.62,1.7a18,18,0,0,0,9.7-2,14.51,14.51,0,0,0,5.06-4.77c1.73-3-2.12,2.24-2.16,1.13,0,.38-4.09-1.85,1,.39,1,.42,2,.78,2.94,1.17,3.14,1.29,6.15,2.42,9.61,2.49a14.81,14.81,0,0,0,10.15-3.73c2.57-2.34,3.34-5.74,4.81-8l-4,4q-7.4-.38-3.25,1,1.44.62,2.89,1.2a32.38,32.38,0,0,0,4.9,1.33,34.77,34.77,0,0,0,10.81.55c8.21-1,14.56-7.41,14.1-16l-1.51,5.58.54-.83-4,4c-3.78,1.66,1.09.63,2.11.56l5.57-.35c6-.37,11.05-4.81,11.05-11.05,0-5.69-5.06-11.43-11.05-11.05Z"/></g><polyline class="cls-10" points="1034.27 675.54 1077.14 700.3 1077.14 675.54 1120.02 700.3 1120.02 725.05 1162.9 749.81"/><line class="cls-10" x1="1173.62" y1="743.62" x2="1162.9" y2="749.81"/><line class="cls-10" x1="1184.34" y1="749.81" x2="1173.62" y2="743.62"/><line class="cls-10" x1="1173.62" y1="650.79" x2="1173.62" y2="743.62"/><line class="cls-10" x1="1184.34" y1="749.81" x2="1264.73" y2="703.39"/><line class="cls-10" x1="1162.9" y1="749.81" x2="1162.9" y2="656.98"/><line class="cls-10" x1="1184.34" y1="749.81" x2="1184.34" y2="656.98"/><line class="cls-10" x1="1034.27" y1="675.54" x2="1034.27" y2="570.33"/><line class="cls-10" x1="1034.27" y1="582.71" x2="1044.99" y2="576.52"/><line class="cls-10" x1="1034.27" y1="582.71" x2="1034.27" y2="582.71"/><line class="cls-10" x1="1162.9" y1="656.98" x2="1173.62" y2="650.79"/><line class="cls-10" x1="1184.34" y1="656.98" x2="1173.62" y2="650.79"/><line class="cls-10" x1="1264.73" y1="703.39" x2="1264.73" y2="610.56"/><line class="cls-10" x1="1184.34" y1="656.98" x2="1264.73" y2="610.56"/><line class="cls-10" x1="1162.9" y1="656.98" x2="1034.27" y2="582.71"/><line class="cls-10" x1="1044.99" y1="576.52" x2="1034.27" y2="570.33"/><line class="cls-10" x1="1034.27" y1="570.33" x2="1114.66" y2="523.92"/><line class="cls-10" x1="1264.73" y1="610.56" x2="1114.66" y2="523.92"/><line class="cls-10" x1="1066.43" y1="588.9" x2="1066.43" y2="557.96"/><line class="cls-10" x1="1152.18" y1="607.47" x2="1066.43" y2="557.96"/><line class="cls-10" x1="1152.18" y1="607.47" x2="1152.18" y2="638.41"/><line class="cls-10" x1="1152.18" y1="632.22" x2="1066.43" y2="582.71"/><polyline class="cls-10" points="1077.14 700.3 1082.51 697.2 1082.5 678.64"/><polygon class="cls-12" points="1114.66 691.02 1082.51 672.45 1082.51 660.07 1114.66 678.64 1114.66 691.02"/><polygon class="cls-2" points="1316.39 751.59 1304.06 758.71 1297.89 733.78 1310.23 726.65 1316.39 751.59"/><polygon class="cls-2" points="1297.89 741.54 1242.36 772.57 1211.51 755.15 1211.51 705.28 1267.04 673.23 1297.89 691.03 1310.23 705.28 1310.23 712.41 1297.89 719.53 1297.89 741.54"/><polygon class="cls-37" points="1297.89 712.41 1285.55 698.16 1291.72 694.6 1304.06 708.85 1297.89 712.41"/><polygon class="cls-38" points="1285.55 719.53 1273.21 705.28 1279.38 701.72 1291.72 715.97 1285.55 719.53"/><polygon class="cls-39" points="1273.21 726.65 1260.87 712.41 1267.04 708.85 1279.38 723.09 1273.21 726.65"/><polygon class="cls-40" points="1260.87 733.78 1248.53 719.53 1254.7 715.97 1267.04 730.22 1260.87 733.78"/><polygon class="cls-41" points="1304.06 708.85 1304.06 715.97 1297.89 719.53 1297.89 712.41 1304.06 708.85"/><polygon class="cls-42" points="1291.72 715.97 1291.72 723.09 1285.55 726.65 1285.55 719.53 1291.72 715.97"/><polygon class="cls-43" points="1279.38 723.09 1279.38 730.22 1273.21 733.78 1273.21 726.65 1279.38 723.09"/><polygon class="cls-44" points="1267.04 730.22 1267.04 737.34 1260.87 740.9 1260.87 733.78 1267.04 730.22"/><polygon class="cls-45" points="1211.51 705.28 1211.51 755.15 1242.36 772.57 1242.36 723.09 1211.51 705.28"/><polygon class="cls-9" points="1279.38 751.59 1260.87 740.9 1260.87 761.88 1279.38 751.59"/><line class="cls-10" x1="1211.51" y1="705.28" x2="1211.51" y2="755.15"/><line class="cls-10" x1="1242.36" y1="772.96" x2="1211.51" y2="755.15"/><polygon class="cls-9" points="1242.36 758.84 1260.87 747.83 1260.87 740.51 1254.53 744.17 1254.7 737.34 1242.36 723.09 1242.36 758.84"/><polygon class="cls-46" points="1279.38 751.59 1260.87 740.9 1279.38 730.22 1279.38 751.59"/><polygon class="cls-9" points="1279.38 730.22 1279.38 737.34 1291.72 730.22 1297.89 719.53 1279.38 730.22"/><line class="cls-10" x1="1242.36" y1="723.09" x2="1211.51" y2="705.28"/><line class="cls-10" x1="1242.36" y1="772.96" x2="1242.36" y2="723.09"/><line class="cls-10" x1="1211.51" y1="705.28" x2="1267.04" y2="673.23"/><line class="cls-10" x1="1297.89" y1="691.04" x2="1267.04" y2="673.23"/><line class="cls-10" x1="1242.36" y1="723.09" x2="1297.89" y2="691.04"/><line class="cls-10" x1="1297.89" y1="740.9" x2="1242.36" y2="772.96"/><line class="cls-10" x1="1297.89" y1="719.53" x2="1297.89" y2="740.9"/><line class="cls-10" x1="1242.36" y1="723.09" x2="1254.7" y2="737.34"/><line class="cls-10" x1="1297.89" y1="691.04" x2="1310.23" y2="705.28"/><line class="cls-10" x1="1310.23" y1="705.28" x2="1310.23" y2="712.41"/><line class="cls-10" x1="1254.7" y1="737.34" x2="1254.7" y2="744.47"/><line class="cls-10" x1="1310.23" y1="712.41" x2="1254.7" y2="744.47"/><line class="cls-10" x1="1260.87" y1="761.88" x2="1260.87" y2="740.9"/><polygon class="cls-10" points="1297.89 733.78 1304.06 758.71 1316.39 751.59 1310.23 726.65 1297.89 733.78"/><polygon class="cls-9" points="1303.05 736.37 1306.78 751.59 1311.27 749 1307.54 733.78 1303.05 736.37"/><polygon class="cls-47" points="1291.72 751.59 1297.89 733.78 1300.97 746.25 1291.72 751.59"/><polygon class="cls-2" points="888.57 816.88 789.86 873.69 703.48 823.81 703.48 681.33 728.16 667.08 728.16 659.96 802.2 617.21 863.89 652.83 863.89 659.96 888.57 674.21 888.57 816.88"/><polygon class="cls-48" points="789.86 873.69 703.48 823.81 703.48 681.33 789.86 731.2 789.86 873.69"/><polygon class="cls-49" points="789.86 716.88 728.16 681.33 728.16 659.96 789.86 695.58 789.86 716.88"/><polygon class="cls-9" points="789.86 716.88 777.99 716.88 716.07 681.18 728.16 674.21 728.16 681.33 789.86 716.88"/><polyline class="cls-10" points="703.48 823.81 789.88 873.69 888.91 816.88"/><polyline class="cls-10" points="728.16 667.08 703.48 681.33 789.86 731.2 888.57 674.21 863.89 659.96"/><line class="cls-10" x1="789.86" y1="731.2" x2="789.86" y2="873.69"/><line class="cls-10" x1="888.57" y1="674.21" x2="888.57" y2="816.88"/><line class="cls-10" x1="703.48" y1="681.33" x2="703.48" y2="823.81"/><polyline class="cls-10" points="728.16 681.33 789.86 716.88 863.89 674.21"/><polygon class="cls-10" points="728.16 659.96 789.86 695.58 863.89 652.83 802.2 617.21 728.16 659.96"/><line class="cls-10" x1="728.16" y1="659.96" x2="728.16" y2="681.33"/><line class="cls-10" x1="863.89" y1="674.21" x2="863.89" y2="652.83"/><line class="cls-10" x1="789.86" y1="716.88" x2="789.86" y2="695.58"/><polygon class="cls-2" points="1037.37 885.12 1009.6 901.15 1009.59 909.23 1002.67 913.16 995.73 909.16 974.91 921.18 974.92 929.19 967.98 933.2 961.04 929.19 926.34 949.22 822.25 889.13 822.25 776.95 843.07 764.93 843.07 692.82 856.95 684.8 856.95 468.31 870.83 460.3 870.83 452.44 926.34 420.38 981.85 452.44 981.85 460.3 995.73 468.31 995.73 684.8 1009.61 692.82 1009.56 756.89 1036.93 772.69 1037.37 885.12"/><polygon class="cls-50" points="856.95 468.31 856.95 692.82 926.34 732.88 926.34 508.38 856.95 468.31"/><polygon class="cls-51" points="843.07 692.82 843.07 772.94 926.34 821.02 926.34 740.89 843.07 692.82"/><polygon class="cls-52" points="822.25 776.95 822.25 889.13 926.34 949.22 926.34 837.04 822.25 776.95"/><polygon class="cls-53" points="870.83 452.44 870.83 468.46 926.34 500.51 926.34 484.49 870.83 452.44"/><polygon class="cls-54" points="926.34 436.41 926.34 444.42 947.09 456.4 954.13 452.44 926.34 436.41"/><polygon class="cls-9" points="961.03 889.13 954.11 901.15 954.11 933.2 967.98 933.2 961.03 889.13"/><polygon class="cls-55" points="967.96 893.14 961.03 889.13 961.04 929.19 967.98 933.2 967.96 893.14"/><polygon class="cls-56" points="1002.67 881.12 995.73 885.12 995.73 909.16 1002.67 913.16 1002.67 881.12"/><line class="cls-10" x1="1009.61" y1="692.82" x2="995.73" y2="684.8"/><polygon class="cls-9" points="974.91 921.18 995.73 909.16 995.73 885.12 974.9 897.15 974.91 921.18"/><polygon class="cls-9" points="926.34 500.51 912.72 500.51 856.95 468.31 870.83 460.3 870.83 468.46 926.34 500.51"/><polygon class="cls-9" points="926.34 436.41 919.48 448.48 940.24 460.46 947.09 456.4 926.34 444.42 926.34 436.41"/><polygon class="cls-9" points="926.34 821.02 898.58 821.02 822.25 776.95 843.07 764.93 843.07 772.94 926.34 821.02"/><polygon class="cls-9" points="926.34 732.88 912.46 732.88 843.07 692.82 856.95 684.8 856.95 692.82 926.34 732.88"/><polyline class="cls-10" points="843.07 764.93 822.25 776.95 926.34 837.04 1036.93 772.69 1009.56 756.89"/><line class="cls-10" x1="1009.6" y1="901.15" x2="1037.37" y2="885.12"/><polyline class="cls-10" points="822.25 889.13 926.34 949.22 961.04 929.19"/><polyline class="cls-10" points="843.07 772.94 926.34 821.02 1009.61 772.94"/><polyline class="cls-10" points="843.07 692.82 926.34 740.89 1009.61 692.82"/><line class="cls-10" x1="822.25" y1="776.95" x2="822.25" y2="889.13"/><line class="cls-10" x1="1036.93" y1="772.69" x2="1037.37" y2="885.12"/><line class="cls-10" x1="926.34" y1="837.04" x2="926.34" y2="949.22"/><line class="cls-10" x1="843.07" y1="772.94" x2="843.07" y2="692.82"/><line class="cls-10" x1="1009.61" y1="772.94" x2="1009.61" y2="692.82"/><line class="cls-10" x1="926.34" y1="740.89" x2="926.34" y2="821.02"/><line class="cls-10" x1="856.95" y1="684.8" x2="843.07" y2="692.82"/><line class="cls-10" x1="926.34" y1="732.88" x2="856.95" y2="692.82"/><line class="cls-10" x1="995.73" y1="692.82" x2="926.34" y2="732.88"/><line class="cls-10" x1="856.95" y1="692.82" x2="856.95" y2="468.31"/><line class="cls-10" x1="995.73" y1="692.82" x2="995.73" y2="468.31"/><line class="cls-10" x1="926.34" y1="732.88" x2="926.34" y2="508.38"/><line class="cls-10" x1="926.34" y1="508.38" x2="995.73" y2="468.31"/><line class="cls-10" x1="926.34" y1="508.38" x2="856.95" y2="468.31"/><line class="cls-10" x1="995.73" y1="468.31" x2="981.85" y2="460.3"/><line class="cls-10" x1="856.95" y1="468.31" x2="870.83" y2="460.3"/><polygon class="cls-10" points="940.32 508.45 940.32 524.25 981.93 500.49 981.93 484.46 940.32 508.45"/><polygon class="cls-10" points="940.22 532.26 940.22 548.29 981.77 524.66 981.77 508.41 940.22 532.26"/><polygon class="cls-10" points="940.22 556.35 940.22 572.37 981.93 548.57 981.93 532.3 940.22 556.35"/><polygon class="cls-10" points="940.22 580.43 940.22 596.45 981.93 572.64 981.93 556.61 940.22 580.43"/><polygon class="cls-10" points="940.22 604.51 940.22 620.53 981.77 596.58 981.77 580.55 940.22 604.51"/><polygon class="cls-10" points="940.22 628.59 940.22 644.61 981.93 620.72 981.93 604.69 940.22 628.59"/><polygon class="cls-10" points="940.22 652.67 940.22 668.69 981.93 644.66 981.93 628.63 940.22 652.67"/><polygon class="cls-10" points="940.22 676.75 940.22 692.77 981.93 668.76 981.93 652.73 940.22 676.75"/><polygon class="cls-10" points="940.22 700.83 940.22 716.86 981.93 692.84 981.93 676.81 940.22 700.83"/><polyline class="cls-20" points="912.48 524.44 870.82 500.47 870.82 484.44"/><polyline class="cls-20" points="912.58 548.48 870.98 524.63 870.98 508.38"/><polyline class="cls-20" points="912.58 572.56 870.82 548.54 870.82 532.27"/><polyline class="cls-20" points="912.58 596.64 870.82 572.62 870.82 556.59"/><polyline class="cls-20" points="912.58 620.72 870.98 596.56 870.98 580.53"/><polyline class="cls-20" points="912.58 644.8 870.82 620.69 870.82 604.67"/><polyline class="cls-20" points="912.58 668.88 870.82 644.63 870.82 628.61"/><polyline class="cls-20" points="912.58 692.96 870.82 668.74 870.82 652.71"/><polyline class="cls-20" points="912.58 717.04 870.82 692.82 870.82 676.79"/><polygon class="cls-10" points="940.22 740.92 940.22 756.95 995.77 724.9 995.77 708.87 940.22 740.92"/><polygon class="cls-10" points="940.22 764.93 940.22 780.9 995.77 748.85 995.77 732.88 940.22 764.93"/><polygon class="cls-10" points="940.22 789 940.22 804.97 995.77 772.91 995.77 756.95 940.22 789"/><polyline class="cls-20" points="912.49 756.95 856.98 724.87 856.98 708.84"/><polyline class="cls-20" points="912.49 780.9 856.98 748.82 856.98 732.85"/><polyline class="cls-20" points="912.49 804.97 856.98 772.89 856.98 756.92"/><polygon class="cls-10" points="870.83 468.46 926.34 500.51 981.85 468.46 981.85 452.44 926.34 484.49 870.83 452.44 870.83 468.46"/><line class="cls-10" x1="926.34" y1="420.39" x2="981.85" y2="452.44"/><line class="cls-10" x1="870.83" y1="452.44" x2="926.34" y2="420.39"/><line class="cls-10" x1="898.58" y1="452.44" x2="926.34" y2="468.46"/><line class="cls-10" x1="954.13" y1="452.44" x2="926.34" y2="468.46"/><line class="cls-10" x1="926.34" y1="436.41" x2="954.13" y2="452.44"/><line class="cls-10" x1="898.58" y1="452.44" x2="926.34" y2="436.41"/><line class="cls-10" x1="926.34" y1="444.42" x2="926.34" y2="436.41"/><line class="cls-10" x1="947.09" y1="456.4" x2="926.34" y2="444.42"/><line class="cls-10" x1="905.46" y1="456.48" x2="926.34" y2="444.42"/><line class="cls-10" x1="926.34" y1="500.51" x2="926.34" y2="484.49"/><line class="cls-10" x1="1009.59" y1="909.23" x2="1009.67" y2="869.03"/><line class="cls-10" x1="961.04" y1="929.19" x2="961.03" y2="889.13"/><line class="cls-10" x1="1002.76" y1="864.95" x2="961.03" y2="889.13"/><line class="cls-10" x1="1002.76" y1="864.95" x2="1009.61" y2="869.1"/><line class="cls-10" x1="1002.67" y1="913.17" x2="1009.59" y2="909.23"/><line class="cls-10" x1="995.73" y1="909.16" x2="1002.67" y2="913.17"/><line class="cls-10" x1="1002.67" y1="881.12" x2="1002.67" y2="913.17"/><line class="cls-10" x1="974.9" y1="897.15" x2="1002.67" y2="881.12"/><line class="cls-10" x1="1009.67" y1="869.03" x2="967.96" y2="893.14"/><line class="cls-10" x1="967.98" y1="933.2" x2="961.04" y2="929.19"/><line class="cls-10" x1="974.92" y1="929.19" x2="967.98" y2="933.2"/><line class="cls-10" x1="974.9" y1="897.15" x2="974.91" y2="929.19"/><line class="cls-10" x1="967.96" y1="893.14" x2="961.03" y2="889.13"/><line class="cls-10" x1="967.98" y1="933.2" x2="967.96" y2="893.14"/><line class="cls-10" x1="995.73" y1="909.16" x2="995.73" y2="885.12"/><polygon class="cls-2" points="66.99 761.23 170.05 820.73 273.11 761.23 273.11 553.02 170.19 493.39 66.99 552.85 66.99 761.23"/><polygon class="cls-57" points="170.05 820.73 66.99 761.23 66.99 553.02 170.05 612.47 170.05 820.73"/><polygon class="cls-9" points="163.61 512.06 247.42 560.45 253.87 556.74 170.05 508.34 163.61 512.06"/><polygon class="cls-9" points="170.05 500.9 163.61 512.06 170.05 508.34 170.05 500.9"/><polygon class="cls-58" points="170.05 500.9 170.05 508.34 253.87 556.74 260.32 553.02 170.05 500.9"/><polygon class="cls-2" points="92.76 738.92 144.29 768.79 144.28 612.47 92.8 582.75 92.76 738.92"/><g class="cls-59"><path class="cls-9" d="M77.19,614c3,2.84,8.24,6.27,10.05,9.94l-1-3.72-.14,1.18,2.16-5.21c-9,9.65-.68,19.78,8.77,24.88a45.86,45.86,0,0,0,6.83,3c.1,0,3.51,1.3,3.74,1.13-.76.55-.24-5.26-2.12-1.28-2.3,4.86-.29,10.35,3.59,13.66s9,3.83,13.57,5.77c1.69.72,2.74,1.32,3.06,3,.47,2.48,0,4.76,1.17,7.2,4.55,9.26,17.21,9.41,22.51,17.83,5,8,17.8.62,12.72-7.44a34.61,34.61,0,0,0-12.3-11.34c-2.16-1.27-4.41-2.37-6.6-3.59-.69-.39-2.87-1.29-3.27-2.12.5,1,.53-1.55.51-1.94-.19-5.67-3.88-10.53-8.57-13.43a33.4,33.4,0,0,0-7.39-3.1c-1.48-.48-3.09-.81-4.53-1.41l-.86-.35q-1.08-.5-.13-.22v3.92c.43-2.43,1.83-4.45,2-7A10.79,10.79,0,0,0,118.1,635c-3.86-4.14-9.6-4.35-14.34-7a25.47,25.47,0,0,1-3.18-2.09,13.71,13.71,0,0,1-1.69-1.49l-.22,2.23c.25.29,2-3.94,2-4.23a9.32,9.32,0,0,0,0-4.12c-1.47-5.84-9-10.75-13.1-14.69C80.75,597,70.31,607.41,77.19,614Z"/><path class="cls-9" d="M74.59,666.07c2.71,2.58,8.15,6.52,9.48,9.2l-1.51-5.58-.14,1.18,3.24-7.82c-7.26,7.77-6.28,17.8,1.4,24.92a40.86,40.86,0,0,0,10.24,6.81,54.22,54.22,0,0,0,5.59,2.28c.86.29,2.65,1,2.63,1l-2.84-4.88q1.21-6.45-.74-.79a4.71,4.71,0,0,0-.62,1.89,14,14,0,0,0,0,7.11,16.86,16.86,0,0,0,7.42,10,37.62,37.62,0,0,0,9.36,3.83,16.82,16.82,0,0,0,3.29,1c-3.09-.16,4.37,1.72,1-.26q-.38-2-.36.57a8.31,8.31,0,0,0,.14,2.9,15.59,15.59,0,0,0,2.22,6.64,24.16,24.16,0,0,0,8.31,7.59c4.46,2.66,10.75,4.54,13.59,9,7.57,12,26.7.92,19.09-11.16a38.52,38.52,0,0,0-13.62-12.66c-2.16-1.27-4.41-2.37-6.6-3.59.19.11-2.6-1.48-2.53-1.54.29-.25,1.78,5.59,1.59.66-.27-7-4.54-13-10.4-16.61a38.14,38.14,0,0,0-8.27-3.47c-.23-.07-4.46-1.49-4.53-1.41.27-.31,2.44,7.76,1.58,2v5.88c.43-2.47,2-4.94,2.16-8a14.6,14.6,0,0,0-4-11c-4.25-4.47-10-4.73-15.08-7.61-.92-.52-1.87-1.4-2.81-1.8a13.52,13.52,0,0,1-1.32-1.2l-.22,7.44c1.62,0,2.86-5.39,3-6.35a12.44,12.44,0,0,0-.06-5.59c-1.84-6.7-9.24-11.74-14-16.31-10.3-9.81-26,5.8-15.63,15.63Z"/></g><line class="cls-10" x1="273.11" y1="761.23" x2="170.05" y2="820.73"/><line class="cls-10" x1="170.05" y1="820.73" x2="66.99" y2="761.23"/><line class="cls-10" x1="273.11" y1="761.23" x2="273.11" y2="553.02"/><line class="cls-10" x1="66.99" y1="761.23" x2="66.99" y2="552.85"/><line class="cls-10" x1="170.05" y1="820.73" x2="170.05" y2="612.47"/><line class="cls-10" x1="170.05" y1="612.47" x2="66.99" y2="552.85"/><line class="cls-10" x1="170.05" y1="612.47" x2="273.11" y2="553.02"/><line class="cls-10" x1="273.11" y1="553.02" x2="170.18" y2="493.39"/><line class="cls-10" x1="66.99" y1="552.85" x2="170.18" y2="493.39"/><line class="cls-10" x1="260.23" y1="552.97" x2="170.05" y2="605.03"/><line class="cls-10" x1="79.78" y1="553.02" x2="170.05" y2="605.03"/><line class="cls-10" x1="260.23" y1="552.97" x2="170.05" y2="500.9"/><line class="cls-10" x1="79.78" y1="553.02" x2="170.05" y2="500.9"/><line class="cls-10" x1="170.05" y1="508.34" x2="170.05" y2="500.9"/><line class="cls-10" x1="253.78" y1="556.69" x2="170.05" y2="508.34"/><line class="cls-10" x1="86.22" y1="556.74" x2="170.05" y2="508.34"/><line class="cls-10" x1="144.28" y1="612.47" x2="144.29" y2="768.79"/><line class="cls-10" x1="92.76" y1="738.92" x2="92.8" y2="582.75"/><line class="cls-10" x1="144.28" y1="612.47" x2="92.8" y2="582.75"/><line class="cls-10" x1="92.76" y1="738.92" x2="144.29" y2="768.79"/><polygon class="cls-12" points="189.37 653.38 195.81 649.66 195.81 619.91 189.37 623.63 189.37 653.38"/><polygon class="cls-12" points="202.26 645.94 208.7 642.22 208.7 612.47 202.26 616.19 202.26 645.94"/><polygon class="cls-12" points="189.37 698 195.81 694.29 195.81 664.53 189.37 668.25 189.37 698"/><polygon class="cls-12" points="202.26 690.57 208.7 686.85 208.7 657.1 202.26 660.82 202.26 690.57"/><polygon class="cls-12" points="189.37 742.63 195.81 738.91 195.81 709.16 189.37 712.88 189.37 742.63"/><polygon class="cls-12" points="202.26 735.19 208.7 731.47 208.7 701.72 202.26 705.44 202.26 735.19"/><polygon class="cls-12" points="189.37 787.25 195.81 783.54 195.81 753.78 189.37 757.5 189.37 787.25"/><polygon class="cls-12" points="202.26 779.82 208.7 776.1 208.7 746.35 202.26 750.07 202.26 779.82"/><polygon class="cls-12" points="234.42 627.35 240.86 623.63 240.86 593.88 234.42 597.6 234.42 627.35"/><polygon class="cls-12" points="247.31 619.91 253.75 616.19 253.75 586.44 247.31 590.16 247.31 619.91"/><polygon class="cls-12" points="234.42 671.97 240.86 668.25 240.86 638.5 234.42 642.22 234.42 671.97"/><polygon class="cls-12" points="247.31 664.53 253.75 660.82 253.75 631.07 247.31 634.78 247.31 664.53"/><polygon class="cls-12" points="234.42 716.6 240.86 712.88 240.86 683.13 234.42 686.85 234.42 716.6"/><polygon class="cls-12" points="247.31 709.16 253.75 705.44 253.75 675.69 247.31 679.41 247.31 709.16"/><polygon class="cls-12" points="234.42 761.22 240.86 757.5 240.86 727.75 234.42 731.47 234.42 761.22"/><polygon class="cls-12" points="247.31 753.79 253.75 750.07 253.75 720.32 247.31 724.03 247.31 753.79"/><path class="cls-2" d="M956.65,1027.09l37,21.37,123.39-71.24V934.48c1.12-14.9-3.4-23.41-11.41-28l-13.27-7.66c-10-5.55-20.35-3.8-30.85,3.56l-86.37,49.87c-10.85,4.3-18.26,13.3-18.51,32.06Z"/><path class="cls-60" d="M1007.69,976.25c-8,4.4-17.61,2.11-23.47-.7l-3.93-2.23c-10.56-6.79-10.78-17.78-5.13-21,0,0-11.51,5.34-15.16,14.25s-3.35,19.84-3.35,19.84l37,22S993.18,995,997,987.91A32.09,32.09,0,0,1,1007.69,976.25Z"/><polygon class="cls-61" points="956.65 984.35 993.66 1005.72 993.66 1048.46 956.65 1027.09 956.65 984.35"/><line class="cls-10" x1="993.67" y1="1048.46" x2="1117.06" y2="977.22"/><line class="cls-10" x1="956.65" y1="1027.09" x2="993.67" y2="1048.46"/><line class="cls-10" x1="956.65" y1="1027.09" x2="956.65" y2="984.35"/><line class="cls-10" x1="993.67" y1="1005.72" x2="993.67" y2="1048.46"/><path class="cls-10" d="M993.67,1005.72c0-13.24,4.46-23.95,12.34-28.5"/><path class="cls-10" d="M956.65,984.35c0-13.24,4.46-23.95,12.34-28.5"/><line class="cls-10" x1="1006" y1="977.22" x2="1110.89" y2="916.67"/><path class="cls-10" d="M1117.06,934.48c0-13.68-1.21-22.07-11.41-28l-13.27-7.66a25.12,25.12,0,0,0-24.68,0l-6.17,3.56L969,955.85"/><polyline class="cls-10" points="1117.06 934.48 1006 998.6 1006 991.47 1116.64 927.6"/><polyline class="cls-10" points="1098.55 959.41 1006 1012.84 1006 1019.97 1098.55 966.54"/><line class="cls-10" x1="1024.51" y1="987.91" x2="1024.51" y2="980.79"/><line class="cls-10" x1="1043.02" y1="970.1" x2="1043.02" y2="977.22"/><line class="cls-10" x1="1061.53" y1="959.41" x2="1061.53" y2="966.54"/><line class="cls-10" x1="1080.04" y1="948.73" x2="1080.04" y2="955.85"/><line class="cls-10" x1="1098.55" y1="938.04" x2="1098.55" y2="945.17"/><line class="cls-10" x1="1024.51" y1="1009.28" x2="1024.51" y2="1002.16"/><line class="cls-10" x1="1043.02" y1="991.47" x2="1043.02" y2="998.6"/><line class="cls-10" x1="1061.53" y1="980.79" x2="1061.53" y2="987.91"/><line class="cls-10" x1="1080.04" y1="970.1" x2="1080.04" y2="977.22"/><line class="cls-10" x1="1098.55" y1="959.41" x2="1098.55" y2="966.54"/><line class="cls-10" x1="1117.06" y1="934.48" x2="1117.06" y2="977.22"/><polyline class="cls-10" points="1117.06 948.73 1110.89 952.29 1110.89 966.54 1116.85 963.1"/><path class="cls-62" d="M1036.74,1021.89c0,2.39-1.27,8-5.29,10.28a4.46,4.46,0,0,1-4.1.3c-1.5-.7-2.64-2.43-2.64-5.35,0-3.87,2-8.76,5.47-10.75C1033.4,1014.51,1036.74,1016.77,1036.74,1021.89Z"/><path class="cls-9" d="M1032.56,1023.55a3.9,3.9,0,0,1-1.61,3.12c-.89.5-2,.09-2-1.53a4,4,0,0,1,1.66-3.26C1031.54,1021.31,1032.56,1022,1032.56,1023.55Z"/><line class="cls-63" x1="1024.28" y1="1030.79" x2="1027.36" y2="1032.46"/><line class="cls-64" x1="1024.72" y1="1027.11" x2="1024.72" y2="1031.02"/><path class="cls-65" d="M1096.89,987.3c0,2.39-1.27,8-5.29,10.28a4.46,4.46,0,0,1-4.1.3c-1.5-.7-2.64-2.43-2.64-5.35,0-3.87,2-8.76,5.47-10.75C1093.54,979.93,1096.89,982.18,1096.89,987.3Z"/><path class="cls-9" d="M1092.7,989a3.9,3.9,0,0,1-1.61,3.12c-.89.5-2,.09-2-1.53a4,4,0,0,1,1.66-3.26C1091.68,986.73,1092.7,987.41,1092.7,989Z"/><line class="cls-66" x1="1084.43" y1="996.2" x2="1087.5" y2="997.88"/><line class="cls-67" x1="1084.86" y1="992.53" x2="1084.86" y2="996.44"/><polygon class="cls-9" points="987.48 995.03 987.48 1030.65 962.8 1016.41 962.8 980.79 987.48 995.03"/><polygon class="cls-2" points="971.12 1030.06 979.16 1034.67 979.16 1030.93 971.12 1026.3 971.12 1030.06"/><path class="cls-2" d="M1203.72,782.21l18.51-10.69V746.59c-.91-10.57-4.2-14.83-9.25-14.41L1194.17,743q8.56-.65,9.55,14.26Z"/><path class="cls-68" d="M1191.38,775.08V750.51c0-6.76,3.22-9.08,6.17-7.38,3.88,2.24,6.17,7.38,6.17,14.14v24.93Z"/><line class="cls-10" x1="1203.72" y1="782.21" x2="1191.38" y2="775.08"/><line class="cls-10" x1="1222.23" y1="771.52" x2="1203.72" y2="782.21"/><line class="cls-10" x1="1212.67" y1="732.33" x2="1194.17" y2="743.01"/><line class="cls-10" x1="1191.38" y1="778.64" x2="1191.38" y2="750.15"/><line class="cls-10" x1="1203.72" y1="785.77" x2="1203.72" y2="757.27"/><line class="cls-10" x1="1222.23" y1="775.08" x2="1222.23" y2="746.59"/><path class="cls-10" d="M1191.38,750.51c0-6.76,3.22-9.08,6.17-7.38,3.88,2.24,6.17,7.38,6.17,14.14"/><path class="cls-10" d="M1212.67,732.33a3.28,3.28,0,0,1,3.39.12c3.88,2.24,6.17,7.38,6.17,14.14"/><line class="cls-10" x1="1209.89" y1="760.83" x2="1209.89" y2="771.52"/><line class="cls-10" x1="1216.06" y1="757.27" x2="1209.89" y2="760.83"/><line class="cls-10" x1="1216.06" y1="747.47" x2="1209.89" y2="751.04"/><line class="cls-10" x1="1216.06" y1="767.96" x2="1216.06" y2="757.27"/><line class="cls-10" x1="1209.89" y1="771.52" x2="1216.06" y2="767.96"/><polygon class="cls-2" points="592.67 567.38 618.79 552.3 618.79 529.67 631.86 522.13 631.86 514.59 665.34 495.26 671.05 439.16 676.77 495.26 710.24 514.59 710.24 522.13 723.31 529.67 723.31 552.3 749.43 567.38 749.43 884.17 671.05 929.43 592.67 884.17 592.67 567.38"/><polygon class="cls-9" points="618.79 552.3 592.67 567.38 644.92 597.55 671.05 597.55 618.79 567.38 618.79 552.3"/><polygon class="cls-9" points="631.86 522.13 618.79 529.67 657.94 552.27 671.05 552.27 631.86 529.67 631.86 522.13"/><polygon class="cls-9" points="631.86 514.59 665.34 495.26 664.52 503.27 671.05 507.05 671.05 537.22 631.86 514.59"/><polygon class="cls-69" points="618.79 529.67 618.79 567.38 671.05 597.55 671.05 559.84 618.79 529.67"/><polygon class="cls-70" points="631.86 514.59 631.86 529.67 671.05 552.3 671.05 537.22 631.86 514.59"/><path class="cls-71" d="M592.67,567.39V884.17l78.38,45.26V612.64Z"/><polygon class="cls-72" points="632.58 515 671.05 507.05 664.52 503.27 631.82 514.46 632.58 515"/><polygon class="cls-10" points="749.43 884.17 671.05 929.43 592.67 884.17 592.67 567.38 671.05 612.64 749.43 567.38 749.43 884.17"/><line class="cls-10" x1="671.05" y1="929.43" x2="671.05" y2="612.64"/><line class="cls-10" x1="618.79" y1="567.39" x2="671.05" y2="597.56"/><line class="cls-10" x1="723.31" y1="567.39" x2="671.05" y2="597.56"/><line class="cls-10" x1="592.67" y1="567.39" x2="618.79" y2="552.3"/><line class="cls-10" x1="749.43" y1="567.39" x2="723.31" y2="552.3"/><line class="cls-10" x1="618.79" y1="567.39" x2="618.79" y2="529.67"/><line class="cls-10" x1="723.31" y1="567.39" x2="723.31" y2="529.67"/><line class="cls-10" x1="671.05" y1="597.56" x2="671.05" y2="559.84"/><line class="cls-10" x1="671.05" y1="559.84" x2="618.79" y2="529.67"/><line class="cls-10" x1="723.31" y1="529.67" x2="671.05" y2="559.84"/><line class="cls-10" x1="671.05" y1="552.3" x2="710.24" y2="529.67"/><line class="cls-10" x1="631.86" y1="529.67" x2="671.05" y2="552.3"/><line class="cls-10" x1="631.86" y1="514.59" x2="631.86" y2="529.67"/><line class="cls-10" x1="710.24" y1="529.67" x2="710.24" y2="514.59"/><line class="cls-10" x1="618.79" y1="529.67" x2="631.86" y2="522.13"/><line class="cls-10" x1="723.31" y1="529.67" x2="710.24" y2="522.13"/><line class="cls-10" x1="710.24" y1="514.59" x2="671.05" y2="537.21"/><line class="cls-10" x1="631.86" y1="514.59" x2="671.05" y2="537.21"/><line class="cls-10" x1="710.24" y1="514.59" x2="676.77" y2="495.26"/><line class="cls-10" x1="671.05" y1="552.3" x2="671.05" y2="507.04"/><line class="cls-10" x1="664.52" y1="503.27" x2="671.05" y2="507.04"/><line class="cls-10" x1="631.86" y1="514.59" x2="664.52" y2="503.27"/><line class="cls-10" x1="710.24" y1="514.59" x2="677.58" y2="503.27"/><line class="cls-10" x1="671.05" y1="507.04" x2="677.58" y2="503.27"/><line class="cls-10" x1="631.86" y1="514.59" x2="665.34" y2="495.26"/><line class="cls-10" x1="664.52" y1="503.27" x2="671.05" y2="439.16"/><line class="cls-10" x1="677.58" y1="503.27" x2="671.05" y2="439.16"/><line class="cls-10" x1="729.84" y1="601.33" x2="690.65" y2="624.13"/><line class="cls-10" x1="690.65" y1="895.48" x2="729.84" y2="872.86"/><line class="cls-10" x1="710.24" y1="884.17" x2="710.39" y2="612.73"/><line class="cls-10" x1="690.65" y1="895.48" x2="690.65" y2="624.13"/><line class="cls-10" x1="690.65" y1="865.28" x2="729.84" y2="842.6"/><line class="cls-10" x1="690.65" y1="835.13" x2="729.84" y2="812.45"/><line class="cls-10" x1="690.65" y1="804.99" x2="729.84" y2="782.31"/><line class="cls-10" x1="690.65" y1="774.84" x2="729.84" y2="752.16"/><line class="cls-10" x1="690.65" y1="744.7" x2="729.84" y2="722.02"/><line class="cls-10" x1="690.65" y1="714.55" x2="729.84" y2="691.87"/><line class="cls-10" x1="690.78" y1="684.37" x2="729.84" y2="661.73"/><line class="cls-10" x1="690.65" y1="654.3" x2="729.84" y2="631.58"/><line class="cls-10" x1="729.84" y1="872.86" x2="729.84" y2="601.33"/><polygon class="cls-2" points="903.39 959.75 783.14 1029.18 688.66 974.63 688.66 855.62 808.91 786.19 903.39 840.74 903.39 959.75"/><polygon class="cls-73" points="860.45 845.7 808.91 815.95 808.91 806.03 869.03 840.74 860.45 845.7"/><polygon class="cls-74" points="783.14 1029.18 688.66 974.63 688.66 855.62 783.14 910.17 783.14 1029.18"/><polygon class="cls-75" points="817.5 850.66 792.04 835.78 791.73 845.7 817.5 860.58 817.5 850.66"/><polygon class="cls-9" points="817.5 860.58 811.75 860.58 787.25 846.29 791.73 843.58 791.73 845.7 817.5 860.58"/><polygon class="cls-9" points="808.91 806.03 800.48 820.82 852.01 850.57 860.68 845.57 808.91 815.95 808.91 806.03"/><line class="cls-10" x1="688.66" y1="974.63" x2="783.14" y2="1029.18"/><line class="cls-10" x1="903.39" y1="959.75" x2="783.14" y2="1029.18"/><line class="cls-10" x1="903.39" y1="840.74" x2="903.39" y2="959.75"/><line class="cls-10" x1="688.66" y1="855.62" x2="688.66" y2="974.63"/><line class="cls-10" x1="783.14" y1="1029.18" x2="783.14" y2="910.17"/><line class="cls-10" x1="688.66" y1="855.62" x2="783.14" y2="910.17"/><line class="cls-10" x1="903.39" y1="840.74" x2="783.14" y2="910.17"/><line class="cls-10" x1="688.66" y1="855.62" x2="808.91" y2="786.19"/><line class="cls-10" x1="903.39" y1="840.74" x2="808.91" y2="786.19"/><line class="cls-10" x1="783.14" y1="890.33" x2="723.02" y2="855.62"/><line class="cls-10" x1="808.91" y1="806.03" x2="723.02" y2="855.62"/><line class="cls-10" x1="869.03" y1="840.74" x2="808.91" y2="806.03"/><line class="cls-10" x1="783.14" y1="890.33" x2="869.03" y2="840.74"/><line class="cls-10" x1="808.91" y1="815.95" x2="808.91" y2="806.03"/><line class="cls-10" x1="731.61" y1="860.58" x2="808.91" y2="815.95"/><line class="cls-10" x1="860.44" y1="845.7" x2="808.91" y2="815.95"/><polygon class="cls-10" points="817.5 939.92 808.91 944.88 808.91 915.13 817.5 910.17 817.5 939.92"/><polygon class="cls-10" points="851.86 890.33 851.86 920.08 860.45 915.13 860.45 885.37 851.86 890.33"/><polygon class="cls-10" points="869.03 880.41 869.03 910.17 877.62 905.21 877.62 875.45 869.03 880.41"/><polygon class="cls-10" points="826.09 905.21 826.09 934.96 834.68 930 834.68 900.25 826.09 905.21"/><polygon class="cls-10" points="817.5 989.51 808.91 994.47 808.91 964.71 817.5 959.75 817.5 989.51"/><polygon class="cls-10" points="851.86 939.92 851.86 969.67 860.45 964.71 860.45 934.96 851.86 939.92"/><polygon class="cls-10" points="869.03 930 869.03 959.75 877.62 954.8 877.62 925.04 869.03 930"/><polygon class="cls-10" points="826.09 954.8 826.09 984.55 834.68 979.59 834.68 949.84 826.09 954.8"/><line class="cls-10" x1="817.5" y1="860.58" x2="791.73" y2="845.7"/><line class="cls-10" x1="834.68" y1="850.66" x2="834.68" y2="840.94"/><line class="cls-10" x1="817.5" y1="860.58" x2="834.68" y2="850.66"/><line class="cls-10" x1="817.5" y1="850.66" x2="817.5" y2="860.58"/><line class="cls-10" x1="791.73" y1="835.78" x2="817.5" y2="850.66"/><line class="cls-10" x1="791.73" y1="845.7" x2="791.73" y2="835.78"/><line class="cls-10" x1="817.5" y1="850.66" x2="834.68" y2="840.94"/><line class="cls-10" x1="791.73" y1="835.78" x2="808.91" y2="825.86"/><line class="cls-10" x1="834.68" y1="840.94" x2="808.91" y2="825.86"/><polygon class="cls-2" points="652.57 1102.31 536.18 1035.11 528.77 1039.23 463.44 1001.51 463.44 808.32 579.83 741.12 645.32 778.91 645.32 787.24 761.69 854.3 761.69 904.92 747.15 913.32 761.69 921.72 761.69 972.12 747.07 980.48 761.69 988.91 761.69 1039.31 652.57 1102.31"/><polygon class="cls-76" points="528.77 1039.23 463.44 1001.51 463.44 808.32 528.77 846.04 528.77 1039.23"/><polygon class="cls-77" points="536.18 984.71 536.18 1035.11 652.57 1102.31 652.57 1051.91 536.18 984.71"/><polygon class="cls-78" points="536.18 917.91 536.18 925.95 645.3 989.11 645.3 1022.51 536.18 959.51 536.18 968.04 652.57 1035.12 652.57 985.11 536.18 917.91"/><polygon class="cls-79" points="536.18 850.54 536.18 858.58 645.3 921.74 645.3 955.14 536.18 892.14 536.18 900.67 652.57 967.75 652.57 917.74 536.18 850.54"/><polygon class="cls-9" points="751.96 921.72 647.85 982.38 536.18 917.91 550.72 909.12 652.57 968.04 742.57 916.1 751.96 921.72"/><polygon class="cls-9" points="751.96 988.91 647.48 1049.18 536.18 984.92 550.72 976.13 652.57 1035.05 742.25 983.3 751.96 988.91"/><polygon class="cls-9" points="536.18 850.39 528.75 863.01 528.77 1039.23 536.18 1035.11 536.18 984.71 550.64 976.37 536.18 968.04 536.18 959.51 543.41 955.29 543.46 930.12 536.18 925.95 536.18 917.91 550.72 909.12 536.18 900.72 536.18 892.33 543.41 888.1 543.46 863.01 536.18 858.58 536.18 850.39"/><polygon class="cls-9" points="543.41 955.29 536.18 959.51 645.3 1022.51 645.3 1014.11 543.41 955.29"/><polygon class="cls-9" points="543.41 888.1 536.18 892.33 645.3 955.33 645.3 946.93 543.41 888.1"/><polygon class="cls-9" points="528.77 846.04 463.44 808.32 579.83 741.12 645.32 778.91 528.77 846.04"/><line class="cls-10" x1="528.77" y1="1039.23" x2="463.44" y2="1001.51"/><line class="cls-10" x1="652.57" y1="1102.31" x2="761.69" y2="1039.31"/><line class="cls-10" x1="536.18" y1="1035.11" x2="652.57" y2="1102.31"/><line class="cls-10" x1="528.77" y1="1039.23" x2="536.18" y2="1035.11"/><line class="cls-10" x1="528.77" y1="1039.23" x2="528.77" y2="846.04"/><line class="cls-10" x1="536.18" y1="858.72" x2="536.18" y2="850.39"/><line class="cls-10" x1="652.57" y1="968.04" x2="652.57" y2="917.59"/><line class="cls-10" x1="652.57" y1="1035.12" x2="652.57" y2="985.11"/><line class="cls-10" x1="652.57" y1="1102.31" x2="652.57" y2="1051.91"/><line class="cls-10" x1="761.69" y1="904.92" x2="761.69" y2="854.3"/><line class="cls-10" x1="761.69" y1="972.12" x2="761.69" y2="921.72"/><line class="cls-10" x1="761.69" y1="1039.23" x2="761.69" y2="988.91"/><line class="cls-10" x1="652.57" y1="917.59" x2="761.69" y2="854.3"/><line class="cls-10" x1="652.57" y1="917.59" x2="536.18" y2="850.39"/><line class="cls-10" x1="652.57" y1="985.11" x2="536.18" y2="917.91"/><line class="cls-10" x1="645.32" y1="778.91" x2="579.83" y2="741.12"/><line class="cls-10" x1="761.69" y1="854.3" x2="645.32" y2="787.24"/><line class="cls-10" x1="645.32" y1="778.91" x2="528.77" y2="846.04"/><line class="cls-10" x1="645.32" y1="778.91" x2="645.32" y2="787.24"/><line class="cls-10" x1="536.18" y1="850.39" x2="645.32" y2="787.24"/><line class="cls-10" x1="463.44" y1="1001.51" x2="463.44" y2="808.32"/><line class="cls-10" x1="528.77" y1="846.04" x2="463.44" y2="808.32"/><line class="cls-10" x1="463.44" y1="808.32" x2="579.83" y2="741.12"/><line class="cls-10" x1="536.18" y1="858.72" x2="645.3" y2="921.72"/><line class="cls-10" x1="645.3" y1="921.72" x2="645.3" y2="955.31"/><line class="cls-10" x1="645.3" y1="955.31" x2="536.18" y2="892.32"/><line class="cls-10" x1="652.57" y1="968.04" x2="536.18" y2="900.72"/><line class="cls-10" x1="536.18" y1="925.95" x2="645.3" y2="988.95"/><line class="cls-10" x1="645.3" y1="989.11" x2="645.3" y2="1022.51"/><line class="cls-10" x1="645.3" y1="1022.51" x2="536.18" y2="959.51"/><line class="cls-10" x1="652.57" y1="1035.11" x2="536.18" y2="968.04"/><line class="cls-10" x1="652.57" y1="968.04" x2="761.69" y2="904.92"/><line class="cls-10" x1="761.69" y1="921.72" x2="652.57" y2="985.11"/><line class="cls-10" x1="761.69" y1="972.11" x2="652.57" y2="1035.11"/><line class="cls-10" x1="761.69" y1="921.72" x2="747.15" y2="913.32"/><line class="cls-10" x1="536.18" y1="892.32" x2="536.18" y2="900.72"/><line class="cls-10" x1="536.18" y1="917.91" x2="536.18" y2="925.95"/><line class="cls-10" x1="550.72" y1="909.12" x2="536.18" y2="917.91"/><line class="cls-10" x1="543.46" y1="888.12" x2="543.46" y2="863.01"/><line class="cls-10" x1="645.32" y1="946.93" x2="543.46" y2="888.12"/><line class="cls-10" x1="536.18" y1="892.32" x2="543.46" y2="888.12"/><line class="cls-10" x1="747.07" y1="980.47" x2="761.69" y2="988.91"/><line class="cls-10" x1="652.57" y1="1051.91" x2="761.69" y2="988.91"/><line class="cls-10" x1="536.18" y1="968.04" x2="536.18" y2="959.51"/><line class="cls-10" x1="536.18" y1="1035.11" x2="536.18" y2="984.71"/><line class="cls-10" x1="652.57" y1="1051.91" x2="536.18" y2="984.71"/><line class="cls-10" x1="550.64" y1="976.37" x2="536.18" y2="984.71"/><line class="cls-10" x1="536.18" y1="959.51" x2="543.41" y2="955.29"/><line class="cls-10" x1="543.46" y1="930.12" x2="543.46" y2="955.29"/><line class="cls-10" x1="645.3" y1="1014.11" x2="543.41" y2="955.29"/><polygon class="cls-2" points="395.82 811 344.49 840.64 335.93 835.7 327.38 840.64 327.38 850.52 276.04 880.16 199.04 835.7 199.04 588.72 318.82 519.57 395.82 564.02 395.82 811"/><polygon class="cls-80" points="344.49 840.64 335.93 835.7 335.93 588.72 344.49 593.66 344.49 840.64"/><polygon class="cls-81" points="199.04 677.59 216.15 687.47 216.15 707.23 276.04 741.85 276.04 771.49 258.93 761.51 258.93 751.63 199.04 717.06 199.04 677.59"/><polygon class="cls-82" points="199.04 628.22 216.15 638.1 216.15 657.85 276.04 692.48 276.04 722.12 258.93 712.14 258.93 702.26 199.04 667.68 199.04 628.22"/><polygon class="cls-83" points="199.04 726.91 216.15 736.79 216.15 756.55 276.04 791.17 276.04 820.81 258.93 810.84 258.93 800.96 199.04 766.38 199.04 726.91"/><polygon class="cls-84" points="199.04 588.72 276.04 633.18 276.04 672.6 258.93 662.82 258.93 652.94 199.04 618.36 199.04 588.72"/><polygon class="cls-85" points="199.04 776.43 216.15 786.31 216.15 806.06 276.04 840.64 276.04 880.16 199.04 835.7 199.04 776.43"/><polygon class="cls-9" points="258.93 662.82 199.04 628.22 199.04 618.36 258.93 652.94 258.93 662.82"/><polygon class="cls-9" points="258.93 712.16 199.04 677.56 199.04 667.71 258.93 702.28 258.93 712.16"/><polygon class="cls-9" points="258.93 761.51 199.04 726.91 199.04 717.06 258.93 751.63 258.93 761.51"/><polygon class="cls-9" points="258.93 810.86 199.04 776.26 199.04 766.4 258.93 800.98 258.93 810.86"/><polygon class="cls-9" points="335.93 588.72 335.93 835.7 327.38 840.64 327.38 603.54 318.82 598.6 335.93 588.72"/><line class="cls-10" x1="199.04" y1="588.72" x2="276.04" y2="633.18"/><line class="cls-10" x1="327.38" y1="603.54" x2="276.04" y2="633.18"/><line class="cls-10" x1="395.82" y1="564.03" x2="344.49" y2="593.66"/><line class="cls-10" x1="318.82" y1="519.57" x2="395.82" y2="564.03"/><line class="cls-10" x1="199.04" y1="588.72" x2="318.82" y2="519.57"/><line class="cls-10" x1="276.04" y1="633.18" x2="276.04" y2="880.16"/><line class="cls-10" x1="199.04" y1="588.72" x2="199.04" y2="835.7"/><line class="cls-10" x1="276.04" y1="880.16" x2="199.04" y2="835.7"/><line class="cls-10" x1="395.82" y1="564.03" x2="395.82" y2="811"/><line class="cls-10" x1="344.49" y1="840.64" x2="395.82" y2="811"/><line class="cls-10" x1="276.04" y1="880.16" x2="327.38" y2="850.52"/><line class="cls-10" x1="327.38" y1="603.54" x2="327.38" y2="850.52"/><line class="cls-10" x1="344.49" y1="840.64" x2="344.49" y2="593.66"/><line class="cls-10" x1="327.38" y1="603.54" x2="318.82" y2="598.6"/><line class="cls-10" x1="335.93" y1="588.72" x2="318.82" y2="598.6"/><line class="cls-10" x1="344.49" y1="593.66" x2="335.93" y2="588.72"/><line class="cls-10" x1="335.93" y1="835.7" x2="344.49" y2="840.64"/><line class="cls-10" x1="335.93" y1="835.7" x2="335.93" y2="588.72"/><line class="cls-10" x1="335.93" y1="835.7" x2="327.38" y2="840.64"/><line class="cls-10" x1="258.93" y1="652.94" x2="199.04" y2="618.36"/><line class="cls-10" x1="258.93" y1="662.82" x2="258.93" y2="652.94"/><line class="cls-10" x1="199.04" y1="628.24" x2="258.93" y2="662.82"/><line class="cls-10" x1="276.04" y1="672.6" x2="310.26" y2="652.84"/><line class="cls-10" x1="310.26" y1="672.7" x2="310.26" y2="652.84"/><line class="cls-10" x1="310.26" y1="672.7" x2="276.04" y2="692.45"/><line class="cls-10" x1="276.04" y1="722.09" x2="310.26" y2="702.29"/><line class="cls-10" x1="310.26" y1="722.09" x2="310.26" y2="702.29"/><line class="cls-10" x1="310.26" y1="722.09" x2="276.04" y2="741.85"/><line class="cls-10" x1="276.04" y1="771.49" x2="310.26" y2="751.73"/><line class="cls-10" x1="310.26" y1="771.49" x2="310.26" y2="751.73"/><line class="cls-10" x1="310.26" y1="771.49" x2="276.04" y2="791.25"/><line class="cls-10" x1="276.04" y1="820.88" x2="310.26" y2="801.12"/><line class="cls-10" x1="310.26" y1="820.88" x2="310.26" y2="801.12"/><line class="cls-10" x1="310.26" y1="820.88" x2="276.04" y2="840.64"/><line class="cls-10" x1="276.04" y1="672.7" x2="216.15" y2="638.12"/><line class="cls-10" x1="276.04" y1="692.45" x2="216.15" y2="657.88"/><line class="cls-10" x1="216.15" y1="638.12" x2="216.15" y2="657.88"/><line class="cls-10" x1="258.93" y1="702.29" x2="199.04" y2="667.71"/><line class="cls-10" x1="258.93" y1="712.16" x2="258.93" y2="702.29"/><line class="cls-10" x1="199.04" y1="677.59" x2="258.93" y2="712.16"/><line class="cls-10" x1="276.04" y1="722.09" x2="216.15" y2="687.47"/><line class="cls-10" x1="276.04" y1="741.8" x2="216.15" y2="707.22"/><line class="cls-10" x1="216.15" y1="687.47" x2="216.15" y2="707.22"/><line class="cls-10" x1="258.93" y1="751.63" x2="199.04" y2="717.06"/><line class="cls-10" x1="258.93" y1="761.51" x2="258.93" y2="751.63"/><line class="cls-10" x1="199.04" y1="726.94" x2="258.93" y2="761.51"/><line class="cls-10" x1="276.04" y1="771.49" x2="216.15" y2="736.81"/><line class="cls-10" x1="276.04" y1="791.15" x2="216.15" y2="756.57"/><line class="cls-10" x1="216.15" y1="736.81" x2="216.15" y2="756.57"/><line class="cls-10" x1="258.93" y1="801.12" x2="199.04" y2="766.55"/><line class="cls-10" x1="258.93" y1="811" x2="258.93" y2="801.12"/><line class="cls-10" x1="199.04" y1="776.43" x2="258.93" y2="811"/><line class="cls-10" x1="276.04" y1="820.88" x2="216.15" y2="786.31"/><line class="cls-10" x1="276.04" y1="840.64" x2="216.15" y2="806.06"/><line class="cls-10" x1="216.15" y1="786.31" x2="216.15" y2="806.06"/><line class="cls-10" x1="361.6" y1="623.3" x2="361.6" y2="643.06"/><line class="cls-10" x1="395.82" y1="603.54" x2="361.6" y2="623.3"/><line class="cls-10" x1="395.82" y1="623.3" x2="361.6" y2="643.06"/><line class="cls-10" x1="361.6" y1="672.7" x2="361.6" y2="692.45"/><line class="cls-10" x1="395.82" y1="652.94" x2="361.6" y2="672.7"/><line class="cls-10" x1="395.82" y1="672.7" x2="361.6" y2="692.45"/><line class="cls-10" x1="361.68" y1="722.04" x2="361.68" y2="741.85"/><line class="cls-10" x1="395.9" y1="702.29" x2="361.68" y2="722.04"/><line class="cls-10" x1="395.82" y1="722.09" x2="361.68" y2="741.85"/><line class="cls-10" x1="361.6" y1="771.49" x2="361.6" y2="791.2"/><line class="cls-10" x1="395.82" y1="751.73" x2="361.6" y2="771.49"/><line class="cls-10" x1="395.82" y1="771.49" x2="361.6" y2="791.2"/><path class="cls-12" d="M351,373.1l-8.54-13.83q.18-1.8.18-3.64a36.09,36.09,0,1,0-7.15,21.57Z"/><rect class="cls-13" x="289.61" y="345.16" width="33.54" height="22.03"/><polyline class="cls-10" points="289.61 345.17 306.37 359.3 323.14 345.17"/><path class="cls-12" d="M1181.38,584.26l18.85-5.24q2,.81,4.15,1.43a43.45,43.45,0,1,0-22.54-15.5Z"/><line class="cls-10" x1="1195.89" y1="554.47" x2="1210.92" y2="540.65"/><line class="cls-10" x1="1224.9" y1="545.02" x2="1238.79" y2="532.24"/><line class="cls-10" x1="1210.92" y1="540.65" x2="1224.9" y2="545.02"/><line class="cls-10" x1="1195.89" y1="554.47" x2="1195.89" y2="524.32"/><line class="cls-10" x1="1244.05" y1="554.47" x2="1195.89" y2="554.47"/><polyline class="cls-10" points="1241.41 551.84 1244.05 554.48 1241.41 557.11"/><polyline class="cls-10" points="1193.25 525.64 1195.89 523 1198.53 525.64"/><circle class="cls-86" cx="1210.92" cy="540.65" r="2.61"/><circle class="cls-87" cx="1224.9" cy="545.02" r="2.61"/><circle class="cls-88" cx="1195.89" cy="554.47" r="2.61"/><circle class="cls-89" cx="1238.79" cy="532.24" r="2.61"/><line class="cls-10" x1="534.79" y1="465.68" x2="541.98" y2="461.53"/><path class="cls-12" d="M715.23,804.89l22.64-6.29q2.42,1,5,1.72a52.18,52.18,0,1,0-27.07-18.61Z"/><rect class="cls-13" x="740.01" y="725.14" width="39.34" height="45.92"/><rect class="cls-12" x="732.76" y="731.8" width="39.34" height="45.92"/><rect class="cls-13" x="737.92" y="738.46" width="10.14" height="10.87"/><line class="cls-10" x1="752.42" y1="738.46" x2="766.93" y2="738.46"/><line class="cls-10" x1="752.42" y1="749.33" x2="766.93" y2="749.33"/><line class="cls-10" x1="737.92" y1="760.2" x2="766.93" y2="760.2"/><line class="cls-10" x1="737.92" y1="771.07" x2="766.93" y2="771.07"/></g></svg>