<svg xmlns="http://www.w3.org/2000/svg" xmlns:xlink="http://www.w3.org/1999/xlink" viewBox="0 0 286.94 313.41"><defs><style>.cls-1{fill:url(#linear-gradient);}.cls-2{fill:url(#radial-gradient);}.cls-3{opacity:0.3;}.cls-10,.cls-4,.cls-5{fill:#5b7ff6;}.cls-4{opacity:0.5;}.cls-6{fill:#6d92f6;}.cls-7{fill:#8eb4f7;}.cls-11,.cls-8{fill:none;}.cls-8{stroke:#5882f5;}.cls-11,.cls-8,.cls-9{stroke-miterlimit:10;}.cls-10,.cls-11,.cls-8,.cls-9{stroke-width:2.92px;}.cls-9{fill:#fff;}.cls-10,.cls-11,.cls-9{stroke:#5b7ff6;}.cls-10{stroke-linecap:round;stroke-linejoin:round;}</style><linearGradient id="linear-gradient" y1="229.49" x2="286.94" y2="229.49" gradientUnits="userSpaceOnUse"><stop offset="0" stop-color="#dce9ff"/><stop offset="1" stop-color="#7ea3f6"/></linearGradient><radialGradient id="radial-gradient" cx="8.95" cy="263.99" r="155.38" gradientTransform="matrix(0.94, -0.35, 0.35, 0.95, -92.06, 17.14)" gradientUnits="userSpaceOnUse"><stop offset="0" stop-color="#fff"/><stop offset="1" stop-color="#dce9ff"/></radialGradient></defs><title>Asset 2</title><g id="Layer_2" data-name="Layer 2"><g id="_001_-_crie_materiais_consistentes" data-name="001 - crie materiais consistentes"><path class="cls-1" d="M284.05,223.79a7.29,7.29,0,0,0-.66-.44L153.23,148.2a19.51,19.51,0,0,0-19.51,0L3.55,223.35a7.29,7.29,0,0,0-.66.44H0v5.7a7,7,0,0,0,3.55,6.15l130.17,75.15a19.51,19.51,0,0,0,19.51,0l130.17-75.15a7,7,0,0,0,3.55-6.15v-5.7Z"/><path class="cls-2" d="M283.39,229.94,153.23,305.09a19.51,19.51,0,0,1-19.51,0L3.55,229.94a7.1,7.1,0,0,1,0-12.29l130.17-75.15a19.51,19.51,0,0,1,19.51,0l130.17,75.15A7.1,7.1,0,0,1,283.39,229.94Z"/><g class="cls-3"><path class="cls-4" d="M164.53,211.55c11.72,6.77,11.78,17.73.14,24.49s-30.55,6.76-42.27,0-11.77-17.72-.14-24.48S152.83,204.79,164.53,211.55Z"/></g><path class="cls-5" d="M151.62,184.08l13.78-8a69.31,69.31,0,0,0,20.29-17.79,93.3,93.3,0,0,0,15.66-30.41,73.92,73.92,0,0,0,2.39-30.1c-2.52-21.13-12-41.66-24.5-58.67C167.45,23.11,151,7.53,131.16,2.65,122.68.57,113.71,1,106,5.44c-4.94,2.83-9.85,5.72-14.77,8.58l-1.45.84,55.06,45L169.59,80Z"/><path class="cls-6" d="M161.12,84.59l25,21,17.38-9.43C202.14,88.29,200,75,194.45,65.5Z"/><path class="cls-7" d="M179.1,39.18l.13-.08C167.45,23.11,151,7.53,131.16,2.65,122.68.57,113.71,1,106,5.44c-4.94,2.83-9.85,5.72-14.77,8.58l-1.45.84L169.4,80l25.38-13.77A140.55,140.55,0,0,0,179.1,39.18Z"/><path class="cls-8" d="M154.35,106.52c-10.7-2.27-19-11.7-24.44-20.67-5.52-9.18-9.78-21.68-6.45-32.33"/><path class="cls-9" d="M130.68,18.87C162.4,37.18,188,81.57,187.92,118s-35.89,80.5-57.71,67.9S73,88.15,73.06,51.69,99,.55,130.68,18.87Zm-.27,94.25C144,121,155,114.66,155.08,99.05s-10.93-34.62-24.5-42.46S105.95,55,105.9,70.66s10.93,34.62,24.52,42.46"/><path class="cls-10" d="M130.59,113.41c11.14,6.43,20.58,3.34,23.63-6.6-10.7-2.27-18.74-11.7-24.14-20.67-5.52-9.18-9.84-21.52-6.5-32.17-10.09-2.29-17.46,4.24-17.5,17,0,15.61,10.93,34.62,24.52,42.46"/><path class="cls-11" d="M151.62,184.08l13.78-8a69.31,69.31,0,0,0,20.29-17.79,93.3,93.3,0,0,0,15.66-30.41,73.92,73.92,0,0,0,2.39-30.1c-2.52-21.13-12-41.66-24.5-58.67C167.45,23.11,151,7.53,131.16,2.65,122.68.57,113.71,1,106,5.44c-4.94,2.83-9.85,5.72-14.77,8.58l-1.45.84"/></g></g></svg>