<svg xmlns="http://www.w3.org/2000/svg" xmlns:xlink="http://www.w3.org/1999/xlink" viewBox="0 0 286.94 313.97"><defs><style>.cls-1{fill:url(#linear-gradient);}.cls-2{fill:url(#radial-gradient);}.cls-3{opacity:0.3;}.cls-4,.cls-7{fill:#5b7ff6;}.cls-4{opacity:0.5;}.cls-10,.cls-5{fill:#fff;}.cls-6{fill:#8eb4f7;}.cls-12,.cls-8{fill:#dce9ff;}.cls-11,.cls-9{fill:none;}.cls-10,.cls-11,.cls-12,.cls-9{stroke:#5b7ff6;stroke-linecap:round;stroke-linejoin:round;}.cls-10,.cls-12,.cls-9{stroke-width:2.92px;}.cls-11{stroke-width:5.85px;}</style><linearGradient id="linear-gradient" y1="230.06" x2="286.94" y2="230.06" gradientUnits="userSpaceOnUse"><stop offset="0" stop-color="#dce9ff"/><stop offset="1" stop-color="#7ea3f6"/></linearGradient><radialGradient id="radial-gradient" cx="8.95" cy="264.55" r="155.38" gradientTransform="matrix(0.94, -0.35, 0.35, 0.95, -92.26, 17.17)" gradientUnits="userSpaceOnUse"><stop offset="0" stop-color="#fff"/><stop offset="1" stop-color="#dce9ff"/></radialGradient></defs><title>Asset 6</title><g id="Layer_2" data-name="Layer 2"><g id="_001_-_crie_materiais_consistentes" data-name="001 - crie materiais consistentes"><path class="cls-1" d="M284.05,224.35a7.29,7.29,0,0,0-.66-.44L153.23,148.76a19.51,19.51,0,0,0-19.51,0L3.55,223.91a7.29,7.29,0,0,0-.66.44H0v5.7a7,7,0,0,0,3.55,6.15l130.17,75.15a19.51,19.51,0,0,0,19.51,0L283.39,236.2a7,7,0,0,0,3.55-6.15v-5.7Z"/><path class="cls-2" d="M283.39,230.5,153.23,305.65a19.51,19.51,0,0,1-19.51,0L3.55,230.5a7.1,7.1,0,0,1,0-12.29l130.17-75.15a19.51,19.51,0,0,1,19.51,0l130.17,75.15A7.1,7.1,0,0,1,283.39,230.5Z"/><g class="cls-3"><path class="cls-4" d="M164.53,212.11c11.72,6.77,11.78,17.73.14,24.49s-30.55,6.76-42.27,0-11.77-17.72-.14-24.48S152.83,205.35,164.53,212.11Z"/></g><path class="cls-5" d="M164.8,91.2a38.6,38.6,0,1,0-46.73.93c-28,12.88-38,40.81-38,60.1,0,23.7,50.06,45.41,81.12,45.41,14.25,0,44.7-19,44.7-33.14C205.94,159.91,195.8,107.66,164.8,91.2Z"/><path class="cls-6" d="M143.47,99.59s26,29.08,26,96.4c0,0,36.43-13.59,36.43-31.49S187.42,101.21,164.8,91.2l-8.94,5.35Z"/><path class="cls-7" d="M162.61,92.65c18.11,6.94,47.56,74,32,89.4,0,0,11.27-7.51,11.27-16.21,0-17.9-18.42-64.63-41-74.65Z"/><path class="cls-8" d="M155.09,96.86c22.94,16.22,46,85.92,18,98.1-15.23,6.64-29-.55-31.28-1.34,31.88,7.1,26.6-70-3.95-94A67.45,67.45,0,0,0,155.09,96.86Z"/><path class="cls-9" d="M118.07,92.12c-28,12.88-39.72,42.47-38,60.11,3,29.74,60.33,45.41,81.12,45.41,14.25,0,44.7-16.7,44.7-33.14,0-9.48-10.12-56.84-41.12-73.31"/><circle class="cls-7" cx="140.81" cy="61" r="38.59"/><path class="cls-6" d="M174.7,58.26a38.54,38.54,0,0,0-16.76-31.81,38.57,38.57,0,0,0-39,66.35A38.53,38.53,0,0,0,174.7,58.26Z"/><path class="cls-8" d="M166.46,57A34.16,34.16,0,0,0,151.61,28.8a34.18,34.18,0,0,0-34.54,58.81A34.15,34.15,0,0,0,166.46,57Z"/><path class="cls-5" d="M152.95,53.87A26.5,26.5,0,0,0,141.42,32a26.52,26.52,0,0,0-26.8,45.63,26.5,26.5,0,0,0,38.32-23.76Z"/><circle class="cls-9" cx="140.81" cy="61" r="38.59"/><circle class="cls-10" cx="202.14" cy="177.39" r="27"/><polyline class="cls-11" points="189.64 176.6 199.06 186.03 217.91 167.18"/><path class="cls-12" d="M91.43,76,85.72,64.5a40.21,40.21,0,1,0-11.54,11l14.06,4.32A2.68,2.68,0,0,0,91.43,76Z"/><circle class="cls-7" cx="37.57" cy="41.53" r="3.66"/><circle class="cls-7" cx="52.91" cy="41.53" r="3.66"/><circle class="cls-7" cx="68.25" cy="41.53" r="3.66"/></g></g></svg>