<svg xmlns="http://www.w3.org/2000/svg" xmlns:xlink="http://www.w3.org/1999/xlink" viewBox="0 0 286.94 314.06"><defs><style>.cls-1{fill:url(#linear-gradient);}.cls-2{fill:url(#radial-gradient);}.cls-3{opacity:0.3;}.cls-4,.cls-5{fill:#5b7ff6;}.cls-4{opacity:0.5;}.cls-5,.cls-6,.cls-7,.cls-8{stroke:#5b7ff6;stroke-linecap:round;stroke-linejoin:round;stroke-width:2.92px;}.cls-6{fill:#dce9ff;}.cls-7{fill:#fff;}.cls-8{fill:none;}</style><linearGradient id="linear-gradient" y1="230.15" x2="286.94" y2="230.15" gradientUnits="userSpaceOnUse"><stop offset="0" stop-color="#dce9ff"/><stop offset="1" stop-color="#7ea3f6"/></linearGradient><radialGradient id="radial-gradient" cx="8.95" cy="264.64" r="155.38" gradientTransform="matrix(0.94, -0.35, 0.35, 0.95, -92.29, 17.18)" gradientUnits="userSpaceOnUse"><stop offset="0" stop-color="#fff"/><stop offset="1" stop-color="#dce9ff"/></radialGradient></defs><title>Asset 1</title><g id="Layer_2" data-name="Layer 2"><g id="_001_-_crie_materiais_consistentes" data-name="001 - crie materiais consistentes"><path class="cls-1" d="M284.05,224.45a7.29,7.29,0,0,0-.66-.44L153.23,148.85a19.51,19.51,0,0,0-19.51,0L3.55,224a7.29,7.29,0,0,0-.66.44H0v5.7a7,7,0,0,0,3.55,6.15l130.17,75.15a19.51,19.51,0,0,0,19.51,0L283.39,236.3a7,7,0,0,0,3.55-6.15v-5.7Z"/><path class="cls-2" d="M283.39,230.59,153.23,305.75a19.51,19.51,0,0,1-19.51,0L3.55,230.59a7.1,7.1,0,0,1,0-12.29l130.17-75.15a19.51,19.51,0,0,1,19.51,0L283.39,218.3A7.1,7.1,0,0,1,283.39,230.59Z"/><g class="cls-3"><path class="cls-4" d="M164.53,212.2c11.72,6.77,11.78,17.73.14,24.49s-30.55,6.76-42.27,0-11.77-17.72-.14-24.48S152.83,205.44,164.53,212.2Z"/></g><path class="cls-5" d="M210.91,204.32,118,150.66A13.5,13.5,0,0,1,111.23,139V6.92A5.45,5.45,0,0,1,119.4,2.2l92.93,53.66a13.5,13.5,0,0,1,6.75,11.69v132A5.45,5.45,0,0,1,210.91,204.32Z"/><path class="cls-6" d="M189.34,216.77,96.4,163.12a13.5,13.5,0,0,1-6.75-11.69V19.54a5.45,5.45,0,0,1,8.18-4.72l92.93,53.66a13.5,13.5,0,0,1,6.75,11.69V212A5.45,5.45,0,0,1,189.34,216.77Z"/><path class="cls-7" d="M167.77,229.23,74.83,175.57a13.5,13.5,0,0,1-6.75-11.69V32.16a5.45,5.45,0,0,1,8.18-4.72L169.19,81.1a13.5,13.5,0,0,1,6.75,11.69V224.5A5.45,5.45,0,0,1,167.77,229.23Z"/><polygon class="cls-6" points="122.01 128.42 89.65 109.9 89.65 60.08 122.01 78.6 122.01 128.42"/><line class="cls-8" x1="89.65" y1="134.81" x2="154.37" y2="172.18"/><line class="cls-8" x1="132.8" y1="134.65" x2="154.37" y2="147.1"/><line class="cls-8" x1="132.8" y1="109.57" x2="154.37" y2="122.03"/><line class="cls-8" x1="132.8" y1="84.5" x2="154.37" y2="96.95"/><path class="cls-8" d="M89.65,59.59"/><line class="cls-8" x1="89.65" y1="159.72" x2="154.37" y2="197.09"/></g></g></svg>