<svg xmlns="http://www.w3.org/2000/svg" xmlns:xlink="http://www.w3.org/1999/xlink" viewBox="0 0 286.94 313.27"><defs><style>.cls-1{fill:url(#linear-gradient);}.cls-2{fill:url(#radial-gradient);}.cls-3{opacity:0.3;}.cls-4,.cls-5{fill:#5b7ff6;}.cls-4{opacity:0.5;}.cls-5,.cls-8,.cls-9{stroke:#5b7ff6;stroke-linecap:round;stroke-linejoin:round;stroke-width:2.92px;}.cls-6{fill:#dce9ff;}.cls-7{fill:#7ea3f6;}.cls-8{fill:none;}.cls-9{fill:#fff;}</style><linearGradient id="linear-gradient" y1="229.35" x2="286.94" y2="229.35" gradientUnits="userSpaceOnUse"><stop offset="0" stop-color="#dce9ff"/><stop offset="1" stop-color="#7ea3f6"/></linearGradient><radialGradient id="radial-gradient" cx="8.95" cy="263.85" r="155.38" gradientTransform="matrix(0.94, -0.35, 0.35, 0.95, -92.02, 17.14)" gradientUnits="userSpaceOnUse"><stop offset="0" stop-color="#fff"/><stop offset="1" stop-color="#dce9ff"/></radialGradient></defs><title>Asset 4</title><g id="Layer_2" data-name="Layer 2"><g id="_001_-_crie_materiais_consistentes" data-name="001 - crie materiais consistentes"><path class="cls-1" d="M284.05,223.65a7.29,7.29,0,0,0-.66-.44L153.23,148.06a19.51,19.51,0,0,0-19.51,0L3.55,223.21a7.29,7.29,0,0,0-.66.44H0v5.7a7,7,0,0,0,3.55,6.15l130.17,75.15a19.51,19.51,0,0,0,19.51,0L283.39,235.5a7,7,0,0,0,3.55-6.15v-5.7Z"/><path class="cls-2" d="M283.39,229.8,153.23,304.95a19.51,19.51,0,0,1-19.51,0L3.55,229.8a7.1,7.1,0,0,1,0-12.29l130.17-75.15a19.51,19.51,0,0,1,19.51,0L283.39,217.5A7.1,7.1,0,0,1,283.39,229.8Z"/><g class="cls-3"><path class="cls-4" d="M164.53,211.4c11.72,6.77,11.78,17.73.14,24.49s-30.55,6.76-42.27,0-11.77-17.72-.14-24.48S152.83,204.65,164.53,211.4Z"/></g><path class="cls-5" d="M94,49.06l113.16,65.34a5.26,5.26,0,0,1,2.56,5.37L194,219.71a2.42,2.42,0,0,1-3.6,1.72L77.6,156.3a3.49,3.49,0,0,1-1.7-3.56L92.08,50A1.3,1.3,0,0,1,94,49.06Z"/><path class="cls-5" d="M75.85,92.31V4.1a2.64,2.64,0,0,1,4-2.28l92.9,53.62a7.79,7.79,0,0,1,3.9,6.75v88.2a2.64,2.64,0,0,1-4,2.28L79.75,99.06A7.79,7.79,0,0,1,75.85,92.31Z"/><path class="cls-6" d="M109.22,131.15V42.95a2.64,2.64,0,0,1,4-2.28l110.08,63.56a7.79,7.79,0,0,1,3.9,6.75v88.2a2.64,2.64,0,0,1-4,2.28L113.12,137.9A7.79,7.79,0,0,1,109.22,131.15Z"/><path class="cls-7" d="M223.2,201.46a2.64,2.64,0,0,0,4-2.28V179l-28.84-53.56-77.45,17Z"/><path class="cls-8" d="M109.22,131.15V42.95a2.64,2.64,0,0,1,4-2.28l110.08,63.56a7.79,7.79,0,0,1,3.9,6.75v88.2a2.64,2.64,0,0,1-4,2.28L113.12,137.9A7.79,7.79,0,0,1,109.22,131.15Z"/><path class="cls-9" d="M61.15,69l75.19,43.41a16.62,16.62,0,0,1,8,11.27l1.24,6.47,31.62,18.25a5.26,5.26,0,0,1,2.53,3.56l13.12,68.14a1.45,1.45,0,0,1-2.14,1.53L76.9,155.9a3.49,3.49,0,0,1-1.68-2.36l-16-83.18A1.3,1.3,0,0,1,61.15,69Z"/><ellipse class="cls-7" cx="170.74" cy="102.2" rx="7.85" ry="8.61" transform="translate(-28.22 99.06) rotate(-30)"/></g></g></svg>