<svg xmlns="http://www.w3.org/2000/svg" xmlns:xlink="http://www.w3.org/1999/xlink" viewBox="0 0 286.94 313.89"><defs><style>.cls-1{fill:url(#linear-gradient);}.cls-2{fill:url(#radial-gradient);}.cls-3{opacity:0.3;}.cls-4,.cls-5{fill:#5b7ff6;}.cls-4{opacity:0.5;}.cls-6{fill:#6d92f6;}.cls-7{fill:#8eb4f7;}.cls-8{fill:#fff;}.cls-9{fill:#dce9ff;}.cls-10{fill:none;stroke:#5b7ff6;stroke-linecap:round;stroke-linejoin:round;stroke-width:2.92px;}.cls-11{fill:#b3d2ff;}</style><linearGradient id="linear-gradient" y1="229.98" x2="286.94" y2="229.98" gradientUnits="userSpaceOnUse"><stop offset="0" stop-color="#dce9ff"/><stop offset="1" stop-color="#7ea3f6"/></linearGradient><radialGradient id="radial-gradient" cx="8.95" cy="264.48" r="155.38" gradientTransform="matrix(0.94, -0.35, 0.35, 0.95, -92.24, 17.17)" gradientUnits="userSpaceOnUse"><stop offset="0" stop-color="#fff"/><stop offset="1" stop-color="#dce9ff"/></radialGradient></defs><title>Asset 5</title><g id="Layer_2" data-name="Layer 2"><g id="_001_-_crie_materiais_consistentes" data-name="001 - crie materiais consistentes"><path class="cls-1" d="M284.05,224.28a7.29,7.29,0,0,0-.66-.44L153.23,148.68a19.51,19.51,0,0,0-19.51,0L3.55,223.84a7.29,7.29,0,0,0-.66.44H0V230a7,7,0,0,0,3.55,6.15l130.17,75.15a19.51,19.51,0,0,0,19.51,0l130.17-75.15a7,7,0,0,0,3.55-6.15v-5.7Z"/><path class="cls-2" d="M283.39,230.43,153.23,305.58a19.51,19.51,0,0,1-19.51,0L3.55,230.43a7.1,7.1,0,0,1,0-12.29L133.72,143a19.51,19.51,0,0,1,19.51,0l130.17,75.15A7.1,7.1,0,0,1,283.39,230.43Z"/><g class="cls-3"><path class="cls-4" d="M164.53,212c11.72,6.77,11.78,17.73.14,24.49s-30.55,6.76-42.27,0-11.77-17.72-.14-24.48S152.83,205.27,164.53,212Z"/></g><path class="cls-5" d="M168.58,219.52,98.05,12.86c0-9,19.12-15.52,31.83-8.41L174.13,30a29.52,29.52,0,0,1,14.76,25.57V195.38C188.89,209.21,178,219.52,168.58,219.52Z"/><path class="cls-6" d="M129.28,94.72l-6.73-17.57,62.39-36a29.5,29.5,0,0,1,4,14.76v4.42Z"/><path class="cls-7" d="M122.54,77.18,98,13.21c0-9,19.12-15.52,31.83-8.41l44.25,25.55a29.5,29.5,0,0,1,10.81,10.81Z"/><path class="cls-8" d="M165.68,218.75l-61.61-35.57a12,12,0,0,1-6-10.41V12.89a5.91,5.91,0,0,1,8.87-5.12l61.61,35.57a12,12,0,0,1,6,10.41V213.63A5.91,5.91,0,0,1,165.68,218.75Z"/><path class="cls-9" d="M168.54,43.34,106.92,7.77a5.91,5.91,0,0,0-8.87,5.12v11l76.5,44.16V53.75A12,12,0,0,0,168.54,43.34Z"/><path class="cls-9" d="M98.05,157.22v15.54a12,12,0,0,0,6,10.41l61.61,35.57a5.91,5.91,0,0,0,8.87-5.12V201.39Z"/><path class="cls-10" d="M165.68,218.75l-61.61-35.57a12,12,0,0,1-6-10.41V12.89a5.91,5.91,0,0,1,8.87-5.12l61.61,35.57a12,12,0,0,1,6,10.41V213.63A5.91,5.91,0,0,1,165.68,218.75Z"/><path class="cls-10" d="M98.05,12.89c0-9,19.12-15.52,31.83-8.41L174.13,30a29.52,29.52,0,0,1,14.76,25.57V195.41c0,13.83-10.91,24.14-20.31,24.14"/><line class="cls-10" x1="130.73" y1="33.05" x2="141.87" y2="39.48"/><line class="cls-10" x1="119.81" y1="101.73" x2="148.46" y2="100.59"/><line class="cls-10" x1="144.86" y1="137.57" x2="119.81" y2="101.73"/><path class="cls-11" d="M122,109.26a5.79,5.79,0,0,1-2.89-.86,12,12,0,0,1-5.54-9.6c0-3.37,2.09-4.89,4.14-4.89a5.79,5.79,0,0,1,2.89.85,12.06,12.06,0,0,1,5.54,9.61C126.09,107.75,124,109.26,122,109.26Z"/><path class="cls-5" d="M117.67,95.38a4.38,4.38,0,0,1,2.16.66,10.62,10.62,0,0,1,4.81,8.34c0,2.16-1.1,3.42-2.68,3.42a4.38,4.38,0,0,1-2.16-.66A10.62,10.62,0,0,1,115,98.81c0-2.17,1.1-3.43,2.68-3.43m0-2.92c-3.29,0-5.6,2.61-5.61,6.34a13.45,13.45,0,0,0,6.27,10.87,7.23,7.23,0,0,0,3.62,1.05c3.29,0,5.59-2.6,5.6-6.33a13.46,13.46,0,0,0-6.27-10.88,7.22,7.22,0,0,0-3.62-1.05Z"/><path class="cls-11" d="M147.39,146.36a6.58,6.58,0,0,1-3.28-1,14.08,14.08,0,0,1-6-8.28,10.82,10.82,0,0,1-.39-2.84c0-.13,0-.26,0-.39s0-.53.07-.77a6.41,6.41,0,0,1,.37-1.41,4.92,4.92,0,0,1,.91-1.49l.24-.25a4.3,4.3,0,0,1,3-1.18,6.58,6.58,0,0,1,3.28,1,14.13,14.13,0,0,1,5.91,7.88l.11.4a11.9,11.9,0,0,1,.32,1.61,9.81,9.81,0,0,1,.07,1.21,8.32,8.32,0,0,1-.08,1.17,6.52,6.52,0,0,1-.37,1.42l-.14.33a4.33,4.33,0,0,1-4,2.6Z"/><path class="cls-5" d="M142.33,130.24a5.17,5.17,0,0,1,2.55.78,12.64,12.64,0,0,1,5.24,7l.1.36a10.3,10.3,0,0,1,.28,1.41,8.42,8.42,0,0,1,.06,1,6.74,6.74,0,0,1-.07,1,5,5,0,0,1-.28,1.09l-.1.24a2.88,2.88,0,0,1-2.71,1.76,5.18,5.18,0,0,1-2.55-.78,12.71,12.71,0,0,1-5.34-7.39,9.47,9.47,0,0,1-.34-2.45q0-.17,0-.33,0-.33.06-.62a4.92,4.92,0,0,1,.28-1.09,3.46,3.46,0,0,1,.63-1l.16-.17a2.86,2.86,0,0,1,2-.78m0-2.92a5.74,5.74,0,0,0-4,1.58l-.32.33a6.37,6.37,0,0,0-1.17,1.92,7.85,7.85,0,0,0-.46,1.74c0,.3-.07.6-.09.91q0,.23,0,.47a12.36,12.36,0,0,0,.44,3.21,15.61,15.61,0,0,0,6.7,9.17,8,8,0,0,0,4,1.17,5.81,5.81,0,0,0,5.36-3.44c.06-.14.12-.27.18-.41a7.9,7.9,0,0,0,.45-1.74,9.7,9.7,0,0,0,.1-1.38,11.39,11.39,0,0,0-.08-1.39,13.26,13.26,0,0,0-.35-1.82l-.13-.45a15.44,15.44,0,0,0-6.58-8.72,8,8,0,0,0-4-1.17Z"/><path class="cls-11" d="M151.56,110.91a7.74,7.74,0,0,1-3.85-1.15A16.69,16.69,0,0,1,140,96.46c0-3.82,2.15-6.38,5.33-6.38a7.74,7.74,0,0,1,3.85,1.15,16.68,16.68,0,0,1,7.68,13.29C156.87,108.34,154.73,110.91,151.56,110.91Z"/><path class="cls-5" d="M145.36,91.54a6.34,6.34,0,0,1,3.12,1,15.32,15.32,0,0,1,6.95,12c0,3.13-1.59,4.94-3.87,4.94a6.34,6.34,0,0,1-3.12-1,15.32,15.32,0,0,1-6.95-12c0-3.12,1.58-4.93,3.87-4.93m0-2.92h0c-4,0-6.78,3.22-6.79,7.84A18.29,18.29,0,0,0,147,111a9.17,9.17,0,0,0,4.58,1.35c4,0,6.78-3.23,6.79-7.85A18.28,18.28,0,0,0,149.94,90a9.17,9.17,0,0,0-4.59-1.35Z"/><path class="cls-5" d="M134.15,183.39a10.2,10.2,0,0,1,4.63,8c0,2.94-2.09,4.13-4.66,2.65a10.2,10.2,0,0,1-4.63-8C129.5,183.1,131.59,181.91,134.15,183.39Z"/></g></g></svg>