<svg xmlns="http://www.w3.org/2000/svg" xmlns:xlink="http://www.w3.org/1999/xlink" viewBox="0 0 286.94 309.56"><defs><style>.cls-1{fill:url(#linear-gradient);}.cls-2{fill:url(#radial-gradient);}.cls-3{opacity:0.3;}.cls-4,.cls-5,.cls-9{fill:#5b7ff6;}.cls-4{opacity:0.5;}.cls-5{opacity:0.3;}.cls-6{fill:none;}.cls-6,.cls-7,.cls-8,.cls-9{stroke:#5b7ff6;stroke-linecap:round;stroke-linejoin:round;stroke-width:2.92px;}.cls-7{fill:#b3d2ff;}.cls-8{fill:#fff;}</style><linearGradient id="linear-gradient" y1="225.65" x2="286.94" y2="225.65" gradientUnits="userSpaceOnUse"><stop offset="0" stop-color="#dce9ff"/><stop offset="1" stop-color="#7ea3f6"/></linearGradient><radialGradient id="radial-gradient" cx="8.95" cy="260.14" r="155.38" gradientTransform="matrix(0.94, -0.35, 0.35, 0.95, -90.72, 16.94)" gradientUnits="userSpaceOnUse"><stop offset="0" stop-color="#fff"/><stop offset="1" stop-color="#dce9ff"/></radialGradient></defs><title>Asset 3</title><g id="Layer_2" data-name="Layer 2"><g id="_001_-_crie_materiais_consistentes" data-name="001 - crie materiais consistentes"><path class="cls-1" d="M284.05,219.95a7.29,7.29,0,0,0-.66-.44L153.23,144.35a19.51,19.51,0,0,0-19.51,0L3.55,219.5a7.29,7.29,0,0,0-.66.44H0v5.7a7,7,0,0,0,3.55,6.15l130.17,75.15a19.51,19.51,0,0,0,19.51,0L283.39,231.8a7,7,0,0,0,3.55-6.15v-5.7Z"/><path class="cls-2" d="M283.39,226.09,153.23,301.24a19.51,19.51,0,0,1-19.51,0L3.55,226.09a7.1,7.1,0,0,1,0-12.29l130.17-75.15a19.51,19.51,0,0,1,19.51,0L283.39,213.8A7.1,7.1,0,0,1,283.39,226.09Z"/><g class="cls-3"><path class="cls-4" d="M164.53,207.7c11.72,6.77,11.78,17.73.14,24.49s-30.55,6.76-42.27,0-11.77-17.72-.14-24.48S152.83,200.94,164.53,207.7Z"/></g><polygon class="cls-5" points="58.51 124.01 122.24 87.23 270.94 172.97 207.29 209.96 58.51 124.01"/><line class="cls-6" x1="122.24" y1="87.23" x2="16.24" y2="148.53"/><line class="cls-6" x1="37.03" y1="111.91" x2="228.54" y2="222.01"/><line class="cls-6" x1="58.55" y1="148.51" x2="58.48" y2="1.46"/><polygon class="cls-7" points="143.47 74.99 122.24 87.25 101.01 74.99 122.24 62.73 143.47 74.99"/><polygon class="cls-8" points="122.24 136.28 101.01 124.02 101.01 74.99 122.24 87.25 122.24 136.28"/><polygon class="cls-9" points="122.24 136.28 143.47 124.02 143.47 74.99 122.24 87.25 122.24 136.28"/><polygon class="cls-7" points="185.93 50.47 164.7 62.73 143.47 50.47 164.7 38.22 185.93 50.47"/><polygon class="cls-8" points="164.7 160.79 143.47 148.53 143.47 50.47 164.7 62.73 164.7 160.79"/><polygon class="cls-9" points="164.7 160.79 185.93 148.53 185.93 50.47 164.7 62.73 164.7 160.79"/><polygon class="cls-7" points="228.4 25.96 207.16 38.22 185.93 25.96 207.16 13.7 228.4 25.96"/><polygon class="cls-8" points="207.16 185.31 185.93 173.05 185.93 25.96 207.16 38.22 207.16 185.31"/><polygon class="cls-9" points="207.16 185.31 228.4 173.05 228.4 25.96 207.16 38.22 207.16 185.31"/><line class="cls-6" x1="58.53" y1="1.46" x2="51.46" y2="8.72"/><line class="cls-6" x1="65.63" y1="8.72" x2="58.53" y2="1.46"/><line class="cls-6" x1="228.54" y1="222.02" x2="225.79" y2="212.28"/><line class="cls-6" x1="218.71" y1="224.55" x2="228.54" y2="222.02"/><line class="cls-6" x1="16.27" y1="148.56" x2="19.02" y2="138.82"/><line class="cls-6" x1="26.11" y1="151.09" x2="16.27" y2="148.56"/></g></g></svg>